<mxfile host="app.diagrams.net" modified="2021-09-29T09:26:49.697Z" agent="5.0 (Macintosh; Intel Mac OS X 10_13_6) AppleWebKit/537.36 (KHTML, like Gecko) Chrome/93.0.4577.82 Safari/537.36" etag="HlaBQzOzPDE3pv_HZDBt" version="15.3.7" type="github">
  <diagram id="VqKAKFx7uqcNRF2K8Cb3" name="Page-1">
    <mxGraphModel dx="1074" dy="1375" grid="0" gridSize="10" guides="1" tooltips="1" connect="1" arrows="1" fold="1" page="1" pageScale="1" pageWidth="1169" pageHeight="827" math="0" shadow="0">
      <root>
        <mxCell id="0" />
        <mxCell id="1" parent="0" />
        <mxCell id="-dllcQzm70aawtmvtiuD-71" value="" style="rounded=0;whiteSpace=wrap;html=1;dashed=1;fillColor=#f9f7ed;strokeColor=#36393d;gradientDirection=north;gradientColor=#ffffff;" parent="1" vertex="1">
          <mxGeometry x="289" y="-794" width="771" height="562" as="geometry" />
        </mxCell>
        <mxCell id="-dllcQzm70aawtmvtiuD-40" value="" style="rounded=0;whiteSpace=wrap;html=1;dashed=1;fillColor=#f5f5f5;strokeColor=#666666;fontColor=#333333;" parent="1" vertex="1">
          <mxGeometry x="338" y="-794" width="722" height="431" as="geometry" />
        </mxCell>
        <mxCell id="76WRqrTsEyU47UKnnG5--4" value="SLB&lt;br&gt;服务" style="text;html=1;align=center;verticalAlign=middle;resizable=0;points=[];;autosize=1;" parent="1" vertex="1">
          <mxGeometry x="291.5" y="-422" width="34" height="32" as="geometry" />
        </mxCell>
        <mxCell id="76WRqrTsEyU47UKnnG5--86" value="" style="edgeStyle=orthogonalEdgeStyle;rounded=0;comic=0;orthogonalLoop=1;jettySize=auto;html=1;startArrow=none;startFill=0;strokeWidth=1;entryX=0;entryY=0.5;entryDx=0;entryDy=0;" parent="1" source="76WRqrTsEyU47UKnnG5--7" target="76WRqrTsEyU47UKnnG5--63" edge="1">
          <mxGeometry relative="1" as="geometry">
            <mxPoint x="440" y="-596" as="targetPoint" />
          </mxGeometry>
        </mxCell>
        <mxCell id="76WRqrTsEyU47UKnnG5--87" value="注册服务" style="text;html=1;align=center;verticalAlign=middle;resizable=0;points=[];;labelBackgroundColor=#ffffff;" parent="76WRqrTsEyU47UKnnG5--86" vertex="1" connectable="0">
          <mxGeometry x="-0.1643" y="-1" relative="1" as="geometry">
            <mxPoint as="offset" />
          </mxGeometry>
        </mxCell>
        <mxCell id="76WRqrTsEyU47UKnnG5--7" value="" style="rounded=1;whiteSpace=wrap;html=1;dashed=1;fillColor=#fff2cc;strokeColor=#d6b656;" parent="1" vertex="1">
          <mxGeometry x="342" y="-516" width="190" height="143" as="geometry" />
        </mxCell>
        <mxCell id="76WRqrTsEyU47UKnnG5--8" value="&lt;span style=&quot;color: rgba(0 , 4 , 10 , 0.65) ; font-family: &amp;#34;helvetica neue&amp;#34; , &amp;#34;helvetica&amp;#34; , &amp;#34;pingfang sc&amp;#34; , &amp;#34;hiragino sans gb&amp;#34; , &amp;#34;microsoft yahei&amp;#34; , &amp;#34;arial&amp;#34; , sans-serif ; text-align: left ; background-color: rgb(230 , 247 , 255)&quot;&gt;Authorization&lt;/span&gt;" style="rounded=1;whiteSpace=wrap;html=1;dashed=1;" parent="1" vertex="1">
          <mxGeometry x="346" y="-467" width="41" height="37" as="geometry" />
        </mxCell>
        <mxCell id="76WRqrTsEyU47UKnnG5--9" value="&lt;font style=&quot;font-size: 11px&quot;&gt;&amp;nbsp; &amp;nbsp; &amp;nbsp;Spring Cloud Gateway&lt;/font&gt;" style="rounded=1;whiteSpace=wrap;html=1;" parent="1" vertex="1">
          <mxGeometry x="391" y="-492" width="141" height="24" as="geometry" />
        </mxCell>
        <mxCell id="76WRqrTsEyU47UKnnG5--37" value="" style="edgeStyle=elbowEdgeStyle;elbow=horizontal;endArrow=classic;html=1;exitX=1;exitY=0.5;exitDx=0;exitDy=0;entryX=0;entryY=0.5;entryDx=0;entryDy=0;" parent="1" source="76WRqrTsEyU47UKnnG5--7" target="76WRqrTsEyU47UKnnG5--12" edge="1">
          <mxGeometry width="50" height="50" relative="1" as="geometry">
            <mxPoint x="392" y="-300" as="sourcePoint" />
            <mxPoint x="442" y="-350" as="targetPoint" />
          </mxGeometry>
        </mxCell>
        <mxCell id="76WRqrTsEyU47UKnnG5--38" value="" style="group" parent="1" vertex="1" connectable="0">
          <mxGeometry x="645" y="-523" width="164" height="158" as="geometry" />
        </mxCell>
        <mxCell id="76WRqrTsEyU47UKnnG5--12" value="" style="rounded=1;whiteSpace=wrap;html=1;dashed=1;fillColor=#dae8fc;strokeColor=#6c8ebf;" parent="76WRqrTsEyU47UKnnG5--38" vertex="1">
          <mxGeometry width="164" height="157" as="geometry" />
        </mxCell>
        <mxCell id="76WRqrTsEyU47UKnnG5--21" value="" style="group" parent="76WRqrTsEyU47UKnnG5--38" vertex="1" connectable="0">
          <mxGeometry x="14" y="10" width="43" height="135" as="geometry" />
        </mxCell>
        <mxCell id="76WRqrTsEyU47UKnnG5--13" value="" style="rounded=1;whiteSpace=wrap;html=1;dashed=1;" parent="76WRqrTsEyU47UKnnG5--21" vertex="1">
          <mxGeometry width="40" height="128" as="geometry" />
        </mxCell>
        <mxCell id="-dllcQzm70aawtmvtiuD-21" value="" style="shape=image;verticalLabelPosition=bottom;verticalAlign=top;imageAspect=0;aspect=fixed;image=data:image/png,iVBORw0KGgoAAAANSUhEUgAAAMgAAADICAYAAACtWK6eAAAVUUlEQVR4Xu1d/X3bNhM+0AM0G9RKBmjeARonEzSdIPYEkSewPEHkCZpM0GSC2H0HaDpArHSCNx2gxPsDIcqSTBL3AZAgefrTxudzeIg74O5gQH+KgCLQioBRbBQBRaAdASWIrg5FoAMBJYguD0VACaJrQBHgIaA7CA83rTUTBJQgMxG0TpOHgBKEh5vWmgkCSpCZCFqnyUNACcLDTWvNBAElyEwErdPkIaAE4eGmtWaCgBJkJoLWafIQUILwcNNaM0FACTITQes0eQgoQXi4aa2ZIKAEyU3QnzdPAOAJvFp8y21ocxyPEiQnqd9trsDaZTUkY9ZQwg28WnzPaYhzG4sSJAeJ323egLUrMHB6MBwL38GYJZwtPuQwzDmOQQkypNT/u3kJ/9orMPCycxgWvsCJuYSfF7dDDneOfStBhpD6580pmPIKjDkndW/hFqy5UPuEhJqosBJEBB+xsjPAC3gLYFfEmkfF7RrK4lrtExmKmNpKEAxKMcp4O2MNBtwplfzn7ZM1nC2u5Y1pC20IKEFSrw1vZ7wDA8+TdGXhGxTmEl4sPiZpf+aNKkFSLYDKzrC/BQ3wWP07++TEXKshHwtQ344SJC6eAJWdUV4BGH+fQf7ZrcpkrshVXQVr34Ot7BO9aGQBeFhJCRIBxF0T9UUfz874AKVZ7Ra224EK+x4AzshDtPA3WPNcjXgyco8qKEHkGAL8sXkNZWVnHF704dq+g8KsWlUj37Yz7n/ENVdtI9dw9kx4UobvbcollSAS6WIv+pr6cF95R4wXC7dLdP+82rYEQKhd1v4DtjjV3SMEKu7/ShAcToeluBd93kb4BwysWV94lNqluwdHpG11lCAUNOuLPudQyLczluKve5va5Xall085ah4FhVmVVYJgxS276LuD0pxHPVlqUruMuUCpbNg5azk95g2uAclFn/uin5jzpHcTtdpl4VR3j6A0yQV0B2mDzNsZ78CY12RUnZ1RFMtev+ZuR9HYEbKoQhWUIMcIxbjoK4v1KBfrH5tz+Bduo6qCoRWY+f+VIPsCutu83QYucRwKDy/6Mhf8o+F5VW3j/25WGs24RWJsckwy3pQXfUkGnKDR26+/H6iTGs3oPxUJoB5Pk583z8FUN+DdEX1NM6Jc9OWOiDuIKO3nxmHO3AlyngQZ6qKviyi7McH33oOhbu83QTcZ7wR5OUrbSvCBmhdBcrnoOxbYsZNjn+rNH1+XYM071BqaYZDWfAjSljkEtTIg/kWf69ffsbiYkebbbx+D7r7aX3DDZJS6vf8f2SvABWmdmIuk9zuMqaSoMn2CSB0KU1z0kYOpEsagOzussGumW/3kk0hMlyA5XvRJkjakVrtYbvX1N3u6x8LTI4hkEVbytteQ4qJP5sv1oD2kVLtq/y4LSzDmB5LKkprApMHEKzwtguR40SdR8TrlnFTtcpeGTu36hbzUJnYsPA2ChIzdbil3R/SRV8i2gvsae18uWnI4Sn+pv9oeVxfN+BNlWH4jnkZs/LgJkutFn2wnI69FSKl2udG4o+ASVky1a9S5u8ZJEMnXWRLRF1q6sp0s1Dri/0nVLhf2uwIwbxEDOSwy4txd4yJIrhd9khMz8moLVEitds3sWHg8BMnxok98YhabHXvtJVe7ONlW6vEl3OkiQ5o/QSSnQCkj+mQewJHF2NVcwsU4g2PhfAkidShMHdF3d297XOXCrhJnOvGxJNxj4azfPsmPIGK1JdFF3/ESVYI8Ju0Ej4XzIojstrnfiD4lSPuuNqFj4TwIIjseTXPRF1JqlCDdCHn7ZPTHwsMShOzVenBKg0/dGVrsnP8rQXCojfxYeBiC5HrRhxO5LzUmghh7CS+eOSN6uJ/IWzjhSVwAkf4JIn8iQJ66M8YykZzcxOgf08YQ+bm6xjXCY+H+CJLjRZ8TZn0LDuY5GLMiv0nu7af3tOcJMKtbWsbeQFm490a+o1uqVV6AUxYW2I4kH5een8TuhyC395/ZmUNSRPR5YjS/BMV11+ae3GAXFb6cCw92uyw+TDc2FtixSo6Fz572snZ76YSsr6dWDTDethx37WqhVRdmb7BrJFo5LmY4LD5uM5qkedaN83GZL0ESXvRR3UPqLB4l3BBVFX6cN4sxDHWKlZQ7YWgt9Vh4hgRJd9En8edyC9a5a3PsE9HJDYopHHWKn5TbY+HeZ3e22g1qhNRC2GPh2RDEwl9wYpZJUshI/LmaBMvxkJWc3LQtLo46JXbhORpM6tQ/d1/XnbEnsyFIigcn5XEj3d89TpZBycnNwWgY6pTMhSeARaLcXXdf3S18+1PYShDq3rwtn3Ix7A+Jm2WQf3JDV6dYdgYTd86hRldXSpAanUiu2H0uhkOifIPCXMKLxUfS0rq7d6/bIk+7iBgNFeHIPdRoAk4JEokgEn8u0ooOFKbaJ6EFsN9dYV6hbLTUqiUWL+6hxn77IXxUxQpIQ+LPhRU0pxzWPgktgP2+S/Of4MWfzFOBM9NwHcmtdwgfJUgH/jJ/rrBgpSUwR6HHC6A6mYIVWHjyyDjtWgzSI2zpXDH1/e56QXraTQnCVLHu7p2uT8/4hxFk/DKf4Oxp8yOghwvA3QE9OGH6fF/Ov8snbGsjiL8z+DP+sBO1iNkJ666VIGyC3LIykSeSeaDZOzh72vx6lVsA1rzuvAPyZc5bn3fuehlqmPl294q1pVwrSpCZE8QdLrxahH2bup53VoIk/wxk4KxIPMK8u5/GDhJDtEqQGCh2tqEESQtxu4oVo18lSAwUlSDJUWzvQAmyj43aIC0rpTN+e7IqFt01hMrk2hGyy2eJ2mbK8kqQHgjCeXQypdCP2+a+n76L6iu+Az3+xGU2dK4rZ31OldyXEqQHgmSdTYQZ7HUc1cd11cg2Pn67LpQgsyXIp+1FX/jYdh+iUITj+OPjDxeEEmRmBOEGe1FfxuK4kg8ZH9+meylBZkKQ2m+KmoxNEuHIdSXHhrCSDQpGBSXIHAjCiOiL6YbOfc7sj805lHY1aP4uJcikCcI7tk0V4UiNP3GiSREfT9lIlCATJIg/tl2SIwb7inDExp/siyZafDyFHQCgBJkaQYiXmP4rfQrG/sbKJElcb7visvj4/tKmKkEmRhBK1Fpb+k7uoufU49gnfTp/KkFmSpDcIhwp9okSpPNTNEZv3v4ezwztIKGLPs4uELUO4l0NJciECNK3e3cXQbgZ66MSANGYs08Kc9F6yKAEUYIgllFzkS6CZO0TdjydjsMGJYgSRAmiBOGugXHZIDmpWLqD0NecnmIlPsVSgtAXZVVDdxAmcKA7SBdyaoNw11VzPd1BEu8g/pb64y6hWlzxPW5NCRITYefLdo5KdeR61bxYNfYMd46+PFOVIHKCOF82zkOsShABQVzVPjxTlSB8gnBjZuoelSBCgtTVvWfqCv/WBkHmShACWPtFmbH5+00oQSIR5IEo8V+WVYJQCcKLzW/qRQkSmSB1czEzeyhBsAS5g8KsUI/8oFvUNwq3UDGMdAzInMfpj9tVgnQjzc0BhpGf7iCJdpB98KWZB5UgzUvZGeAG1nD2zNl+aX5KkB4IcmjIr8kP7yhBmhb/4WM/aeih9yAPuCZSsZoE511V3FcvnKLT5bx6+fR5q/zn54tFu+iTEkd3kB53kGNhdV00Ys/vp0KQ0DE596JPCUJAIGZ298c2xhVYOAVbXKLdGOo2qifOYAnG/LD9E159mApB9k//9nfX6kNRuGwuLik2/ldljSyvwBRfyEm493vRHUS4gxzHgfMzDz6BolxBUXwkHVNOjSC1ONzuastTKIs1vFp8RzOjKWkFVyauUyUIkyChOHBuZnT0StgWnCpBqDhUi3nzFmyVtfFJY3UOUWZGEPeuYPPPmPekbRwbIkrJ7MFaFPf9JY/gjO+gTqKDEGpyPHV3F0sy3ACWILsNyr7f2id4dSE8CoA57yA+Cfc7MKb5Dfg2/JQgmJUlLEMliOvOb/ErOFvcCHt/qD5HgtRJuKE6Kqf/lCB0zMg1OATZ7SbwDU7MBcoYD71jPhWCODXp50W7Clxj55NwOzvjlCyzuoIShA0dvqKEIA9EuQVrLhqPhfe/knO5SbdgW/HwdsZVlFzDShD8OmeXjEGQXedmdXBWf3xC1p047tugb21QADRV4rjm+4waz2M11H0ovJ1xTumqs6wSJBqU7Q3d3v8JBtpdQKhD8AtjCdaeP/pKdhFE6ghJHSevfNg95PiD407/jLkFa5etx7a8sejzB1zcSPX61P1DuXndwId6a6MLNIp7SNQdOSBJ3UFIS51XODeC1LPwuvq6t4wrTehx3EOUIJ3rsJ+8WDwqNNfqkyDG/Ep+WapyhCzXe/5dMWff0RYjDtynUfosOpmizE53EApazLJ9EsQN0d/IN594tU2hX/vEOViuSI6aktd2mWKrqilBJOgh6/ZNkN2wjk68MMNNa5/Q48CHIkaNlRIEs2qEZQYjSLWbfANrXpG+1m66MRNJcB8VdeMYTP3bylwJIlz8mOrDEYSuyhzPR5JIIlYcuFf/VgDmLQbuqGWUIFHhHN5I9yOQE2N/JqwFam+gLJydEc/h0gU2FdbF6YfDj2OJVQnSgqR7rqztV5gPRHf3/tzMS7Mgq1PYxeTtE3e73bVAwxd92P7ayt3ef+ntaFoJ0iKFmCG3fapYmIvCesrOma+Av1GOf/swNdknLmHEiVmS2/J+ZG+ghE9oYus9SOcnpp97kCkTxN8l/LZzU7FV/Mk1eoHW4qnsE3MOhVmTdtQHgl4duocgT92UIBMiiFdLNlKtAl0/tIO0hZpyQkzRgzoq2BWCjImDUYJMiCA5PcGGeQbaHQsX5pJ8G48hC8kNXZ9gw0DaVGZcKlZOBKHYQjHj41mXfUoQJQgXga560QOm7BrKyj6hH9fWgVwsN3QlCHd56A7SK0GY8fE+3NV5Cjen1QlKXwkShKilgBKkb4LU/Tn7JBQfT02r0zoXJYgShIvAUATZEcV+fJQ29fjoWDw3JQgXwnHtIG6Wfb1w6/qKboN0iam6t/jg89pGjAOvuhyYIJQIx929jr4wtYWCkfWvjxdueycI9xuHqTcQQbCZ8pumMLPUox3+UwyC1ICGUvdj1s7QKpZ0jKj6QxCEEeG4PxclyE4JvxY/5ZXKM7VXFQu10pmFeiVIHO9nJUhEgtRNxQxMUhWLSkZ6hGNXD0qQBASpm5QEJu0LTXeQMElSvXSrBElIENd0jMQJSpB2gsSKcGzqwR9z/96ZIDDkSBqmNqpEBse8bpxI12zUlI4KSQx5JUgb4vin6igyo2SPnxdBdi4YSzhbfKBgii5LeeG2blQJcgxvughHqjvN7Aiy07jgC5yYS3I0HZYp2ItGp1u/fNqe6p/izYsdW7JyXadYX9fBBA7cCEfMfEhu+3sNzpYgO6I0uGBgAMeWefzCra+JNTqnQhA357bdlZPKFIu/JHt86OOFHQOiXE82yKPnlhFDq4sktU+ebDN7vEETox7WlAhSz6neXcE+AQPONZ/20i1WqscvFGPrpTwYaBlDPwRxnVcGWJVm5g0Wj125+omCVPZJ6DWppgFPkSD1PDl4YITq1SkXv895peoTlGZJjvXHjKujTH8EeQCfn48J4yIuBARdfcoEQYOALCjxTuY4OiKHhSnWP0EetvPXUFZBQD9iBnpQhpNQmtxJoIISBI+oDxP+Qsp4P4A61TSh4Qiy0+Ul9okghBUv3uaSShAags67wZp3yEqDqFN5EiSOfRL3iWeMFJUgGJQOy4RSDA2sTuVLkH3jMJyOs1kwfdsnShA6QdpUrUzUqfwJUo9Q4pUbM8VO1xJQgtAJ4mo8VrWyUafGQ5CdIe/SccKKZNzVdX0K0EtWih2M6EPeppg2+inj3EPc8eiXfrpD9OJULQuncGLOk3lMIIaBKTK8kR4aJeu5gG2jdQrQs8V1qBvW/3EZ2llNiytJHtoJdf6QJPsD6wPk6nNyg4XGleD/+RMkln2SKgVopTZs+EfWsYVa6/PpbsH3cnQJwqVjzztRe+MhSO72SYz4E7mQ0+nzbTm6Ur6hIsdD3ML4CJK7fTKE2pXS29afPL0DY143rjZrP8LLZ7+KV2KmDYyXIA5QyVc79RMFfahdkrQ6oQVJCV6ivBwV6jez/4+bIIf2iXOE/IWMr7s/McZdNMYP1JIQODyRNFF9rt+2d0/axuQwfPl0ER7y+EpMgyCH9onz7/qJLAp3f3JirpMcO8ZVu9Id20q8bY35Nck7KGRBxq0wLYLs7JPNOZTlWnB/Qn9CDSMXidqFDeTCjOO4jNTbtjDLKZLDwTRNguRsn7DULmGWwjbS+LFcAZglmVcZu4eQ59JRYboEyd8+GfYZaKqdcbiI0tk/MVd3hLamT5B9+6S0q8C75M2QprRPmtSulF6tXY9+hhdUOvsn3PcgJeZDkAP7xK54gVqJEkkcZKuHtThXcdNScvmLjX23e66astxSEpYyjgHKzo8g+/aJhSXLkE+Z6C72IhBlD7H/QAErePHMHaHP8jdPghzaJ07tyi+RRIzlyM0eUvVtb6AsVmNxKowBV1Mb8yZIHPskbaI7juTldsZ539lDONPso44SZB9lbNbFJsk4nyQff/KtD8E19qF2RnTolSDHkIqfd0uY6K5N/N6hkPe2YUp/rujLtf8GlSBdi66ojoW59kn6RBK1Q6G1S94b6mpnhCinBAkhJHneLWUiCZ8N3R1XjyZLYQjqHP+vBMFKReZHdQvWXESxT7jZ0KuDKfgLTswyiUMmFseRlVOCUAXWlhUe1Y4g0Z3YziicQ+F71DC10A4BJQhnMcgTcePtE7mdcZ0sSzsHu5HVUYJIBJbaPlE7QyKdKHWVIDFglNsn7v7kIW9VW4IEzFjVzsCghC6jBEFDhSgoeX7aJ7q72d5nNCdI6BpCyoAqxNSnWkQJEluykkR3nLGkzoPFGdOE6ihBUgkzbhx62yhd4JJzKBzOvSUVfpm0qwRJLQhJIu72sd1BYVZ6n5FaeFOOSU+PHa0HiX1S96R2Bg3zCKV1B4kAIroJrn2idgYa4tgFlSCxEcW05+0TbKI7tTMwmCYqowRJBCyqWW+ftCW6m12CBBRmPRdSgvQMeGN3VaDWNtFdync9cpjryMagBMlFYM4+OYHX6lCYi0D8OJQgeclDR5MZAkqQzASiw8kLASVIXvLQ0WSGgBIkM4HocPJCQAmSlzx0NJkhoATJTCA6nLwQUILkJQ8dTWYIKEEyE4gOJy8ElCB5yUNHkxkCSpDMBKLDyQsBJUhe8tDRZIaAEiQzgehw8kLg/7+czJspfpNhAAAAAElFTkSuQmCC" parent="76WRqrTsEyU47UKnnG5--21" vertex="1">
          <mxGeometry x="-1" y="3.5" width="43" height="43" as="geometry" />
        </mxCell>
        <mxCell id="-dllcQzm70aawtmvtiuD-22" value="" style="shape=image;verticalLabelPosition=bottom;verticalAlign=top;imageAspect=0;aspect=fixed;image=data:image/png,iVBORw0KGgoAAAANSUhEUgAAAMgAAADICAYAAACtWK6eAAAVUUlEQVR4Xu1d/X3bNhM+0AM0G9RKBmjeARonEzSdIPYEkSewPEHkCZpM0GSC2H0HaDpArHSCNx2gxPsDIcqSTBL3AZAgefrTxudzeIg74O5gQH+KgCLQioBRbBQBRaAdASWIrg5FoAMBJYguD0VACaJrQBHgIaA7CA83rTUTBJQgMxG0TpOHgBKEh5vWmgkCSpCZCFqnyUNACcLDTWvNBAElyEwErdPkIaAE4eGmtWaCgBJkJoLWafIQUILwcNNaM0FACTITQes0eQgoQXi4aa2ZIKAEyU3QnzdPAOAJvFp8y21ocxyPEiQnqd9trsDaZTUkY9ZQwg28WnzPaYhzG4sSJAeJ323egLUrMHB6MBwL38GYJZwtPuQwzDmOQQkypNT/u3kJ/9orMPCycxgWvsCJuYSfF7dDDneOfStBhpD6580pmPIKjDkndW/hFqy5UPuEhJqosBJEBB+xsjPAC3gLYFfEmkfF7RrK4lrtExmKmNpKEAxKMcp4O2MNBtwplfzn7ZM1nC2u5Y1pC20IKEFSrw1vZ7wDA8+TdGXhGxTmEl4sPiZpf+aNKkFSLYDKzrC/BQ3wWP07++TEXKshHwtQ344SJC6eAJWdUV4BGH+fQf7ZrcpkrshVXQVr34Ot7BO9aGQBeFhJCRIBxF0T9UUfz874AKVZ7Ra224EK+x4AzshDtPA3WPNcjXgyco8qKEHkGAL8sXkNZWVnHF704dq+g8KsWlUj37Yz7n/ENVdtI9dw9kx4UobvbcollSAS6WIv+pr6cF95R4wXC7dLdP+82rYEQKhd1v4DtjjV3SMEKu7/ShAcToeluBd93kb4BwysWV94lNqluwdHpG11lCAUNOuLPudQyLczluKve5va5Xall085ah4FhVmVVYJgxS276LuD0pxHPVlqUruMuUCpbNg5azk95g2uAclFn/uin5jzpHcTtdpl4VR3j6A0yQV0B2mDzNsZ78CY12RUnZ1RFMtev+ZuR9HYEbKoQhWUIMcIxbjoK4v1KBfrH5tz+Bduo6qCoRWY+f+VIPsCutu83QYucRwKDy/6Mhf8o+F5VW3j/25WGs24RWJsckwy3pQXfUkGnKDR26+/H6iTGs3oPxUJoB5Pk583z8FUN+DdEX1NM6Jc9OWOiDuIKO3nxmHO3AlyngQZ6qKviyi7McH33oOhbu83QTcZ7wR5OUrbSvCBmhdBcrnoOxbYsZNjn+rNH1+XYM071BqaYZDWfAjSljkEtTIg/kWf69ffsbiYkebbbx+D7r7aX3DDZJS6vf8f2SvABWmdmIuk9zuMqaSoMn2CSB0KU1z0kYOpEsagOzussGumW/3kk0hMlyA5XvRJkjakVrtYbvX1N3u6x8LTI4hkEVbytteQ4qJP5sv1oD2kVLtq/y4LSzDmB5LKkprApMHEKzwtguR40SdR8TrlnFTtcpeGTu36hbzUJnYsPA2ChIzdbil3R/SRV8i2gvsae18uWnI4Sn+pv9oeVxfN+BNlWH4jnkZs/LgJkutFn2wnI69FSKl2udG4o+ASVky1a9S5u8ZJEMnXWRLRF1q6sp0s1Dri/0nVLhf2uwIwbxEDOSwy4txd4yJIrhd9khMz8moLVEitds3sWHg8BMnxok98YhabHXvtJVe7ONlW6vEl3OkiQ5o/QSSnQCkj+mQewJHF2NVcwsU4g2PhfAkidShMHdF3d297XOXCrhJnOvGxJNxj4azfPsmPIGK1JdFF3/ESVYI8Ju0Ej4XzIojstrnfiD4lSPuuNqFj4TwIIjseTXPRF1JqlCDdCHn7ZPTHwsMShOzVenBKg0/dGVrsnP8rQXCojfxYeBiC5HrRhxO5LzUmghh7CS+eOSN6uJ/IWzjhSVwAkf4JIn8iQJ66M8YykZzcxOgf08YQ+bm6xjXCY+H+CJLjRZ8TZn0LDuY5GLMiv0nu7af3tOcJMKtbWsbeQFm490a+o1uqVV6AUxYW2I4kH5een8TuhyC395/ZmUNSRPR5YjS/BMV11+ae3GAXFb6cCw92uyw+TDc2FtixSo6Fz572snZ76YSsr6dWDTDethx37WqhVRdmb7BrJFo5LmY4LD5uM5qkedaN83GZL0ESXvRR3UPqLB4l3BBVFX6cN4sxDHWKlZQ7YWgt9Vh4hgRJd9En8edyC9a5a3PsE9HJDYopHHWKn5TbY+HeZ3e22g1qhNRC2GPh2RDEwl9wYpZJUshI/LmaBMvxkJWc3LQtLo46JXbhORpM6tQ/d1/XnbEnsyFIigcn5XEj3d89TpZBycnNwWgY6pTMhSeARaLcXXdf3S18+1PYShDq3rwtn3Ix7A+Jm2WQf3JDV6dYdgYTd86hRldXSpAanUiu2H0uhkOifIPCXMKLxUfS0rq7d6/bIk+7iBgNFeHIPdRoAk4JEokgEn8u0ooOFKbaJ6EFsN9dYV6hbLTUqiUWL+6hxn77IXxUxQpIQ+LPhRU0pxzWPgktgP2+S/Of4MWfzFOBM9NwHcmtdwgfJUgH/jJ/rrBgpSUwR6HHC6A6mYIVWHjyyDjtWgzSI2zpXDH1/e56QXraTQnCVLHu7p2uT8/4hxFk/DKf4Oxp8yOghwvA3QE9OGH6fF/Ov8snbGsjiL8z+DP+sBO1iNkJ666VIGyC3LIykSeSeaDZOzh72vx6lVsA1rzuvAPyZc5bn3fuehlqmPl294q1pVwrSpCZE8QdLrxahH2bup53VoIk/wxk4KxIPMK8u5/GDhJDtEqQGCh2tqEESQtxu4oVo18lSAwUlSDJUWzvQAmyj43aIC0rpTN+e7IqFt01hMrk2hGyy2eJ2mbK8kqQHgjCeXQypdCP2+a+n76L6iu+Az3+xGU2dK4rZ31OldyXEqQHgmSdTYQZ7HUc1cd11cg2Pn67LpQgsyXIp+1FX/jYdh+iUITj+OPjDxeEEmRmBOEGe1FfxuK4kg8ZH9+meylBZkKQ2m+KmoxNEuHIdSXHhrCSDQpGBSXIHAjCiOiL6YbOfc7sj805lHY1aP4uJcikCcI7tk0V4UiNP3GiSREfT9lIlCATJIg/tl2SIwb7inDExp/siyZafDyFHQCgBJkaQYiXmP4rfQrG/sbKJElcb7visvj4/tKmKkEmRhBK1Fpb+k7uoufU49gnfTp/KkFmSpDcIhwp9okSpPNTNEZv3v4ezwztIKGLPs4uELUO4l0NJciECNK3e3cXQbgZ66MSANGYs08Kc9F6yKAEUYIgllFzkS6CZO0TdjydjsMGJYgSRAmiBOGugXHZIDmpWLqD0NecnmIlPsVSgtAXZVVDdxAmcKA7SBdyaoNw11VzPd1BEu8g/pb64y6hWlzxPW5NCRITYefLdo5KdeR61bxYNfYMd46+PFOVIHKCOF82zkOsShABQVzVPjxTlSB8gnBjZuoelSBCgtTVvWfqCv/WBkHmShACWPtFmbH5+00oQSIR5IEo8V+WVYJQCcKLzW/qRQkSmSB1czEzeyhBsAS5g8KsUI/8oFvUNwq3UDGMdAzInMfpj9tVgnQjzc0BhpGf7iCJdpB98KWZB5UgzUvZGeAG1nD2zNl+aX5KkB4IcmjIr8kP7yhBmhb/4WM/aeih9yAPuCZSsZoE511V3FcvnKLT5bx6+fR5q/zn54tFu+iTEkd3kB53kGNhdV00Ys/vp0KQ0DE596JPCUJAIGZ298c2xhVYOAVbXKLdGOo2qifOYAnG/LD9E159mApB9k//9nfX6kNRuGwuLik2/ldljSyvwBRfyEm493vRHUS4gxzHgfMzDz6BolxBUXwkHVNOjSC1ONzuastTKIs1vFp8RzOjKWkFVyauUyUIkyChOHBuZnT0StgWnCpBqDhUi3nzFmyVtfFJY3UOUWZGEPeuYPPPmPekbRwbIkrJ7MFaFPf9JY/gjO+gTqKDEGpyPHV3F0sy3ACWILsNyr7f2id4dSE8CoA57yA+Cfc7MKb5Dfg2/JQgmJUlLEMliOvOb/ErOFvcCHt/qD5HgtRJuKE6Kqf/lCB0zMg1OATZ7SbwDU7MBcoYD71jPhWCODXp50W7Clxj55NwOzvjlCyzuoIShA0dvqKEIA9EuQVrLhqPhfe/knO5SbdgW/HwdsZVlFzDShD8OmeXjEGQXedmdXBWf3xC1p047tugb21QADRV4rjm+4waz2M11H0ovJ1xTumqs6wSJBqU7Q3d3v8JBtpdQKhD8AtjCdaeP/pKdhFE6ghJHSevfNg95PiD407/jLkFa5etx7a8sejzB1zcSPX61P1DuXndwId6a6MLNIp7SNQdOSBJ3UFIS51XODeC1LPwuvq6t4wrTehx3EOUIJ3rsJ+8WDwqNNfqkyDG/Ep+WapyhCzXe/5dMWff0RYjDtynUfosOpmizE53EApazLJ9EsQN0d/IN594tU2hX/vEOViuSI6aktd2mWKrqilBJOgh6/ZNkN2wjk68MMNNa5/Q48CHIkaNlRIEs2qEZQYjSLWbfANrXpG+1m66MRNJcB8VdeMYTP3bylwJIlz8mOrDEYSuyhzPR5JIIlYcuFf/VgDmLQbuqGWUIFHhHN5I9yOQE2N/JqwFam+gLJydEc/h0gU2FdbF6YfDj2OJVQnSgqR7rqztV5gPRHf3/tzMS7Mgq1PYxeTtE3e73bVAwxd92P7ayt3ef+ntaFoJ0iKFmCG3fapYmIvCesrOma+Av1GOf/swNdknLmHEiVmS2/J+ZG+ghE9oYus9SOcnpp97kCkTxN8l/LZzU7FV/Mk1eoHW4qnsE3MOhVmTdtQHgl4duocgT92UIBMiiFdLNlKtAl0/tIO0hZpyQkzRgzoq2BWCjImDUYJMiCA5PcGGeQbaHQsX5pJ8G48hC8kNXZ9gw0DaVGZcKlZOBKHYQjHj41mXfUoQJQgXga560QOm7BrKyj6hH9fWgVwsN3QlCHd56A7SK0GY8fE+3NV5Cjen1QlKXwkShKilgBKkb4LU/Tn7JBQfT02r0zoXJYgShIvAUATZEcV+fJQ29fjoWDw3JQgXwnHtIG6Wfb1w6/qKboN0iam6t/jg89pGjAOvuhyYIJQIx929jr4wtYWCkfWvjxdueycI9xuHqTcQQbCZ8pumMLPUox3+UwyC1ICGUvdj1s7QKpZ0jKj6QxCEEeG4PxclyE4JvxY/5ZXKM7VXFQu10pmFeiVIHO9nJUhEgtRNxQxMUhWLSkZ6hGNXD0qQBASpm5QEJu0LTXeQMElSvXSrBElIENd0jMQJSpB2gsSKcGzqwR9z/96ZIDDkSBqmNqpEBse8bpxI12zUlI4KSQx5JUgb4vin6igyo2SPnxdBdi4YSzhbfKBgii5LeeG2blQJcgxvughHqjvN7Aiy07jgC5yYS3I0HZYp2ItGp1u/fNqe6p/izYsdW7JyXadYX9fBBA7cCEfMfEhu+3sNzpYgO6I0uGBgAMeWefzCra+JNTqnQhA357bdlZPKFIu/JHt86OOFHQOiXE82yKPnlhFDq4sktU+ebDN7vEETox7WlAhSz6neXcE+AQPONZ/20i1WqscvFGPrpTwYaBlDPwRxnVcGWJVm5g0Wj125+omCVPZJ6DWppgFPkSD1PDl4YITq1SkXv895peoTlGZJjvXHjKujTH8EeQCfn48J4yIuBARdfcoEQYOALCjxTuY4OiKHhSnWP0EetvPXUFZBQD9iBnpQhpNQmtxJoIISBI+oDxP+Qsp4P4A61TSh4Qiy0+Ul9okghBUv3uaSShAags67wZp3yEqDqFN5EiSOfRL3iWeMFJUgGJQOy4RSDA2sTuVLkH3jMJyOs1kwfdsnShA6QdpUrUzUqfwJUo9Q4pUbM8VO1xJQgtAJ4mo8VrWyUafGQ5CdIe/SccKKZNzVdX0K0EtWih2M6EPeppg2+inj3EPc8eiXfrpD9OJULQuncGLOk3lMIIaBKTK8kR4aJeu5gG2jdQrQs8V1qBvW/3EZ2llNiytJHtoJdf6QJPsD6wPk6nNyg4XGleD/+RMkln2SKgVopTZs+EfWsYVa6/PpbsH3cnQJwqVjzztRe+MhSO72SYz4E7mQ0+nzbTm6Ur6hIsdD3ML4CJK7fTKE2pXS29afPL0DY143rjZrP8LLZ7+KV2KmDYyXIA5QyVc79RMFfahdkrQ6oQVJCV6ivBwV6jez/4+bIIf2iXOE/IWMr7s/McZdNMYP1JIQODyRNFF9rt+2d0/axuQwfPl0ER7y+EpMgyCH9onz7/qJLAp3f3JirpMcO8ZVu9Id20q8bY35Nck7KGRBxq0wLYLs7JPNOZTlWnB/Qn9CDSMXidqFDeTCjOO4jNTbtjDLKZLDwTRNguRsn7DULmGWwjbS+LFcAZglmVcZu4eQ59JRYboEyd8+GfYZaKqdcbiI0tk/MVd3hLamT5B9+6S0q8C75M2QprRPmtSulF6tXY9+hhdUOvsn3PcgJeZDkAP7xK54gVqJEkkcZKuHtThXcdNScvmLjX23e66astxSEpYyjgHKzo8g+/aJhSXLkE+Z6C72IhBlD7H/QAErePHMHaHP8jdPghzaJ07tyi+RRIzlyM0eUvVtb6AsVmNxKowBV1Mb8yZIHPskbaI7juTldsZ539lDONPso44SZB9lbNbFJsk4nyQff/KtD8E19qF2RnTolSDHkIqfd0uY6K5N/N6hkPe2YUp/rujLtf8GlSBdi66ojoW59kn6RBK1Q6G1S94b6mpnhCinBAkhJHneLWUiCZ8N3R1XjyZLYQjqHP+vBMFKReZHdQvWXESxT7jZ0KuDKfgLTswyiUMmFseRlVOCUAXWlhUe1Y4g0Z3YziicQ+F71DC10A4BJQhnMcgTcePtE7mdcZ0sSzsHu5HVUYJIBJbaPlE7QyKdKHWVIDFglNsn7v7kIW9VW4IEzFjVzsCghC6jBEFDhSgoeX7aJ7q72d5nNCdI6BpCyoAqxNSnWkQJEluykkR3nLGkzoPFGdOE6ihBUgkzbhx62yhd4JJzKBzOvSUVfpm0qwRJLQhJIu72sd1BYVZ6n5FaeFOOSU+PHa0HiX1S96R2Bg3zCKV1B4kAIroJrn2idgYa4tgFlSCxEcW05+0TbKI7tTMwmCYqowRJBCyqWW+ftCW6m12CBBRmPRdSgvQMeGN3VaDWNtFdync9cpjryMagBMlFYM4+OYHX6lCYi0D8OJQgeclDR5MZAkqQzASiw8kLASVIXvLQ0WSGgBIkM4HocPJCQAmSlzx0NJkhoATJTCA6nLwQUILkJQ8dTWYIKEEyE4gOJy8ElCB5yUNHkxkCSpDMBKLDyQsBJUhe8tDRZIaAEiQzgehw8kLg/7+czJspfpNhAAAAAElFTkSuQmCC" parent="76WRqrTsEyU47UKnnG5--21" vertex="1">
          <mxGeometry x="-1" y="44.5" width="43" height="43" as="geometry" />
        </mxCell>
        <mxCell id="-dllcQzm70aawtmvtiuD-23" value="" style="shape=image;verticalLabelPosition=bottom;verticalAlign=top;imageAspect=0;aspect=fixed;image=data:image/png,iVBORw0KGgoAAAANSUhEUgAAAMgAAADICAYAAACtWK6eAAAVUUlEQVR4Xu1d/X3bNhM+0AM0G9RKBmjeARonEzSdIPYEkSewPEHkCZpM0GSC2H0HaDpArHSCNx2gxPsDIcqSTBL3AZAgefrTxudzeIg74O5gQH+KgCLQioBRbBQBRaAdASWIrg5FoAMBJYguD0VACaJrQBHgIaA7CA83rTUTBJQgMxG0TpOHgBKEh5vWmgkCSpCZCFqnyUNACcLDTWvNBAElyEwErdPkIaAE4eGmtWaCgBJkJoLWafIQUILwcNNaM0FACTITQes0eQgoQXi4aa2ZIKAEyU3QnzdPAOAJvFp8y21ocxyPEiQnqd9trsDaZTUkY9ZQwg28WnzPaYhzG4sSJAeJ323egLUrMHB6MBwL38GYJZwtPuQwzDmOQQkypNT/u3kJ/9orMPCycxgWvsCJuYSfF7dDDneOfStBhpD6580pmPIKjDkndW/hFqy5UPuEhJqosBJEBB+xsjPAC3gLYFfEmkfF7RrK4lrtExmKmNpKEAxKMcp4O2MNBtwplfzn7ZM1nC2u5Y1pC20IKEFSrw1vZ7wDA8+TdGXhGxTmEl4sPiZpf+aNKkFSLYDKzrC/BQ3wWP07++TEXKshHwtQ344SJC6eAJWdUV4BGH+fQf7ZrcpkrshVXQVr34Ot7BO9aGQBeFhJCRIBxF0T9UUfz874AKVZ7Ra224EK+x4AzshDtPA3WPNcjXgyco8qKEHkGAL8sXkNZWVnHF704dq+g8KsWlUj37Yz7n/ENVdtI9dw9kx4UobvbcollSAS6WIv+pr6cF95R4wXC7dLdP+82rYEQKhd1v4DtjjV3SMEKu7/ShAcToeluBd93kb4BwysWV94lNqluwdHpG11lCAUNOuLPudQyLczluKve5va5Xall085ah4FhVmVVYJgxS276LuD0pxHPVlqUruMuUCpbNg5azk95g2uAclFn/uin5jzpHcTtdpl4VR3j6A0yQV0B2mDzNsZ78CY12RUnZ1RFMtev+ZuR9HYEbKoQhWUIMcIxbjoK4v1KBfrH5tz+Bduo6qCoRWY+f+VIPsCutu83QYucRwKDy/6Mhf8o+F5VW3j/25WGs24RWJsckwy3pQXfUkGnKDR26+/H6iTGs3oPxUJoB5Pk583z8FUN+DdEX1NM6Jc9OWOiDuIKO3nxmHO3AlyngQZ6qKviyi7McH33oOhbu83QTcZ7wR5OUrbSvCBmhdBcrnoOxbYsZNjn+rNH1+XYM071BqaYZDWfAjSljkEtTIg/kWf69ffsbiYkebbbx+D7r7aX3DDZJS6vf8f2SvABWmdmIuk9zuMqaSoMn2CSB0KU1z0kYOpEsagOzussGumW/3kk0hMlyA5XvRJkjakVrtYbvX1N3u6x8LTI4hkEVbytteQ4qJP5sv1oD2kVLtq/y4LSzDmB5LKkprApMHEKzwtguR40SdR8TrlnFTtcpeGTu36hbzUJnYsPA2ChIzdbil3R/SRV8i2gvsae18uWnI4Sn+pv9oeVxfN+BNlWH4jnkZs/LgJkutFn2wnI69FSKl2udG4o+ASVky1a9S5u8ZJEMnXWRLRF1q6sp0s1Dri/0nVLhf2uwIwbxEDOSwy4txd4yJIrhd9khMz8moLVEitds3sWHg8BMnxok98YhabHXvtJVe7ONlW6vEl3OkiQ5o/QSSnQCkj+mQewJHF2NVcwsU4g2PhfAkidShMHdF3d297XOXCrhJnOvGxJNxj4azfPsmPIGK1JdFF3/ESVYI8Ju0Ej4XzIojstrnfiD4lSPuuNqFj4TwIIjseTXPRF1JqlCDdCHn7ZPTHwsMShOzVenBKg0/dGVrsnP8rQXCojfxYeBiC5HrRhxO5LzUmghh7CS+eOSN6uJ/IWzjhSVwAkf4JIn8iQJ66M8YykZzcxOgf08YQ+bm6xjXCY+H+CJLjRZ8TZn0LDuY5GLMiv0nu7af3tOcJMKtbWsbeQFm490a+o1uqVV6AUxYW2I4kH5een8TuhyC395/ZmUNSRPR5YjS/BMV11+ae3GAXFb6cCw92uyw+TDc2FtixSo6Fz572snZ76YSsr6dWDTDethx37WqhVRdmb7BrJFo5LmY4LD5uM5qkedaN83GZL0ESXvRR3UPqLB4l3BBVFX6cN4sxDHWKlZQ7YWgt9Vh4hgRJd9En8edyC9a5a3PsE9HJDYopHHWKn5TbY+HeZ3e22g1qhNRC2GPh2RDEwl9wYpZJUshI/LmaBMvxkJWc3LQtLo46JXbhORpM6tQ/d1/XnbEnsyFIigcn5XEj3d89TpZBycnNwWgY6pTMhSeARaLcXXdf3S18+1PYShDq3rwtn3Ix7A+Jm2WQf3JDV6dYdgYTd86hRldXSpAanUiu2H0uhkOifIPCXMKLxUfS0rq7d6/bIk+7iBgNFeHIPdRoAk4JEokgEn8u0ooOFKbaJ6EFsN9dYV6hbLTUqiUWL+6hxn77IXxUxQpIQ+LPhRU0pxzWPgktgP2+S/Of4MWfzFOBM9NwHcmtdwgfJUgH/jJ/rrBgpSUwR6HHC6A6mYIVWHjyyDjtWgzSI2zpXDH1/e56QXraTQnCVLHu7p2uT8/4hxFk/DKf4Oxp8yOghwvA3QE9OGH6fF/Ov8snbGsjiL8z+DP+sBO1iNkJ666VIGyC3LIykSeSeaDZOzh72vx6lVsA1rzuvAPyZc5bn3fuehlqmPl294q1pVwrSpCZE8QdLrxahH2bup53VoIk/wxk4KxIPMK8u5/GDhJDtEqQGCh2tqEESQtxu4oVo18lSAwUlSDJUWzvQAmyj43aIC0rpTN+e7IqFt01hMrk2hGyy2eJ2mbK8kqQHgjCeXQypdCP2+a+n76L6iu+Az3+xGU2dK4rZ31OldyXEqQHgmSdTYQZ7HUc1cd11cg2Pn67LpQgsyXIp+1FX/jYdh+iUITj+OPjDxeEEmRmBOEGe1FfxuK4kg8ZH9+meylBZkKQ2m+KmoxNEuHIdSXHhrCSDQpGBSXIHAjCiOiL6YbOfc7sj805lHY1aP4uJcikCcI7tk0V4UiNP3GiSREfT9lIlCATJIg/tl2SIwb7inDExp/siyZafDyFHQCgBJkaQYiXmP4rfQrG/sbKJElcb7visvj4/tKmKkEmRhBK1Fpb+k7uoufU49gnfTp/KkFmSpDcIhwp9okSpPNTNEZv3v4ezwztIKGLPs4uELUO4l0NJciECNK3e3cXQbgZ66MSANGYs08Kc9F6yKAEUYIgllFzkS6CZO0TdjydjsMGJYgSRAmiBOGugXHZIDmpWLqD0NecnmIlPsVSgtAXZVVDdxAmcKA7SBdyaoNw11VzPd1BEu8g/pb64y6hWlzxPW5NCRITYefLdo5KdeR61bxYNfYMd46+PFOVIHKCOF82zkOsShABQVzVPjxTlSB8gnBjZuoelSBCgtTVvWfqCv/WBkHmShACWPtFmbH5+00oQSIR5IEo8V+WVYJQCcKLzW/qRQkSmSB1czEzeyhBsAS5g8KsUI/8oFvUNwq3UDGMdAzInMfpj9tVgnQjzc0BhpGf7iCJdpB98KWZB5UgzUvZGeAG1nD2zNl+aX5KkB4IcmjIr8kP7yhBmhb/4WM/aeih9yAPuCZSsZoE511V3FcvnKLT5bx6+fR5q/zn54tFu+iTEkd3kB53kGNhdV00Ys/vp0KQ0DE596JPCUJAIGZ298c2xhVYOAVbXKLdGOo2qifOYAnG/LD9E159mApB9k//9nfX6kNRuGwuLik2/ldljSyvwBRfyEm493vRHUS4gxzHgfMzDz6BolxBUXwkHVNOjSC1ONzuastTKIs1vFp8RzOjKWkFVyauUyUIkyChOHBuZnT0StgWnCpBqDhUi3nzFmyVtfFJY3UOUWZGEPeuYPPPmPekbRwbIkrJ7MFaFPf9JY/gjO+gTqKDEGpyPHV3F0sy3ACWILsNyr7f2id4dSE8CoA57yA+Cfc7MKb5Dfg2/JQgmJUlLEMliOvOb/ErOFvcCHt/qD5HgtRJuKE6Kqf/lCB0zMg1OATZ7SbwDU7MBcoYD71jPhWCODXp50W7Clxj55NwOzvjlCyzuoIShA0dvqKEIA9EuQVrLhqPhfe/knO5SbdgW/HwdsZVlFzDShD8OmeXjEGQXedmdXBWf3xC1p047tugb21QADRV4rjm+4waz2M11H0ovJ1xTumqs6wSJBqU7Q3d3v8JBtpdQKhD8AtjCdaeP/pKdhFE6ghJHSevfNg95PiD407/jLkFa5etx7a8sejzB1zcSPX61P1DuXndwId6a6MLNIp7SNQdOSBJ3UFIS51XODeC1LPwuvq6t4wrTehx3EOUIJ3rsJ+8WDwqNNfqkyDG/Ep+WapyhCzXe/5dMWff0RYjDtynUfosOpmizE53EApazLJ9EsQN0d/IN594tU2hX/vEOViuSI6aktd2mWKrqilBJOgh6/ZNkN2wjk68MMNNa5/Q48CHIkaNlRIEs2qEZQYjSLWbfANrXpG+1m66MRNJcB8VdeMYTP3bylwJIlz8mOrDEYSuyhzPR5JIIlYcuFf/VgDmLQbuqGWUIFHhHN5I9yOQE2N/JqwFam+gLJydEc/h0gU2FdbF6YfDj2OJVQnSgqR7rqztV5gPRHf3/tzMS7Mgq1PYxeTtE3e73bVAwxd92P7ayt3ef+ntaFoJ0iKFmCG3fapYmIvCesrOma+Av1GOf/swNdknLmHEiVmS2/J+ZG+ghE9oYus9SOcnpp97kCkTxN8l/LZzU7FV/Mk1eoHW4qnsE3MOhVmTdtQHgl4duocgT92UIBMiiFdLNlKtAl0/tIO0hZpyQkzRgzoq2BWCjImDUYJMiCA5PcGGeQbaHQsX5pJ8G48hC8kNXZ9gw0DaVGZcKlZOBKHYQjHj41mXfUoQJQgXga560QOm7BrKyj6hH9fWgVwsN3QlCHd56A7SK0GY8fE+3NV5Cjen1QlKXwkShKilgBKkb4LU/Tn7JBQfT02r0zoXJYgShIvAUATZEcV+fJQ29fjoWDw3JQgXwnHtIG6Wfb1w6/qKboN0iam6t/jg89pGjAOvuhyYIJQIx929jr4wtYWCkfWvjxdueycI9xuHqTcQQbCZ8pumMLPUox3+UwyC1ICGUvdj1s7QKpZ0jKj6QxCEEeG4PxclyE4JvxY/5ZXKM7VXFQu10pmFeiVIHO9nJUhEgtRNxQxMUhWLSkZ6hGNXD0qQBASpm5QEJu0LTXeQMElSvXSrBElIENd0jMQJSpB2gsSKcGzqwR9z/96ZIDDkSBqmNqpEBse8bpxI12zUlI4KSQx5JUgb4vin6igyo2SPnxdBdi4YSzhbfKBgii5LeeG2blQJcgxvughHqjvN7Aiy07jgC5yYS3I0HZYp2ItGp1u/fNqe6p/izYsdW7JyXadYX9fBBA7cCEfMfEhu+3sNzpYgO6I0uGBgAMeWefzCra+JNTqnQhA357bdlZPKFIu/JHt86OOFHQOiXE82yKPnlhFDq4sktU+ebDN7vEETox7WlAhSz6neXcE+AQPONZ/20i1WqscvFGPrpTwYaBlDPwRxnVcGWJVm5g0Wj125+omCVPZJ6DWppgFPkSD1PDl4YITq1SkXv895peoTlGZJjvXHjKujTH8EeQCfn48J4yIuBARdfcoEQYOALCjxTuY4OiKHhSnWP0EetvPXUFZBQD9iBnpQhpNQmtxJoIISBI+oDxP+Qsp4P4A61TSh4Qiy0+Ul9okghBUv3uaSShAags67wZp3yEqDqFN5EiSOfRL3iWeMFJUgGJQOy4RSDA2sTuVLkH3jMJyOs1kwfdsnShA6QdpUrUzUqfwJUo9Q4pUbM8VO1xJQgtAJ4mo8VrWyUafGQ5CdIe/SccKKZNzVdX0K0EtWih2M6EPeppg2+inj3EPc8eiXfrpD9OJULQuncGLOk3lMIIaBKTK8kR4aJeu5gG2jdQrQs8V1qBvW/3EZ2llNiytJHtoJdf6QJPsD6wPk6nNyg4XGleD/+RMkln2SKgVopTZs+EfWsYVa6/PpbsH3cnQJwqVjzztRe+MhSO72SYz4E7mQ0+nzbTm6Ur6hIsdD3ML4CJK7fTKE2pXS29afPL0DY143rjZrP8LLZ7+KV2KmDYyXIA5QyVc79RMFfahdkrQ6oQVJCV6ivBwV6jez/4+bIIf2iXOE/IWMr7s/McZdNMYP1JIQODyRNFF9rt+2d0/axuQwfPl0ER7y+EpMgyCH9onz7/qJLAp3f3JirpMcO8ZVu9Id20q8bY35Nck7KGRBxq0wLYLs7JPNOZTlWnB/Qn9CDSMXidqFDeTCjOO4jNTbtjDLKZLDwTRNguRsn7DULmGWwjbS+LFcAZglmVcZu4eQ59JRYboEyd8+GfYZaKqdcbiI0tk/MVd3hLamT5B9+6S0q8C75M2QprRPmtSulF6tXY9+hhdUOvsn3PcgJeZDkAP7xK54gVqJEkkcZKuHtThXcdNScvmLjX23e66astxSEpYyjgHKzo8g+/aJhSXLkE+Z6C72IhBlD7H/QAErePHMHaHP8jdPghzaJ07tyi+RRIzlyM0eUvVtb6AsVmNxKowBV1Mb8yZIHPskbaI7juTldsZ539lDONPso44SZB9lbNbFJsk4nyQff/KtD8E19qF2RnTolSDHkIqfd0uY6K5N/N6hkPe2YUp/rujLtf8GlSBdi66ojoW59kn6RBK1Q6G1S94b6mpnhCinBAkhJHneLWUiCZ8N3R1XjyZLYQjqHP+vBMFKReZHdQvWXESxT7jZ0KuDKfgLTswyiUMmFseRlVOCUAXWlhUe1Y4g0Z3YziicQ+F71DC10A4BJQhnMcgTcePtE7mdcZ0sSzsHu5HVUYJIBJbaPlE7QyKdKHWVIDFglNsn7v7kIW9VW4IEzFjVzsCghC6jBEFDhSgoeX7aJ7q72d5nNCdI6BpCyoAqxNSnWkQJEluykkR3nLGkzoPFGdOE6ihBUgkzbhx62yhd4JJzKBzOvSUVfpm0qwRJLQhJIu72sd1BYVZ6n5FaeFOOSU+PHa0HiX1S96R2Bg3zCKV1B4kAIroJrn2idgYa4tgFlSCxEcW05+0TbKI7tTMwmCYqowRJBCyqWW+ftCW6m12CBBRmPRdSgvQMeGN3VaDWNtFdync9cpjryMagBMlFYM4+OYHX6lCYi0D8OJQgeclDR5MZAkqQzASiw8kLASVIXvLQ0WSGgBIkM4HocPJCQAmSlzx0NJkhoATJTCA6nLwQUILkJQ8dTWYIKEEyE4gOJy8ElCB5yUNHkxkCSpDMBKLDyQsBJUhe8tDRZIaAEiQzgehw8kLg/7+czJspfpNhAAAAAElFTkSuQmCC" parent="76WRqrTsEyU47UKnnG5--21" vertex="1">
          <mxGeometry x="-1.5" y="85.5" width="43" height="43" as="geometry" />
        </mxCell>
        <mxCell id="76WRqrTsEyU47UKnnG5--22" value="" style="group" parent="76WRqrTsEyU47UKnnG5--38" vertex="1" connectable="0">
          <mxGeometry x="115" y="7" width="42" height="134.5" as="geometry" />
        </mxCell>
        <mxCell id="76WRqrTsEyU47UKnnG5--23" value="" style="rounded=1;whiteSpace=wrap;html=1;dashed=1;" parent="76WRqrTsEyU47UKnnG5--22" vertex="1">
          <mxGeometry width="40" height="128" as="geometry" />
        </mxCell>
        <mxCell id="-dllcQzm70aawtmvtiuD-24" value="" style="shape=image;verticalLabelPosition=bottom;verticalAlign=top;imageAspect=0;aspect=fixed;image=data:image/png,iVBORw0KGgoAAAANSUhEUgAAAMgAAADICAYAAACtWK6eAAAVUUlEQVR4Xu1d/X3bNhM+0AM0G9RKBmjeARonEzSdIPYEkSewPEHkCZpM0GSC2H0HaDpArHSCNx2gxPsDIcqSTBL3AZAgefrTxudzeIg74O5gQH+KgCLQioBRbBQBRaAdASWIrg5FoAMBJYguD0VACaJrQBHgIaA7CA83rTUTBJQgMxG0TpOHgBKEh5vWmgkCSpCZCFqnyUNACcLDTWvNBAElyEwErdPkIaAE4eGmtWaCgBJkJoLWafIQUILwcNNaM0FACTITQes0eQgoQXi4aa2ZIKAEyU3QnzdPAOAJvFp8y21ocxyPEiQnqd9trsDaZTUkY9ZQwg28WnzPaYhzG4sSJAeJ323egLUrMHB6MBwL38GYJZwtPuQwzDmOQQkypNT/u3kJ/9orMPCycxgWvsCJuYSfF7dDDneOfStBhpD6580pmPIKjDkndW/hFqy5UPuEhJqosBJEBB+xsjPAC3gLYFfEmkfF7RrK4lrtExmKmNpKEAxKMcp4O2MNBtwplfzn7ZM1nC2u5Y1pC20IKEFSrw1vZ7wDA8+TdGXhGxTmEl4sPiZpf+aNKkFSLYDKzrC/BQ3wWP07++TEXKshHwtQ344SJC6eAJWdUV4BGH+fQf7ZrcpkrshVXQVr34Ot7BO9aGQBeFhJCRIBxF0T9UUfz874AKVZ7Ra224EK+x4AzshDtPA3WPNcjXgyco8qKEHkGAL8sXkNZWVnHF704dq+g8KsWlUj37Yz7n/ENVdtI9dw9kx4UobvbcollSAS6WIv+pr6cF95R4wXC7dLdP+82rYEQKhd1v4DtjjV3SMEKu7/ShAcToeluBd93kb4BwysWV94lNqluwdHpG11lCAUNOuLPudQyLczluKve5va5Xall085ah4FhVmVVYJgxS276LuD0pxHPVlqUruMuUCpbNg5azk95g2uAclFn/uin5jzpHcTtdpl4VR3j6A0yQV0B2mDzNsZ78CY12RUnZ1RFMtev+ZuR9HYEbKoQhWUIMcIxbjoK4v1KBfrH5tz+Bduo6qCoRWY+f+VIPsCutu83QYucRwKDy/6Mhf8o+F5VW3j/25WGs24RWJsckwy3pQXfUkGnKDR26+/H6iTGs3oPxUJoB5Pk583z8FUN+DdEX1NM6Jc9OWOiDuIKO3nxmHO3AlyngQZ6qKviyi7McH33oOhbu83QTcZ7wR5OUrbSvCBmhdBcrnoOxbYsZNjn+rNH1+XYM071BqaYZDWfAjSljkEtTIg/kWf69ffsbiYkebbbx+D7r7aX3DDZJS6vf8f2SvABWmdmIuk9zuMqaSoMn2CSB0KU1z0kYOpEsagOzussGumW/3kk0hMlyA5XvRJkjakVrtYbvX1N3u6x8LTI4hkEVbytteQ4qJP5sv1oD2kVLtq/y4LSzDmB5LKkprApMHEKzwtguR40SdR8TrlnFTtcpeGTu36hbzUJnYsPA2ChIzdbil3R/SRV8i2gvsae18uWnI4Sn+pv9oeVxfN+BNlWH4jnkZs/LgJkutFn2wnI69FSKl2udG4o+ASVky1a9S5u8ZJEMnXWRLRF1q6sp0s1Dri/0nVLhf2uwIwbxEDOSwy4txd4yJIrhd9khMz8moLVEitds3sWHg8BMnxok98YhabHXvtJVe7ONlW6vEl3OkiQ5o/QSSnQCkj+mQewJHF2NVcwsU4g2PhfAkidShMHdF3d297XOXCrhJnOvGxJNxj4azfPsmPIGK1JdFF3/ESVYI8Ju0Ej4XzIojstrnfiD4lSPuuNqFj4TwIIjseTXPRF1JqlCDdCHn7ZPTHwsMShOzVenBKg0/dGVrsnP8rQXCojfxYeBiC5HrRhxO5LzUmghh7CS+eOSN6uJ/IWzjhSVwAkf4JIn8iQJ66M8YykZzcxOgf08YQ+bm6xjXCY+H+CJLjRZ8TZn0LDuY5GLMiv0nu7af3tOcJMKtbWsbeQFm490a+o1uqVV6AUxYW2I4kH5een8TuhyC395/ZmUNSRPR5YjS/BMV11+ae3GAXFb6cCw92uyw+TDc2FtixSo6Fz572snZ76YSsr6dWDTDethx37WqhVRdmb7BrJFo5LmY4LD5uM5qkedaN83GZL0ESXvRR3UPqLB4l3BBVFX6cN4sxDHWKlZQ7YWgt9Vh4hgRJd9En8edyC9a5a3PsE9HJDYopHHWKn5TbY+HeZ3e22g1qhNRC2GPh2RDEwl9wYpZJUshI/LmaBMvxkJWc3LQtLo46JXbhORpM6tQ/d1/XnbEnsyFIigcn5XEj3d89TpZBycnNwWgY6pTMhSeARaLcXXdf3S18+1PYShDq3rwtn3Ix7A+Jm2WQf3JDV6dYdgYTd86hRldXSpAanUiu2H0uhkOifIPCXMKLxUfS0rq7d6/bIk+7iBgNFeHIPdRoAk4JEokgEn8u0ooOFKbaJ6EFsN9dYV6hbLTUqiUWL+6hxn77IXxUxQpIQ+LPhRU0pxzWPgktgP2+S/Of4MWfzFOBM9NwHcmtdwgfJUgH/jJ/rrBgpSUwR6HHC6A6mYIVWHjyyDjtWgzSI2zpXDH1/e56QXraTQnCVLHu7p2uT8/4hxFk/DKf4Oxp8yOghwvA3QE9OGH6fF/Ov8snbGsjiL8z+DP+sBO1iNkJ666VIGyC3LIykSeSeaDZOzh72vx6lVsA1rzuvAPyZc5bn3fuehlqmPl294q1pVwrSpCZE8QdLrxahH2bup53VoIk/wxk4KxIPMK8u5/GDhJDtEqQGCh2tqEESQtxu4oVo18lSAwUlSDJUWzvQAmyj43aIC0rpTN+e7IqFt01hMrk2hGyy2eJ2mbK8kqQHgjCeXQypdCP2+a+n76L6iu+Az3+xGU2dK4rZ31OldyXEqQHgmSdTYQZ7HUc1cd11cg2Pn67LpQgsyXIp+1FX/jYdh+iUITj+OPjDxeEEmRmBOEGe1FfxuK4kg8ZH9+meylBZkKQ2m+KmoxNEuHIdSXHhrCSDQpGBSXIHAjCiOiL6YbOfc7sj805lHY1aP4uJcikCcI7tk0V4UiNP3GiSREfT9lIlCATJIg/tl2SIwb7inDExp/siyZafDyFHQCgBJkaQYiXmP4rfQrG/sbKJElcb7visvj4/tKmKkEmRhBK1Fpb+k7uoufU49gnfTp/KkFmSpDcIhwp9okSpPNTNEZv3v4ezwztIKGLPs4uELUO4l0NJciECNK3e3cXQbgZ66MSANGYs08Kc9F6yKAEUYIgllFzkS6CZO0TdjydjsMGJYgSRAmiBOGugXHZIDmpWLqD0NecnmIlPsVSgtAXZVVDdxAmcKA7SBdyaoNw11VzPd1BEu8g/pb64y6hWlzxPW5NCRITYefLdo5KdeR61bxYNfYMd46+PFOVIHKCOF82zkOsShABQVzVPjxTlSB8gnBjZuoelSBCgtTVvWfqCv/WBkHmShACWPtFmbH5+00oQSIR5IEo8V+WVYJQCcKLzW/qRQkSmSB1czEzeyhBsAS5g8KsUI/8oFvUNwq3UDGMdAzInMfpj9tVgnQjzc0BhpGf7iCJdpB98KWZB5UgzUvZGeAG1nD2zNl+aX5KkB4IcmjIr8kP7yhBmhb/4WM/aeih9yAPuCZSsZoE511V3FcvnKLT5bx6+fR5q/zn54tFu+iTEkd3kB53kGNhdV00Ys/vp0KQ0DE596JPCUJAIGZ298c2xhVYOAVbXKLdGOo2qifOYAnG/LD9E159mApB9k//9nfX6kNRuGwuLik2/ldljSyvwBRfyEm493vRHUS4gxzHgfMzDz6BolxBUXwkHVNOjSC1ONzuastTKIs1vFp8RzOjKWkFVyauUyUIkyChOHBuZnT0StgWnCpBqDhUi3nzFmyVtfFJY3UOUWZGEPeuYPPPmPekbRwbIkrJ7MFaFPf9JY/gjO+gTqKDEGpyPHV3F0sy3ACWILsNyr7f2id4dSE8CoA57yA+Cfc7MKb5Dfg2/JQgmJUlLEMliOvOb/ErOFvcCHt/qD5HgtRJuKE6Kqf/lCB0zMg1OATZ7SbwDU7MBcoYD71jPhWCODXp50W7Clxj55NwOzvjlCyzuoIShA0dvqKEIA9EuQVrLhqPhfe/knO5SbdgW/HwdsZVlFzDShD8OmeXjEGQXedmdXBWf3xC1p047tugb21QADRV4rjm+4waz2M11H0ovJ1xTumqs6wSJBqU7Q3d3v8JBtpdQKhD8AtjCdaeP/pKdhFE6ghJHSevfNg95PiD407/jLkFa5etx7a8sejzB1zcSPX61P1DuXndwId6a6MLNIp7SNQdOSBJ3UFIS51XODeC1LPwuvq6t4wrTehx3EOUIJ3rsJ+8WDwqNNfqkyDG/Ep+WapyhCzXe/5dMWff0RYjDtynUfosOpmizE53EApazLJ9EsQN0d/IN594tU2hX/vEOViuSI6aktd2mWKrqilBJOgh6/ZNkN2wjk68MMNNa5/Q48CHIkaNlRIEs2qEZQYjSLWbfANrXpG+1m66MRNJcB8VdeMYTP3bylwJIlz8mOrDEYSuyhzPR5JIIlYcuFf/VgDmLQbuqGWUIFHhHN5I9yOQE2N/JqwFam+gLJydEc/h0gU2FdbF6YfDj2OJVQnSgqR7rqztV5gPRHf3/tzMS7Mgq1PYxeTtE3e73bVAwxd92P7ayt3ef+ntaFoJ0iKFmCG3fapYmIvCesrOma+Av1GOf/swNdknLmHEiVmS2/J+ZG+ghE9oYus9SOcnpp97kCkTxN8l/LZzU7FV/Mk1eoHW4qnsE3MOhVmTdtQHgl4duocgT92UIBMiiFdLNlKtAl0/tIO0hZpyQkzRgzoq2BWCjImDUYJMiCA5PcGGeQbaHQsX5pJ8G48hC8kNXZ9gw0DaVGZcKlZOBKHYQjHj41mXfUoQJQgXga560QOm7BrKyj6hH9fWgVwsN3QlCHd56A7SK0GY8fE+3NV5Cjen1QlKXwkShKilgBKkb4LU/Tn7JBQfT02r0zoXJYgShIvAUATZEcV+fJQ29fjoWDw3JQgXwnHtIG6Wfb1w6/qKboN0iam6t/jg89pGjAOvuhyYIJQIx929jr4wtYWCkfWvjxdueycI9xuHqTcQQbCZ8pumMLPUox3+UwyC1ICGUvdj1s7QKpZ0jKj6QxCEEeG4PxclyE4JvxY/5ZXKM7VXFQu10pmFeiVIHO9nJUhEgtRNxQxMUhWLSkZ6hGNXD0qQBASpm5QEJu0LTXeQMElSvXSrBElIENd0jMQJSpB2gsSKcGzqwR9z/96ZIDDkSBqmNqpEBse8bpxI12zUlI4KSQx5JUgb4vin6igyo2SPnxdBdi4YSzhbfKBgii5LeeG2blQJcgxvughHqjvN7Aiy07jgC5yYS3I0HZYp2ItGp1u/fNqe6p/izYsdW7JyXadYX9fBBA7cCEfMfEhu+3sNzpYgO6I0uGBgAMeWefzCra+JNTqnQhA357bdlZPKFIu/JHt86OOFHQOiXE82yKPnlhFDq4sktU+ebDN7vEETox7WlAhSz6neXcE+AQPONZ/20i1WqscvFGPrpTwYaBlDPwRxnVcGWJVm5g0Wj125+omCVPZJ6DWppgFPkSD1PDl4YITq1SkXv895peoTlGZJjvXHjKujTH8EeQCfn48J4yIuBARdfcoEQYOALCjxTuY4OiKHhSnWP0EetvPXUFZBQD9iBnpQhpNQmtxJoIISBI+oDxP+Qsp4P4A61TSh4Qiy0+Ul9okghBUv3uaSShAags67wZp3yEqDqFN5EiSOfRL3iWeMFJUgGJQOy4RSDA2sTuVLkH3jMJyOs1kwfdsnShA6QdpUrUzUqfwJUo9Q4pUbM8VO1xJQgtAJ4mo8VrWyUafGQ5CdIe/SccKKZNzVdX0K0EtWih2M6EPeppg2+inj3EPc8eiXfrpD9OJULQuncGLOk3lMIIaBKTK8kR4aJeu5gG2jdQrQs8V1qBvW/3EZ2llNiytJHtoJdf6QJPsD6wPk6nNyg4XGleD/+RMkln2SKgVopTZs+EfWsYVa6/PpbsH3cnQJwqVjzztRe+MhSO72SYz4E7mQ0+nzbTm6Ur6hIsdD3ML4CJK7fTKE2pXS29afPL0DY143rjZrP8LLZ7+KV2KmDYyXIA5QyVc79RMFfahdkrQ6oQVJCV6ivBwV6jez/4+bIIf2iXOE/IWMr7s/McZdNMYP1JIQODyRNFF9rt+2d0/axuQwfPl0ER7y+EpMgyCH9onz7/qJLAp3f3JirpMcO8ZVu9Id20q8bY35Nck7KGRBxq0wLYLs7JPNOZTlWnB/Qn9CDSMXidqFDeTCjOO4jNTbtjDLKZLDwTRNguRsn7DULmGWwjbS+LFcAZglmVcZu4eQ59JRYboEyd8+GfYZaKqdcbiI0tk/MVd3hLamT5B9+6S0q8C75M2QprRPmtSulF6tXY9+hhdUOvsn3PcgJeZDkAP7xK54gVqJEkkcZKuHtThXcdNScvmLjX23e66astxSEpYyjgHKzo8g+/aJhSXLkE+Z6C72IhBlD7H/QAErePHMHaHP8jdPghzaJ07tyi+RRIzlyM0eUvVtb6AsVmNxKowBV1Mb8yZIHPskbaI7juTldsZ539lDONPso44SZB9lbNbFJsk4nyQff/KtD8E19qF2RnTolSDHkIqfd0uY6K5N/N6hkPe2YUp/rujLtf8GlSBdi66ojoW59kn6RBK1Q6G1S94b6mpnhCinBAkhJHneLWUiCZ8N3R1XjyZLYQjqHP+vBMFKReZHdQvWXESxT7jZ0KuDKfgLTswyiUMmFseRlVOCUAXWlhUe1Y4g0Z3YziicQ+F71DC10A4BJQhnMcgTcePtE7mdcZ0sSzsHu5HVUYJIBJbaPlE7QyKdKHWVIDFglNsn7v7kIW9VW4IEzFjVzsCghC6jBEFDhSgoeX7aJ7q72d5nNCdI6BpCyoAqxNSnWkQJEluykkR3nLGkzoPFGdOE6ihBUgkzbhx62yhd4JJzKBzOvSUVfpm0qwRJLQhJIu72sd1BYVZ6n5FaeFOOSU+PHa0HiX1S96R2Bg3zCKV1B4kAIroJrn2idgYa4tgFlSCxEcW05+0TbKI7tTMwmCYqowRJBCyqWW+ftCW6m12CBBRmPRdSgvQMeGN3VaDWNtFdync9cpjryMagBMlFYM4+OYHX6lCYi0D8OJQgeclDR5MZAkqQzASiw8kLASVIXvLQ0WSGgBIkM4HocPJCQAmSlzx0NJkhoATJTCA6nLwQUILkJQ8dTWYIKEEyE4gOJy8ElCB5yUNHkxkCSpDMBKLDyQsBJUhe8tDRZIaAEiQzgehw8kLg/7+czJspfpNhAAAAAElFTkSuQmCC" parent="76WRqrTsEyU47UKnnG5--22" vertex="1">
          <mxGeometry y="7.5" width="43" height="43" as="geometry" />
        </mxCell>
        <mxCell id="-dllcQzm70aawtmvtiuD-25" value="" style="shape=image;verticalLabelPosition=bottom;verticalAlign=top;imageAspect=0;aspect=fixed;image=data:image/png,iVBORw0KGgoAAAANSUhEUgAAAMgAAADICAYAAACtWK6eAAAVUUlEQVR4Xu1d/X3bNhM+0AM0G9RKBmjeARonEzSdIPYEkSewPEHkCZpM0GSC2H0HaDpArHSCNx2gxPsDIcqSTBL3AZAgefrTxudzeIg74O5gQH+KgCLQioBRbBQBRaAdASWIrg5FoAMBJYguD0VACaJrQBHgIaA7CA83rTUTBJQgMxG0TpOHgBKEh5vWmgkCSpCZCFqnyUNACcLDTWvNBAElyEwErdPkIaAE4eGmtWaCgBJkJoLWafIQUILwcNNaM0FACTITQes0eQgoQXi4aa2ZIKAEyU3QnzdPAOAJvFp8y21ocxyPEiQnqd9trsDaZTUkY9ZQwg28WnzPaYhzG4sSJAeJ323egLUrMHB6MBwL38GYJZwtPuQwzDmOQQkypNT/u3kJ/9orMPCycxgWvsCJuYSfF7dDDneOfStBhpD6580pmPIKjDkndW/hFqy5UPuEhJqosBJEBB+xsjPAC3gLYFfEmkfF7RrK4lrtExmKmNpKEAxKMcp4O2MNBtwplfzn7ZM1nC2u5Y1pC20IKEFSrw1vZ7wDA8+TdGXhGxTmEl4sPiZpf+aNKkFSLYDKzrC/BQ3wWP07++TEXKshHwtQ344SJC6eAJWdUV4BGH+fQf7ZrcpkrshVXQVr34Ot7BO9aGQBeFhJCRIBxF0T9UUfz874AKVZ7Ra224EK+x4AzshDtPA3WPNcjXgyco8qKEHkGAL8sXkNZWVnHF704dq+g8KsWlUj37Yz7n/ENVdtI9dw9kx4UobvbcollSAS6WIv+pr6cF95R4wXC7dLdP+82rYEQKhd1v4DtjjV3SMEKu7/ShAcToeluBd93kb4BwysWV94lNqluwdHpG11lCAUNOuLPudQyLczluKve5va5Xall085ah4FhVmVVYJgxS276LuD0pxHPVlqUruMuUCpbNg5azk95g2uAclFn/uin5jzpHcTtdpl4VR3j6A0yQV0B2mDzNsZ78CY12RUnZ1RFMtev+ZuR9HYEbKoQhWUIMcIxbjoK4v1KBfrH5tz+Bduo6qCoRWY+f+VIPsCutu83QYucRwKDy/6Mhf8o+F5VW3j/25WGs24RWJsckwy3pQXfUkGnKDR26+/H6iTGs3oPxUJoB5Pk583z8FUN+DdEX1NM6Jc9OWOiDuIKO3nxmHO3AlyngQZ6qKviyi7McH33oOhbu83QTcZ7wR5OUrbSvCBmhdBcrnoOxbYsZNjn+rNH1+XYM071BqaYZDWfAjSljkEtTIg/kWf69ffsbiYkebbbx+D7r7aX3DDZJS6vf8f2SvABWmdmIuk9zuMqaSoMn2CSB0KU1z0kYOpEsagOzussGumW/3kk0hMlyA5XvRJkjakVrtYbvX1N3u6x8LTI4hkEVbytteQ4qJP5sv1oD2kVLtq/y4LSzDmB5LKkprApMHEKzwtguR40SdR8TrlnFTtcpeGTu36hbzUJnYsPA2ChIzdbil3R/SRV8i2gvsae18uWnI4Sn+pv9oeVxfN+BNlWH4jnkZs/LgJkutFn2wnI69FSKl2udG4o+ASVky1a9S5u8ZJEMnXWRLRF1q6sp0s1Dri/0nVLhf2uwIwbxEDOSwy4txd4yJIrhd9khMz8moLVEitds3sWHg8BMnxok98YhabHXvtJVe7ONlW6vEl3OkiQ5o/QSSnQCkj+mQewJHF2NVcwsU4g2PhfAkidShMHdF3d297XOXCrhJnOvGxJNxj4azfPsmPIGK1JdFF3/ESVYI8Ju0Ej4XzIojstrnfiD4lSPuuNqFj4TwIIjseTXPRF1JqlCDdCHn7ZPTHwsMShOzVenBKg0/dGVrsnP8rQXCojfxYeBiC5HrRhxO5LzUmghh7CS+eOSN6uJ/IWzjhSVwAkf4JIn8iQJ66M8YykZzcxOgf08YQ+bm6xjXCY+H+CJLjRZ8TZn0LDuY5GLMiv0nu7af3tOcJMKtbWsbeQFm490a+o1uqVV6AUxYW2I4kH5een8TuhyC395/ZmUNSRPR5YjS/BMV11+ae3GAXFb6cCw92uyw+TDc2FtixSo6Fz572snZ76YSsr6dWDTDethx37WqhVRdmb7BrJFo5LmY4LD5uM5qkedaN83GZL0ESXvRR3UPqLB4l3BBVFX6cN4sxDHWKlZQ7YWgt9Vh4hgRJd9En8edyC9a5a3PsE9HJDYopHHWKn5TbY+HeZ3e22g1qhNRC2GPh2RDEwl9wYpZJUshI/LmaBMvxkJWc3LQtLo46JXbhORpM6tQ/d1/XnbEnsyFIigcn5XEj3d89TpZBycnNwWgY6pTMhSeARaLcXXdf3S18+1PYShDq3rwtn3Ix7A+Jm2WQf3JDV6dYdgYTd86hRldXSpAanUiu2H0uhkOifIPCXMKLxUfS0rq7d6/bIk+7iBgNFeHIPdRoAk4JEokgEn8u0ooOFKbaJ6EFsN9dYV6hbLTUqiUWL+6hxn77IXxUxQpIQ+LPhRU0pxzWPgktgP2+S/Of4MWfzFOBM9NwHcmtdwgfJUgH/jJ/rrBgpSUwR6HHC6A6mYIVWHjyyDjtWgzSI2zpXDH1/e56QXraTQnCVLHu7p2uT8/4hxFk/DKf4Oxp8yOghwvA3QE9OGH6fF/Ov8snbGsjiL8z+DP+sBO1iNkJ666VIGyC3LIykSeSeaDZOzh72vx6lVsA1rzuvAPyZc5bn3fuehlqmPl294q1pVwrSpCZE8QdLrxahH2bup53VoIk/wxk4KxIPMK8u5/GDhJDtEqQGCh2tqEESQtxu4oVo18lSAwUlSDJUWzvQAmyj43aIC0rpTN+e7IqFt01hMrk2hGyy2eJ2mbK8kqQHgjCeXQypdCP2+a+n76L6iu+Az3+xGU2dK4rZ31OldyXEqQHgmSdTYQZ7HUc1cd11cg2Pn67LpQgsyXIp+1FX/jYdh+iUITj+OPjDxeEEmRmBOEGe1FfxuK4kg8ZH9+meylBZkKQ2m+KmoxNEuHIdSXHhrCSDQpGBSXIHAjCiOiL6YbOfc7sj805lHY1aP4uJcikCcI7tk0V4UiNP3GiSREfT9lIlCATJIg/tl2SIwb7inDExp/siyZafDyFHQCgBJkaQYiXmP4rfQrG/sbKJElcb7visvj4/tKmKkEmRhBK1Fpb+k7uoufU49gnfTp/KkFmSpDcIhwp9okSpPNTNEZv3v4ezwztIKGLPs4uELUO4l0NJciECNK3e3cXQbgZ66MSANGYs08Kc9F6yKAEUYIgllFzkS6CZO0TdjydjsMGJYgSRAmiBOGugXHZIDmpWLqD0NecnmIlPsVSgtAXZVVDdxAmcKA7SBdyaoNw11VzPd1BEu8g/pb64y6hWlzxPW5NCRITYefLdo5KdeR61bxYNfYMd46+PFOVIHKCOF82zkOsShABQVzVPjxTlSB8gnBjZuoelSBCgtTVvWfqCv/WBkHmShACWPtFmbH5+00oQSIR5IEo8V+WVYJQCcKLzW/qRQkSmSB1czEzeyhBsAS5g8KsUI/8oFvUNwq3UDGMdAzInMfpj9tVgnQjzc0BhpGf7iCJdpB98KWZB5UgzUvZGeAG1nD2zNl+aX5KkB4IcmjIr8kP7yhBmhb/4WM/aeih9yAPuCZSsZoE511V3FcvnKLT5bx6+fR5q/zn54tFu+iTEkd3kB53kGNhdV00Ys/vp0KQ0DE596JPCUJAIGZ298c2xhVYOAVbXKLdGOo2qifOYAnG/LD9E159mApB9k//9nfX6kNRuGwuLik2/ldljSyvwBRfyEm493vRHUS4gxzHgfMzDz6BolxBUXwkHVNOjSC1ONzuastTKIs1vFp8RzOjKWkFVyauUyUIkyChOHBuZnT0StgWnCpBqDhUi3nzFmyVtfFJY3UOUWZGEPeuYPPPmPekbRwbIkrJ7MFaFPf9JY/gjO+gTqKDEGpyPHV3F0sy3ACWILsNyr7f2id4dSE8CoA57yA+Cfc7MKb5Dfg2/JQgmJUlLEMliOvOb/ErOFvcCHt/qD5HgtRJuKE6Kqf/lCB0zMg1OATZ7SbwDU7MBcoYD71jPhWCODXp50W7Clxj55NwOzvjlCyzuoIShA0dvqKEIA9EuQVrLhqPhfe/knO5SbdgW/HwdsZVlFzDShD8OmeXjEGQXedmdXBWf3xC1p047tugb21QADRV4rjm+4waz2M11H0ovJ1xTumqs6wSJBqU7Q3d3v8JBtpdQKhD8AtjCdaeP/pKdhFE6ghJHSevfNg95PiD407/jLkFa5etx7a8sejzB1zcSPX61P1DuXndwId6a6MLNIp7SNQdOSBJ3UFIS51XODeC1LPwuvq6t4wrTehx3EOUIJ3rsJ+8WDwqNNfqkyDG/Ep+WapyhCzXe/5dMWff0RYjDtynUfosOpmizE53EApazLJ9EsQN0d/IN594tU2hX/vEOViuSI6aktd2mWKrqilBJOgh6/ZNkN2wjk68MMNNa5/Q48CHIkaNlRIEs2qEZQYjSLWbfANrXpG+1m66MRNJcB8VdeMYTP3bylwJIlz8mOrDEYSuyhzPR5JIIlYcuFf/VgDmLQbuqGWUIFHhHN5I9yOQE2N/JqwFam+gLJydEc/h0gU2FdbF6YfDj2OJVQnSgqR7rqztV5gPRHf3/tzMS7Mgq1PYxeTtE3e73bVAwxd92P7ayt3ef+ntaFoJ0iKFmCG3fapYmIvCesrOma+Av1GOf/swNdknLmHEiVmS2/J+ZG+ghE9oYus9SOcnpp97kCkTxN8l/LZzU7FV/Mk1eoHW4qnsE3MOhVmTdtQHgl4duocgT92UIBMiiFdLNlKtAl0/tIO0hZpyQkzRgzoq2BWCjImDUYJMiCA5PcGGeQbaHQsX5pJ8G48hC8kNXZ9gw0DaVGZcKlZOBKHYQjHj41mXfUoQJQgXga560QOm7BrKyj6hH9fWgVwsN3QlCHd56A7SK0GY8fE+3NV5Cjen1QlKXwkShKilgBKkb4LU/Tn7JBQfT02r0zoXJYgShIvAUATZEcV+fJQ29fjoWDw3JQgXwnHtIG6Wfb1w6/qKboN0iam6t/jg89pGjAOvuhyYIJQIx929jr4wtYWCkfWvjxdueycI9xuHqTcQQbCZ8pumMLPUox3+UwyC1ICGUvdj1s7QKpZ0jKj6QxCEEeG4PxclyE4JvxY/5ZXKM7VXFQu10pmFeiVIHO9nJUhEgtRNxQxMUhWLSkZ6hGNXD0qQBASpm5QEJu0LTXeQMElSvXSrBElIENd0jMQJSpB2gsSKcGzqwR9z/96ZIDDkSBqmNqpEBse8bpxI12zUlI4KSQx5JUgb4vin6igyo2SPnxdBdi4YSzhbfKBgii5LeeG2blQJcgxvughHqjvN7Aiy07jgC5yYS3I0HZYp2ItGp1u/fNqe6p/izYsdW7JyXadYX9fBBA7cCEfMfEhu+3sNzpYgO6I0uGBgAMeWefzCra+JNTqnQhA357bdlZPKFIu/JHt86OOFHQOiXE82yKPnlhFDq4sktU+ebDN7vEETox7WlAhSz6neXcE+AQPONZ/20i1WqscvFGPrpTwYaBlDPwRxnVcGWJVm5g0Wj125+omCVPZJ6DWppgFPkSD1PDl4YITq1SkXv895peoTlGZJjvXHjKujTH8EeQCfn48J4yIuBARdfcoEQYOALCjxTuY4OiKHhSnWP0EetvPXUFZBQD9iBnpQhpNQmtxJoIISBI+oDxP+Qsp4P4A61TSh4Qiy0+Ul9okghBUv3uaSShAags67wZp3yEqDqFN5EiSOfRL3iWeMFJUgGJQOy4RSDA2sTuVLkH3jMJyOs1kwfdsnShA6QdpUrUzUqfwJUo9Q4pUbM8VO1xJQgtAJ4mo8VrWyUafGQ5CdIe/SccKKZNzVdX0K0EtWih2M6EPeppg2+inj3EPc8eiXfrpD9OJULQuncGLOk3lMIIaBKTK8kR4aJeu5gG2jdQrQs8V1qBvW/3EZ2llNiytJHtoJdf6QJPsD6wPk6nNyg4XGleD/+RMkln2SKgVopTZs+EfWsYVa6/PpbsH3cnQJwqVjzztRe+MhSO72SYz4E7mQ0+nzbTm6Ur6hIsdD3ML4CJK7fTKE2pXS29afPL0DY143rjZrP8LLZ7+KV2KmDYyXIA5QyVc79RMFfahdkrQ6oQVJCV6ivBwV6jez/4+bIIf2iXOE/IWMr7s/McZdNMYP1JIQODyRNFF9rt+2d0/axuQwfPl0ER7y+EpMgyCH9onz7/qJLAp3f3JirpMcO8ZVu9Id20q8bY35Nck7KGRBxq0wLYLs7JPNOZTlWnB/Qn9CDSMXidqFDeTCjOO4jNTbtjDLKZLDwTRNguRsn7DULmGWwjbS+LFcAZglmVcZu4eQ59JRYboEyd8+GfYZaKqdcbiI0tk/MVd3hLamT5B9+6S0q8C75M2QprRPmtSulF6tXY9+hhdUOvsn3PcgJeZDkAP7xK54gVqJEkkcZKuHtThXcdNScvmLjX23e66astxSEpYyjgHKzo8g+/aJhSXLkE+Z6C72IhBlD7H/QAErePHMHaHP8jdPghzaJ07tyi+RRIzlyM0eUvVtb6AsVmNxKowBV1Mb8yZIHPskbaI7juTldsZ539lDONPso44SZB9lbNbFJsk4nyQff/KtD8E19qF2RnTolSDHkIqfd0uY6K5N/N6hkPe2YUp/rujLtf8GlSBdi66ojoW59kn6RBK1Q6G1S94b6mpnhCinBAkhJHneLWUiCZ8N3R1XjyZLYQjqHP+vBMFKReZHdQvWXESxT7jZ0KuDKfgLTswyiUMmFseRlVOCUAXWlhUe1Y4g0Z3YziicQ+F71DC10A4BJQhnMcgTcePtE7mdcZ0sSzsHu5HVUYJIBJbaPlE7QyKdKHWVIDFglNsn7v7kIW9VW4IEzFjVzsCghC6jBEFDhSgoeX7aJ7q72d5nNCdI6BpCyoAqxNSnWkQJEluykkR3nLGkzoPFGdOE6ihBUgkzbhx62yhd4JJzKBzOvSUVfpm0qwRJLQhJIu72sd1BYVZ6n5FaeFOOSU+PHa0HiX1S96R2Bg3zCKV1B4kAIroJrn2idgYa4tgFlSCxEcW05+0TbKI7tTMwmCYqowRJBCyqWW+ftCW6m12CBBRmPRdSgvQMeGN3VaDWNtFdync9cpjryMagBMlFYM4+OYHX6lCYi0D8OJQgeclDR5MZAkqQzASiw8kLASVIXvLQ0WSGgBIkM4HocPJCQAmSlzx0NJkhoATJTCA6nLwQUILkJQ8dTWYIKEEyE4gOJy8ElCB5yUNHkxkCSpDMBKLDyQsBJUhe8tDRZIaAEiQzgehw8kLg/7+czJspfpNhAAAAAElFTkSuQmCC" parent="76WRqrTsEyU47UKnnG5--22" vertex="1">
          <mxGeometry y="48.5" width="43" height="43" as="geometry" />
        </mxCell>
        <mxCell id="-dllcQzm70aawtmvtiuD-26" value="" style="shape=image;verticalLabelPosition=bottom;verticalAlign=top;imageAspect=0;aspect=fixed;image=data:image/png,iVBORw0KGgoAAAANSUhEUgAAAMgAAADICAYAAACtWK6eAAAVUUlEQVR4Xu1d/X3bNhM+0AM0G9RKBmjeARonEzSdIPYEkSewPEHkCZpM0GSC2H0HaDpArHSCNx2gxPsDIcqSTBL3AZAgefrTxudzeIg74O5gQH+KgCLQioBRbBQBRaAdASWIrg5FoAMBJYguD0VACaJrQBHgIaA7CA83rTUTBJQgMxG0TpOHgBKEh5vWmgkCSpCZCFqnyUNACcLDTWvNBAElyEwErdPkIaAE4eGmtWaCgBJkJoLWafIQUILwcNNaM0FACTITQes0eQgoQXi4aa2ZIKAEyU3QnzdPAOAJvFp8y21ocxyPEiQnqd9trsDaZTUkY9ZQwg28WnzPaYhzG4sSJAeJ323egLUrMHB6MBwL38GYJZwtPuQwzDmOQQkypNT/u3kJ/9orMPCycxgWvsCJuYSfF7dDDneOfStBhpD6580pmPIKjDkndW/hFqy5UPuEhJqosBJEBB+xsjPAC3gLYFfEmkfF7RrK4lrtExmKmNpKEAxKMcp4O2MNBtwplfzn7ZM1nC2u5Y1pC20IKEFSrw1vZ7wDA8+TdGXhGxTmEl4sPiZpf+aNKkFSLYDKzrC/BQ3wWP07++TEXKshHwtQ344SJC6eAJWdUV4BGH+fQf7ZrcpkrshVXQVr34Ot7BO9aGQBeFhJCRIBxF0T9UUfz874AKVZ7Ra224EK+x4AzshDtPA3WPNcjXgyco8qKEHkGAL8sXkNZWVnHF704dq+g8KsWlUj37Yz7n/ENVdtI9dw9kx4UobvbcollSAS6WIv+pr6cF95R4wXC7dLdP+82rYEQKhd1v4DtjjV3SMEKu7/ShAcToeluBd93kb4BwysWV94lNqluwdHpG11lCAUNOuLPudQyLczluKve5va5Xall085ah4FhVmVVYJgxS276LuD0pxHPVlqUruMuUCpbNg5azk95g2uAclFn/uin5jzpHcTtdpl4VR3j6A0yQV0B2mDzNsZ78CY12RUnZ1RFMtev+ZuR9HYEbKoQhWUIMcIxbjoK4v1KBfrH5tz+Bduo6qCoRWY+f+VIPsCutu83QYucRwKDy/6Mhf8o+F5VW3j/25WGs24RWJsckwy3pQXfUkGnKDR26+/H6iTGs3oPxUJoB5Pk583z8FUN+DdEX1NM6Jc9OWOiDuIKO3nxmHO3AlyngQZ6qKviyi7McH33oOhbu83QTcZ7wR5OUrbSvCBmhdBcrnoOxbYsZNjn+rNH1+XYM071BqaYZDWfAjSljkEtTIg/kWf69ffsbiYkebbbx+D7r7aX3DDZJS6vf8f2SvABWmdmIuk9zuMqaSoMn2CSB0KU1z0kYOpEsagOzussGumW/3kk0hMlyA5XvRJkjakVrtYbvX1N3u6x8LTI4hkEVbytteQ4qJP5sv1oD2kVLtq/y4LSzDmB5LKkprApMHEKzwtguR40SdR8TrlnFTtcpeGTu36hbzUJnYsPA2ChIzdbil3R/SRV8i2gvsae18uWnI4Sn+pv9oeVxfN+BNlWH4jnkZs/LgJkutFn2wnI69FSKl2udG4o+ASVky1a9S5u8ZJEMnXWRLRF1q6sp0s1Dri/0nVLhf2uwIwbxEDOSwy4txd4yJIrhd9khMz8moLVEitds3sWHg8BMnxok98YhabHXvtJVe7ONlW6vEl3OkiQ5o/QSSnQCkj+mQewJHF2NVcwsU4g2PhfAkidShMHdF3d297XOXCrhJnOvGxJNxj4azfPsmPIGK1JdFF3/ESVYI8Ju0Ej4XzIojstrnfiD4lSPuuNqFj4TwIIjseTXPRF1JqlCDdCHn7ZPTHwsMShOzVenBKg0/dGVrsnP8rQXCojfxYeBiC5HrRhxO5LzUmghh7CS+eOSN6uJ/IWzjhSVwAkf4JIn8iQJ66M8YykZzcxOgf08YQ+bm6xjXCY+H+CJLjRZ8TZn0LDuY5GLMiv0nu7af3tOcJMKtbWsbeQFm490a+o1uqVV6AUxYW2I4kH5een8TuhyC395/ZmUNSRPR5YjS/BMV11+ae3GAXFb6cCw92uyw+TDc2FtixSo6Fz572snZ76YSsr6dWDTDethx37WqhVRdmb7BrJFo5LmY4LD5uM5qkedaN83GZL0ESXvRR3UPqLB4l3BBVFX6cN4sxDHWKlZQ7YWgt9Vh4hgRJd9En8edyC9a5a3PsE9HJDYopHHWKn5TbY+HeZ3e22g1qhNRC2GPh2RDEwl9wYpZJUshI/LmaBMvxkJWc3LQtLo46JXbhORpM6tQ/d1/XnbEnsyFIigcn5XEj3d89TpZBycnNwWgY6pTMhSeARaLcXXdf3S18+1PYShDq3rwtn3Ix7A+Jm2WQf3JDV6dYdgYTd86hRldXSpAanUiu2H0uhkOifIPCXMKLxUfS0rq7d6/bIk+7iBgNFeHIPdRoAk4JEokgEn8u0ooOFKbaJ6EFsN9dYV6hbLTUqiUWL+6hxn77IXxUxQpIQ+LPhRU0pxzWPgktgP2+S/Of4MWfzFOBM9NwHcmtdwgfJUgH/jJ/rrBgpSUwR6HHC6A6mYIVWHjyyDjtWgzSI2zpXDH1/e56QXraTQnCVLHu7p2uT8/4hxFk/DKf4Oxp8yOghwvA3QE9OGH6fF/Ov8snbGsjiL8z+DP+sBO1iNkJ666VIGyC3LIykSeSeaDZOzh72vx6lVsA1rzuvAPyZc5bn3fuehlqmPl294q1pVwrSpCZE8QdLrxahH2bup53VoIk/wxk4KxIPMK8u5/GDhJDtEqQGCh2tqEESQtxu4oVo18lSAwUlSDJUWzvQAmyj43aIC0rpTN+e7IqFt01hMrk2hGyy2eJ2mbK8kqQHgjCeXQypdCP2+a+n76L6iu+Az3+xGU2dK4rZ31OldyXEqQHgmSdTYQZ7HUc1cd11cg2Pn67LpQgsyXIp+1FX/jYdh+iUITj+OPjDxeEEmRmBOEGe1FfxuK4kg8ZH9+meylBZkKQ2m+KmoxNEuHIdSXHhrCSDQpGBSXIHAjCiOiL6YbOfc7sj805lHY1aP4uJcikCcI7tk0V4UiNP3GiSREfT9lIlCATJIg/tl2SIwb7inDExp/siyZafDyFHQCgBJkaQYiXmP4rfQrG/sbKJElcb7visvj4/tKmKkEmRhBK1Fpb+k7uoufU49gnfTp/KkFmSpDcIhwp9okSpPNTNEZv3v4ezwztIKGLPs4uELUO4l0NJciECNK3e3cXQbgZ66MSANGYs08Kc9F6yKAEUYIgllFzkS6CZO0TdjydjsMGJYgSRAmiBOGugXHZIDmpWLqD0NecnmIlPsVSgtAXZVVDdxAmcKA7SBdyaoNw11VzPd1BEu8g/pb64y6hWlzxPW5NCRITYefLdo5KdeR61bxYNfYMd46+PFOVIHKCOF82zkOsShABQVzVPjxTlSB8gnBjZuoelSBCgtTVvWfqCv/WBkHmShACWPtFmbH5+00oQSIR5IEo8V+WVYJQCcKLzW/qRQkSmSB1czEzeyhBsAS5g8KsUI/8oFvUNwq3UDGMdAzInMfpj9tVgnQjzc0BhpGf7iCJdpB98KWZB5UgzUvZGeAG1nD2zNl+aX5KkB4IcmjIr8kP7yhBmhb/4WM/aeih9yAPuCZSsZoE511V3FcvnKLT5bx6+fR5q/zn54tFu+iTEkd3kB53kGNhdV00Ys/vp0KQ0DE596JPCUJAIGZ298c2xhVYOAVbXKLdGOo2qifOYAnG/LD9E159mApB9k//9nfX6kNRuGwuLik2/ldljSyvwBRfyEm493vRHUS4gxzHgfMzDz6BolxBUXwkHVNOjSC1ONzuastTKIs1vFp8RzOjKWkFVyauUyUIkyChOHBuZnT0StgWnCpBqDhUi3nzFmyVtfFJY3UOUWZGEPeuYPPPmPekbRwbIkrJ7MFaFPf9JY/gjO+gTqKDEGpyPHV3F0sy3ACWILsNyr7f2id4dSE8CoA57yA+Cfc7MKb5Dfg2/JQgmJUlLEMliOvOb/ErOFvcCHt/qD5HgtRJuKE6Kqf/lCB0zMg1OATZ7SbwDU7MBcoYD71jPhWCODXp50W7Clxj55NwOzvjlCyzuoIShA0dvqKEIA9EuQVrLhqPhfe/knO5SbdgW/HwdsZVlFzDShD8OmeXjEGQXedmdXBWf3xC1p047tugb21QADRV4rjm+4waz2M11H0ovJ1xTumqs6wSJBqU7Q3d3v8JBtpdQKhD8AtjCdaeP/pKdhFE6ghJHSevfNg95PiD407/jLkFa5etx7a8sejzB1zcSPX61P1DuXndwId6a6MLNIp7SNQdOSBJ3UFIS51XODeC1LPwuvq6t4wrTehx3EOUIJ3rsJ+8WDwqNNfqkyDG/Ep+WapyhCzXe/5dMWff0RYjDtynUfosOpmizE53EApazLJ9EsQN0d/IN594tU2hX/vEOViuSI6aktd2mWKrqilBJOgh6/ZNkN2wjk68MMNNa5/Q48CHIkaNlRIEs2qEZQYjSLWbfANrXpG+1m66MRNJcB8VdeMYTP3bylwJIlz8mOrDEYSuyhzPR5JIIlYcuFf/VgDmLQbuqGWUIFHhHN5I9yOQE2N/JqwFam+gLJydEc/h0gU2FdbF6YfDj2OJVQnSgqR7rqztV5gPRHf3/tzMS7Mgq1PYxeTtE3e73bVAwxd92P7ayt3ef+ntaFoJ0iKFmCG3fapYmIvCesrOma+Av1GOf/swNdknLmHEiVmS2/J+ZG+ghE9oYus9SOcnpp97kCkTxN8l/LZzU7FV/Mk1eoHW4qnsE3MOhVmTdtQHgl4duocgT92UIBMiiFdLNlKtAl0/tIO0hZpyQkzRgzoq2BWCjImDUYJMiCA5PcGGeQbaHQsX5pJ8G48hC8kNXZ9gw0DaVGZcKlZOBKHYQjHj41mXfUoQJQgXga560QOm7BrKyj6hH9fWgVwsN3QlCHd56A7SK0GY8fE+3NV5Cjen1QlKXwkShKilgBKkb4LU/Tn7JBQfT02r0zoXJYgShIvAUATZEcV+fJQ29fjoWDw3JQgXwnHtIG6Wfb1w6/qKboN0iam6t/jg89pGjAOvuhyYIJQIx929jr4wtYWCkfWvjxdueycI9xuHqTcQQbCZ8pumMLPUox3+UwyC1ICGUvdj1s7QKpZ0jKj6QxCEEeG4PxclyE4JvxY/5ZXKM7VXFQu10pmFeiVIHO9nJUhEgtRNxQxMUhWLSkZ6hGNXD0qQBASpm5QEJu0LTXeQMElSvXSrBElIENd0jMQJSpB2gsSKcGzqwR9z/96ZIDDkSBqmNqpEBse8bpxI12zUlI4KSQx5JUgb4vin6igyo2SPnxdBdi4YSzhbfKBgii5LeeG2blQJcgxvughHqjvN7Aiy07jgC5yYS3I0HZYp2ItGp1u/fNqe6p/izYsdW7JyXadYX9fBBA7cCEfMfEhu+3sNzpYgO6I0uGBgAMeWefzCra+JNTqnQhA357bdlZPKFIu/JHt86OOFHQOiXE82yKPnlhFDq4sktU+ebDN7vEETox7WlAhSz6neXcE+AQPONZ/20i1WqscvFGPrpTwYaBlDPwRxnVcGWJVm5g0Wj125+omCVPZJ6DWppgFPkSD1PDl4YITq1SkXv895peoTlGZJjvXHjKujTH8EeQCfn48J4yIuBARdfcoEQYOALCjxTuY4OiKHhSnWP0EetvPXUFZBQD9iBnpQhpNQmtxJoIISBI+oDxP+Qsp4P4A61TSh4Qiy0+Ul9okghBUv3uaSShAags67wZp3yEqDqFN5EiSOfRL3iWeMFJUgGJQOy4RSDA2sTuVLkH3jMJyOs1kwfdsnShA6QdpUrUzUqfwJUo9Q4pUbM8VO1xJQgtAJ4mo8VrWyUafGQ5CdIe/SccKKZNzVdX0K0EtWih2M6EPeppg2+inj3EPc8eiXfrpD9OJULQuncGLOk3lMIIaBKTK8kR4aJeu5gG2jdQrQs8V1qBvW/3EZ2llNiytJHtoJdf6QJPsD6wPk6nNyg4XGleD/+RMkln2SKgVopTZs+EfWsYVa6/PpbsH3cnQJwqVjzztRe+MhSO72SYz4E7mQ0+nzbTm6Ur6hIsdD3ML4CJK7fTKE2pXS29afPL0DY143rjZrP8LLZ7+KV2KmDYyXIA5QyVc79RMFfahdkrQ6oQVJCV6ivBwV6jez/4+bIIf2iXOE/IWMr7s/McZdNMYP1JIQODyRNFF9rt+2d0/axuQwfPl0ER7y+EpMgyCH9onz7/qJLAp3f3JirpMcO8ZVu9Id20q8bY35Nck7KGRBxq0wLYLs7JPNOZTlWnB/Qn9CDSMXidqFDeTCjOO4jNTbtjDLKZLDwTRNguRsn7DULmGWwjbS+LFcAZglmVcZu4eQ59JRYboEyd8+GfYZaKqdcbiI0tk/MVd3hLamT5B9+6S0q8C75M2QprRPmtSulF6tXY9+hhdUOvsn3PcgJeZDkAP7xK54gVqJEkkcZKuHtThXcdNScvmLjX23e66astxSEpYyjgHKzo8g+/aJhSXLkE+Z6C72IhBlD7H/QAErePHMHaHP8jdPghzaJ07tyi+RRIzlyM0eUvVtb6AsVmNxKowBV1Mb8yZIHPskbaI7juTldsZ539lDONPso44SZB9lbNbFJsk4nyQff/KtD8E19qF2RnTolSDHkIqfd0uY6K5N/N6hkPe2YUp/rujLtf8GlSBdi66ojoW59kn6RBK1Q6G1S94b6mpnhCinBAkhJHneLWUiCZ8N3R1XjyZLYQjqHP+vBMFKReZHdQvWXESxT7jZ0KuDKfgLTswyiUMmFseRlVOCUAXWlhUe1Y4g0Z3YziicQ+F71DC10A4BJQhnMcgTcePtE7mdcZ0sSzsHu5HVUYJIBJbaPlE7QyKdKHWVIDFglNsn7v7kIW9VW4IEzFjVzsCghC6jBEFDhSgoeX7aJ7q72d5nNCdI6BpCyoAqxNSnWkQJEluykkR3nLGkzoPFGdOE6ihBUgkzbhx62yhd4JJzKBzOvSUVfpm0qwRJLQhJIu72sd1BYVZ6n5FaeFOOSU+PHa0HiX1S96R2Bg3zCKV1B4kAIroJrn2idgYa4tgFlSCxEcW05+0TbKI7tTMwmCYqowRJBCyqWW+ftCW6m12CBBRmPRdSgvQMeGN3VaDWNtFdync9cpjryMagBMlFYM4+OYHX6lCYi0D8OJQgeclDR5MZAkqQzASiw8kLASVIXvLQ0WSGgBIkM4HocPJCQAmSlzx0NJkhoATJTCA6nLwQUILkJQ8dTWYIKEEyE4gOJy8ElCB5yUNHkxkCSpDMBKLDyQsBJUhe8tDRZIaAEiQzgehw8kLg/7+czJspfpNhAAAAAElFTkSuQmCC" parent="76WRqrTsEyU47UKnnG5--22" vertex="1">
          <mxGeometry x="-0.5" y="88.5" width="43" height="43" as="geometry" />
        </mxCell>
        <mxCell id="76WRqrTsEyU47UKnnG5--27" value="服务集群" style="text;html=1;align=center;verticalAlign=middle;resizable=0;points=[];;autosize=1;" parent="76WRqrTsEyU47UKnnG5--38" vertex="1">
          <mxGeometry x="4" y="138" width="60" height="20" as="geometry" />
        </mxCell>
        <mxCell id="76WRqrTsEyU47UKnnG5--28" value="服务集群" style="text;html=1;align=center;verticalAlign=middle;resizable=0;points=[];;autosize=1;" parent="76WRqrTsEyU47UKnnG5--38" vertex="1">
          <mxGeometry x="95" y="138" width="60" height="20" as="geometry" />
        </mxCell>
        <mxCell id="76WRqrTsEyU47UKnnG5--30" value="" style="edgeStyle=segmentEdgeStyle;endArrow=classic;html=1;exitX=1;exitY=0.25;exitDx=0;exitDy=0;" parent="76WRqrTsEyU47UKnnG5--38" source="76WRqrTsEyU47UKnnG5--13" target="76WRqrTsEyU47UKnnG5--23" edge="1">
          <mxGeometry width="50" height="50" relative="1" as="geometry">
            <mxPoint x="-495" y="227" as="sourcePoint" />
            <mxPoint x="-445" y="177" as="targetPoint" />
          </mxGeometry>
        </mxCell>
        <mxCell id="76WRqrTsEyU47UKnnG5--32" value="feign client" style="text;html=1;align=center;verticalAlign=middle;resizable=0;points=[];;autosize=1;" parent="76WRqrTsEyU47UKnnG5--38" vertex="1">
          <mxGeometry x="49" y="40" width="67" height="18" as="geometry" />
        </mxCell>
        <mxCell id="76WRqrTsEyU47UKnnG5--33" value="" style="edgeStyle=elbowEdgeStyle;elbow=horizontal;endArrow=classic;html=1;entryX=0;entryY=0.75;entryDx=0;entryDy=0;" parent="76WRqrTsEyU47UKnnG5--38" target="76WRqrTsEyU47UKnnG5--23" edge="1">
          <mxGeometry width="50" height="50" relative="1" as="geometry">
            <mxPoint x="55" y="103" as="sourcePoint" />
            <mxPoint x="-195" y="247" as="targetPoint" />
          </mxGeometry>
        </mxCell>
        <mxCell id="76WRqrTsEyU47UKnnG5--34" value="feign client" style="text;html=1;align=center;verticalAlign=middle;resizable=0;points=[];;autosize=1;" parent="76WRqrTsEyU47UKnnG5--38" vertex="1">
          <mxGeometry x="49" y="101" width="67" height="18" as="geometry" />
        </mxCell>
        <mxCell id="76WRqrTsEyU47UKnnG5--39" value="服务熔断&lt;br&gt;Sentinel" style="rounded=1;whiteSpace=wrap;html=1;fillColor=#d5e8d4;strokeColor=#82b366;" parent="1" vertex="1">
          <mxGeometry x="536" y="-487" width="106" height="37" as="geometry" />
        </mxCell>
        <mxCell id="76WRqrTsEyU47UKnnG5--40" value="负载均衡&lt;br&gt;Ribbon" style="rounded=1;whiteSpace=wrap;html=1;fillColor=#d5e8d4;strokeColor=#82b366;" parent="1" vertex="1">
          <mxGeometry x="536" y="-437" width="106" height="37" as="geometry" />
        </mxCell>
        <mxCell id="76WRqrTsEyU47UKnnG5--41" value="API网关" style="text;html=1;align=center;verticalAlign=middle;resizable=0;points=[];;autosize=1;fontStyle=1" parent="1" vertex="1">
          <mxGeometry x="435.5" y="-393.5" width="53" height="18" as="geometry" />
        </mxCell>
        <mxCell id="76WRqrTsEyU47UKnnG5--63" value="" style="rounded=1;whiteSpace=wrap;html=1;dashed=1;fillColor=#ffe6cc;strokeColor=#d79b00;" parent="1" vertex="1">
          <mxGeometry x="523.5" y="-691.5" width="131" height="93" as="geometry" />
        </mxCell>
        <mxCell id="76WRqrTsEyU47UKnnG5--84" value="服务注册中心集群" style="text;html=1;align=center;verticalAlign=middle;resizable=0;points=[];;autosize=1;fontStyle=1" parent="1" vertex="1">
          <mxGeometry x="527" y="-705.5" width="106" height="18" as="geometry" />
        </mxCell>
        <mxCell id="76WRqrTsEyU47UKnnG5--88" value="" style="edgeStyle=orthogonalEdgeStyle;rounded=0;comic=0;orthogonalLoop=1;jettySize=auto;html=1;startArrow=none;startFill=0;strokeWidth=1;exitX=0;exitY=0.75;exitDx=0;exitDy=0;" parent="1" source="76WRqrTsEyU47UKnnG5--63" edge="1">
          <mxGeometry relative="1" as="geometry">
            <mxPoint x="450" y="-506" as="sourcePoint" />
            <mxPoint x="482" y="-520" as="targetPoint" />
          </mxGeometry>
        </mxCell>
        <mxCell id="76WRqrTsEyU47UKnnG5--89" value="获取服务列表" style="text;html=1;align=center;verticalAlign=middle;resizable=0;points=[];;labelBackgroundColor=#ffffff;" parent="76WRqrTsEyU47UKnnG5--88" vertex="1" connectable="0">
          <mxGeometry x="-0.1643" y="-1" relative="1" as="geometry">
            <mxPoint x="1" y="20.5" as="offset" />
          </mxGeometry>
        </mxCell>
        <mxCell id="76WRqrTsEyU47UKnnG5--90" value="" style="edgeStyle=orthogonalEdgeStyle;rounded=0;comic=0;orthogonalLoop=1;jettySize=auto;html=1;startArrow=none;startFill=0;strokeWidth=1;entryX=1;entryY=0.5;entryDx=0;entryDy=0;" parent="1" source="76WRqrTsEyU47UKnnG5--12" target="76WRqrTsEyU47UKnnG5--63" edge="1">
          <mxGeometry relative="1" as="geometry">
            <mxPoint x="450" y="-506" as="sourcePoint" />
            <mxPoint x="534" y="-635" as="targetPoint" />
            <Array as="points">
              <mxPoint x="752" y="-645" />
            </Array>
          </mxGeometry>
        </mxCell>
        <mxCell id="76WRqrTsEyU47UKnnG5--91" value="注册服务" style="text;html=1;align=center;verticalAlign=middle;resizable=0;points=[];;labelBackgroundColor=#ffffff;" parent="76WRqrTsEyU47UKnnG5--90" vertex="1" connectable="0">
          <mxGeometry x="-0.1643" y="-1" relative="1" as="geometry">
            <mxPoint as="offset" />
          </mxGeometry>
        </mxCell>
        <mxCell id="76WRqrTsEyU47UKnnG5--92" value="" style="edgeStyle=orthogonalEdgeStyle;rounded=0;comic=0;orthogonalLoop=1;jettySize=auto;html=1;startArrow=classic;startFill=1;strokeWidth=1;entryX=1;entryY=0.75;entryDx=0;entryDy=0;exitX=0.341;exitY=0.006;exitDx=0;exitDy=0;exitPerimeter=0;endArrow=none;endFill=0;" parent="1" source="76WRqrTsEyU47UKnnG5--12" target="76WRqrTsEyU47UKnnG5--63" edge="1">
          <mxGeometry relative="1" as="geometry">
            <mxPoint x="737" y="-513" as="sourcePoint" />
            <mxPoint x="692" y="-520" as="targetPoint" />
          </mxGeometry>
        </mxCell>
        <mxCell id="76WRqrTsEyU47UKnnG5--93" value="获取服务列表" style="text;html=1;align=center;verticalAlign=middle;resizable=0;points=[];;labelBackgroundColor=#ffffff;" parent="76WRqrTsEyU47UKnnG5--92" vertex="1" connectable="0">
          <mxGeometry x="-0.1643" y="-1" relative="1" as="geometry">
            <mxPoint as="offset" />
          </mxGeometry>
        </mxCell>
        <mxCell id="76WRqrTsEyU47UKnnG5--94" value="&lt;font style=&quot;font-size: 11px&quot;&gt;&amp;nbsp; &amp;nbsp; &amp;nbsp; Spring Cloud Gateway&lt;/font&gt;" style="rounded=1;whiteSpace=wrap;html=1;" parent="1" vertex="1">
          <mxGeometry x="389" y="-458" width="143" height="24" as="geometry" />
        </mxCell>
        <mxCell id="76WRqrTsEyU47UKnnG5--95" value="&lt;font style=&quot;font-size: 11px&quot;&gt;&amp;nbsp; &amp;nbsp; &amp;nbsp; &amp;nbsp;Spring Cloud Gateway&lt;/font&gt;" style="rounded=1;whiteSpace=wrap;html=1;" parent="1" vertex="1">
          <mxGeometry x="388" y="-423" width="146" height="24" as="geometry" />
        </mxCell>
        <mxCell id="76WRqrTsEyU47UKnnG5--96" value="Nacos" style="text;html=1;" parent="1" vertex="1">
          <mxGeometry x="569" y="-623.5" width="60" height="30" as="geometry" />
        </mxCell>
        <mxCell id="76WRqrTsEyU47UKnnG5--97" value="" style="pointerEvents=1;shadow=0;dashed=0;html=1;strokeColor=#2D7600;labelPosition=center;verticalLabelPosition=bottom;verticalAlign=top;align=center;fillColor=#60a917;shape=mxgraph.mscae.intune.device_health;fontColor=#ffffff;" parent="1" vertex="1">
          <mxGeometry x="686" y="-763" width="48" height="30" as="geometry" />
        </mxCell>
        <mxCell id="76WRqrTsEyU47UKnnG5--98" value="服务健康监控&lt;br&gt;SpringBoot Admin" style="text;html=1;align=center;verticalAlign=middle;resizable=0;points=[];;autosize=1;fontStyle=1" parent="1" vertex="1">
          <mxGeometry x="739" y="-765" width="106" height="32" as="geometry" />
        </mxCell>
        <mxCell id="76WRqrTsEyU47UKnnG5--99" value="" style="edgeStyle=elbowEdgeStyle;elbow=horizontal;endArrow=classic;html=1;strokeWidth=1;entryX=0;entryY=0.5;entryDx=0;entryDy=0;entryPerimeter=0;" parent="1" target="76WRqrTsEyU47UKnnG5--97" edge="1">
          <mxGeometry width="50" height="50" relative="1" as="geometry">
            <mxPoint x="653" y="-665" as="sourcePoint" />
            <mxPoint x="752" y="-728" as="targetPoint" />
          </mxGeometry>
        </mxCell>
        <mxCell id="76WRqrTsEyU47UKnnG5--100" value="获取服务指标" style="text;html=1;align=center;verticalAlign=middle;resizable=0;points=[];;labelBackgroundColor=#ffffff;" parent="76WRqrTsEyU47UKnnG5--99" vertex="1" connectable="0">
          <mxGeometry x="0.1358" y="2" relative="1" as="geometry">
            <mxPoint as="offset" />
          </mxGeometry>
        </mxCell>
        <mxCell id="76WRqrTsEyU47UKnnG5--136" value="" style="shape=doubleArrow;whiteSpace=wrap;html=1;strokeWidth=1;rotation=120;" parent="1" vertex="1">
          <mxGeometry x="633" y="-349" width="33" height="10" as="geometry" />
        </mxCell>
        <mxCell id="76WRqrTsEyU47UKnnG5--139" value="" style="shape=doubleArrow;whiteSpace=wrap;html=1;strokeWidth=1;rotation=90;" parent="1" vertex="1">
          <mxGeometry x="753" y="-349.5" width="33" height="10" as="geometry" />
        </mxCell>
        <mxCell id="76WRqrTsEyU47UKnnG5--168" value="" style="shape=doubleArrow;whiteSpace=wrap;html=1;strokeWidth=1;rotation=45;" parent="1" vertex="1">
          <mxGeometry x="807" y="-349" width="45" height="10" as="geometry" />
        </mxCell>
        <mxCell id="76WRqrTsEyU47UKnnG5--169" value="文件存储" style="text;html=1;align=center;verticalAlign=middle;resizable=0;points=[];;autosize=1;" parent="1" vertex="1">
          <mxGeometry x="832.5" y="-356" width="60" height="20" as="geometry" />
        </mxCell>
        <mxCell id="76WRqrTsEyU47UKnnG5--175" value="agent" style="rounded=1;whiteSpace=wrap;html=1;dashed=1;fillColor=#fff2cc;strokeColor=#d6b656;" parent="1" vertex="1">
          <mxGeometry x="759" y="-540" width="48" height="21" as="geometry" />
        </mxCell>
        <mxCell id="76WRqrTsEyU47UKnnG5--183" value="" style="edgeStyle=orthogonalEdgeStyle;rounded=0;comic=0;orthogonalLoop=1;jettySize=auto;html=1;startArrow=classic;startFill=1;strokeWidth=1;entryX=1;entryY=0.5;entryDx=0;entryDy=0;endArrow=none;endFill=0;" parent="1" source="-dllcQzm70aawtmvtiuD-17" target="76WRqrTsEyU47UKnnG5--175" edge="1">
          <mxGeometry relative="1" as="geometry">
            <mxPoint x="848" y="-633" as="sourcePoint" />
            <mxPoint x="665" y="-612" as="targetPoint" />
          </mxGeometry>
        </mxCell>
        <mxCell id="76WRqrTsEyU47UKnnG5--184" value="收集JVM信息" style="text;html=1;align=center;verticalAlign=middle;resizable=0;points=[];;labelBackgroundColor=#ffffff;" parent="76WRqrTsEyU47UKnnG5--183" vertex="1" connectable="0">
          <mxGeometry x="-0.1643" y="-1" relative="1" as="geometry">
            <mxPoint as="offset" />
          </mxGeometry>
        </mxCell>
        <mxCell id="76WRqrTsEyU47UKnnG5--206" value="" style="edgeStyle=orthogonalEdgeStyle;rounded=0;comic=0;orthogonalLoop=1;jettySize=auto;html=1;startArrow=classic;startFill=1;strokeWidth=1;entryX=1;entryY=0.185;entryDx=0;entryDy=0;exitX=0.032;exitY=0.162;exitDx=0;exitDy=0;endArrow=none;endFill=0;exitPerimeter=0;entryPerimeter=0;" parent="1" source="76WRqrTsEyU47UKnnG5--194" target="76WRqrTsEyU47UKnnG5--12" edge="1">
          <mxGeometry relative="1" as="geometry">
            <mxPoint x="858" y="-623" as="sourcePoint" />
            <mxPoint x="817" y="-519" as="targetPoint" />
            <Array as="points">
              <mxPoint x="903" y="-494" />
            </Array>
          </mxGeometry>
        </mxCell>
        <mxCell id="76WRqrTsEyU47UKnnG5--207" value="日志收集" style="text;html=1;align=center;verticalAlign=middle;resizable=0;points=[];;labelBackgroundColor=#ffffff;" parent="76WRqrTsEyU47UKnnG5--206" vertex="1" connectable="0">
          <mxGeometry x="-0.1643" y="-1" relative="1" as="geometry">
            <mxPoint x="-17" y="12" as="offset" />
          </mxGeometry>
        </mxCell>
        <mxCell id="76WRqrTsEyU47UKnnG5--245" value="" style="shape=doubleArrow;whiteSpace=wrap;html=1;strokeWidth=1;rotation=90;" parent="1" vertex="1">
          <mxGeometry x="685.5" y="-348" width="33" height="10" as="geometry" />
        </mxCell>
        <mxCell id="-dllcQzm70aawtmvtiuD-2" value="" style="shape=image;verticalLabelPosition=bottom;verticalAlign=top;imageAspect=0;aspect=fixed;image=data:image/png,iVBORw0KGgoAAAANSUhEUgAAAMgAAADICAYAAACtWK6eAAAVsElEQVR4Xu2de7xd45nHf88+l+QkQUyCyvXstaUUZTpCkGSvfXzohUwZSlvGra1BaRUzalCdjlbLmKnqTJVRnapGqdu4lIly9t4nTNwvKYPYaycSiSaEiJxcTvZ65vOeI0Sa4+z1rvfde12e9U985H1u32f9cvbaZ73PS5BLCAiBQQmQsBECQmBwAiIQuTuEwEcQEIHI7SEERCByDwgBPQLyE0SPm1ilhIAIJCWNljL1CIhA9LiJVUoIiEBS0mgpU4+ACESPm1ilhIAIJCWNljL1CIhA9LiJVUoIiEBS0mgpU4+ACESPm1ilhIAIJCWNljL1CIhA9LiJVUoIiEBS0mgpU4+ACESPm1ilhIAIJCWNljL1CIhA9LiJVUoIiEBS0mgpU4+ACESPm1ilhIAIJCWNljL1CIhA9LiJVUoIiEBS0mgpU4+ACESPm1ilhIAIJCWNljL1CIhA9LiJVUoIiEBS0mgpU4+ACESPm1ilhIAIJCWNljL1CIhA9LiJVUoIiEBS0mgpU4+ACESPW3Ssyst2AK1z4Ps5MHWCsD2YR4JoJMCjABoJ5nYQesG0tv9PcC+IeuFjDYiWAPwiWv0XMX2X5dEpLBqZiECi0Yehs+iujkarPxU+7Q3gUwDvBsauIBo1tHG9K3g1gOfAeBlETwI8B25uQb3WSVwnAolyV8veF+DzUQBmgmh8U1JlroDoPmT4f9DR8RCmjuttSh5NCioCaRL4QcOWq0eA/aMBOgLAiKilB2AOQLdhpH8zpuZWRTA/oymJQIzi1HQ219sVNXwdwPEAttf00mAz7gPjD6DMzRi27R3Yf8w7DU6gIeFEIA3BPEiQUuUrAL4C0PRmpmEkNuN3IL4Ebm6+EX8RcSICaXQjnqhshzV0JsBnAbRDo8Nbj8e4B5S5GG7n09ZjNSCACKQBkPtDzPN2wgY+B4zTAdqmUWGbGGcOfPouurLzmphD6NAikNAI63BQqvwQoPPrWJm8Jcx3oLXtTMyYtDSOxYlAbHatvPCv4PuzQdjVZpjI+2asAfA9cPbH6KKNkc93swRFIDa61V0djgxfAsbZILTYCBFLn4yXgMzJKHT+b1zyF4GY7lR3ZSoymA3QFNOuk+OPr4GbOy0O9YhATHWJuQWl6gUAXwyiVlNuk+uH58PPfB5d2YVRrlEEYqI7cyuTUKNbAexrwl16fPBqEE5GPndbVGsWgYTtTE9lFmq4yexLg2GTip39z+A6Z0QxaxFImK6Uva+BcQ2ATBg3YttPoAct2xyGGTuoN4ojc4lAdFtR8q4AcK6uudhtlcBzaGvrwoETV0aFjwhEpxMl72YAx+iYis1QBHgB/GEHoWvCkqFWNuLvRSBBKA98U3UPCJ8NYiZrAxNYCr/NRdfEVwJbGjYQgQQBWvLuBHB4EBNZq0mA+Q200gzMcF7S9GDETARSD0b1k6NcvR3A5+tZLmuMEVgKykxFvnOZMY8BHYlA6gEmzxz1ULKzRr2e0tE+HdMmvGknwEd7FYEMRT3Nb+IOxaZRf894Fu1tB+DAiWsbFXJTHBHIRxEvVU8E+L8a3RSJt1UCZbiO22g2IpDBiHdX90fGLwPU1uimSLzBCPCVcHNnN5KPCGRrtLurnSB+GoTRjWyGxKqDAPEs5HP31rHSyBIRyJYYmQnlqtomup8RwuLELAHG22hv2xMHTnzNrOOtexOBbMml5F0C4KJGwJcY2gQeQz67P4hY20OdhiKQzUGVvDyAUp3sZFlzCXwfrvMd2ymIQDYRVuN43sUfQTTBNnTxb4gAYW/knecMeduqGxHIJiylypUAnWUTtvg2TID5CRRyVjepiUBUzx5+NYe+jS/JgAXDN3BD3NGpcLPX2golAlFki97dIMyyBVn8WiSgvtXqaN/F1qsoIpCiNxOEssUWimvbBBi/RsE5wUYYEUixMh9Ee9qAKz4bSKClZU/MmPy86YjpFog6oEZNJZcr/gSYb0Ihd6zpQtItkFLleYB2Nw1V/DWFgI9WOJjuLDIZPb0CKVcPB7PaIShXYgiYn9iYXoGUvKcGDsOUKzkEeAP8jvHoGveGqZrSKZDiwi6Q/5ApiOInQgSIL0c+921TGaVUIJXZIPqyKYjiJ0oEeDnyzs4g8k1klT6BzHtzW6x/+w3ZCGXi9omoD84cikLnfSayS59Ait43QLjKBDzxEVUCPBtu7jgT2aVPIKXKcwB90gQ88RFRAox1GF8bjSlT1ofNMF0CKS38BOC/EBaa2MeAAOF45J0bw2aaLoEUq98E8U/CQhP7GBBg3I+C87mwmaZMIPLWbtgbJjb2zBsx3h8V9mNWegQyMHh6FQgjY9NkSTQsgc/AdeaEcZIegZQXTQfX5oaBJbYxI8D4FxSc88JknSyBPOxNxgaeiJbMGHD/TKvRYN4WxC1gmibHFoS5VeJoy0/CzU0Nk3l8BdJTnQbf7wKoC4yPg9AZBoTYJpRAW9uYMCdWxUsgpYUHgf3TAP6cHJqZ0BvaeFl8FNycOrpC64q+QNSrIetWnQjgDBB21apSjFJMgP4JbvZ7ugCiK5C53q6o8dkAHQ9ghG6BYpdyAsy/RSGn/WJq9ARSqkwB6KcAPpPy1n5QPvMrIKwCaB9hEpRAuAf16AikuzocGb5Q5uJucQMwfReF7D/3/1/1qgz7d8hHzSAi4dVwc9sGsdh8bTQE0l39SxCrxss3UR/qDp+NfO7KDzW39NpE8Pr/k194BrjlfdoZXdnXA1i8v7T5Ail6R4OgTnGS54wPd/AGuI76cuLPr5Knps+rKfRy1UfAhetozT5rrkDk/L9B2stPws/MQFd23VYXlJftAF67vL57Q1YBdBLc7K90SDRHIM9zO96o3iJnjm+tZbwCfmavIT8SFL1bQDhap+mps2E+F4Xcv+nU3XiB9G95XXU/gAN0Ek60DaMG8AEo5B4fsk4ZPDEkos0WaJ8l0liBPLL4L9C3oUeGtQ3SW6LTkc/+vO7OF70X5Rutumj9O1znG3Wt3GJR4wTy7Osj8XbvIwD20kk0BTa/guucFKjOcuVbYPpxIJtULtbfo94YgTyyuAMb+h4CYf9U9mfooh+Dn52OLto49NLNVsxdsQ02vrMCRMMC2aVtMfN9KOQO1Sm7MQIpVe4B6DCdBJNvox7KO3bXngZYrFwPopOTzylUhY/CdbT+cbYvEPkY8BGd5T4wptf1UD6Yl7K3HxiPhrp9Em+s/7qJXYGoPRs1fliONhv0DjwRrnND6PuzWFGHj+4R2k9SHTB3o5A7SKc8ewLp5lZkvApAk3QSS7wN89Uo5L5upM6y9zUw/tOIr2Q6uQuuc7hOafYEUvT+AYTLdZJKgc1jyGcPMDU/FupLkL4NrwOk/VJeopkzbkTBUdsmAl92BNK9dCwyaz2AtgmcUfINlsEfvpf2Q/lgfEqe2iJwZvLxaVQY4qe1HYGUKj8H6FSNUpJvQpl9kO9UZ5OYvWRq5Efw5B/Bzf2jDnDzAuleMgGZDYt1kkm+DR8HNzfbWp0lrwQgb81/bB3T+XCzl+mkb14gRe8qELR+ra9TQHxs+Cdwc9+ymm+x+mUQ2xOg1eQtOlcvdeadW3UimBXIo0vGYN36pQC16ySTWBvmuXAd19hD+WCgBqZH/gmEMYllqVUY7wU3N1/H1KxAit53QBjYHirXewR4MTKte2Pm5LcagkT22Pw55rHZYdiDNujwNy2QhSBM1kkkoTZr0dKyr40D7gflpbbkYr06Ctlsb+PaIMZCFJysbvrmIPZUDoZPD+gmkkg7oiOQz/53w2srVn4PotCj/xuet52Ac+A62hNyzAmk6N0AdWiJXAMEDAxO1kbZU5kFn+7Wtk+SIeOnKDjf1C3JpECWgfAx3USSZccPIu8cAiJuSl3MhFJ1qfSjn36o993MCKR/CiJebMrNELmgvBjDRu+J/ce809TUZPLJAH7q2BH5nVfo9sKMQErVUwGuf6uobrbRt2v8Q/lgTOZ5O2EdLwFRa/SxWcpQTaQs5KaE8W5GIEXv1yD8bZhEkmEbbpK4cQZpn3yi3nAuOH8XhqsZgZQ89W7Rp8IkEntbwqXIO2p0anQudVwE/Aejk1CDM2E6FoXsTWGimhFIsbIu3fui+UG4uYPDNMKabbGyAES7WPMfZcchnz/6H2FC15f2lxPV59zho/dp+kP5YI1M7ZZnfgpuLvQ0/PACKVddMBdDCy2ODhhrwDQVXdnofoPXs2h7+LWVccQbKmfmc1DIhR6JFF4gPdXPwuf7QhUTT2NGhg7FzKyaEhntq1j5JYiCzdyKdkVDZefDH76TiU1p4QVS9P4ahLuGyjhxf8+4DgXnlFjUlbbJJ4z7UXCMvGoTXiClypEA3RaLG8Vkkn77RHRNWGLSpVVfqZp8Ym5jmghE667kFXBzO2qZNssoNZNPeDX8zI6DHh0RkH94gRS9mSBoHU4SMNeILR82Ce74+GwtTs/kk/+A6xgbXhFeIGl9D4vxAArOpyOm2o9OJw3DNNraJuDAia+Z6kt4gTxR2Q5r6G1TCcXKD/MbAz896WkwrwQybyGDlfD9leD2tzAMK3HgxOh8xVr2vgDG72LFOFCyfA3c3GmBTIZYHF4gKkDJa85r3SZJ2PWlttu+1S8iIiWY9/4bc61OOdmypqR/Jd/CkzEj96rJVhoSSGWRjBjVaov2wS5a0UqVKwE6S8s2+kbXwnWMz2IzJBDvMQD7Rp9hxDJkOguF7FWBsipVpoChXg59HURLAai9DuqIY7Vh7U8gWoKa/yZo+Ovvf4nQvXwUMu+qkUPJPRnXwk8P1RczAil6d4MwK1CjZTGAzGFwO38fCEXw7bQvA/h4oBhxW8y4BAXnYhtpmxFIyfs+gGi96m2DlmmflBmHfOeyQG5L3rkArghkk+zFVYzN7qY71mcoNGYEUl40HVybO1Qw+fvNCDAWoeB0BmZS9K4FIR6vuAQuTsOAqIB8Vo1ctXKZEYhKrVh5G0TbWckymU5/A9cJvguz5KmDUOUI7YF74ma4zpds3h7mBFLyfgvgizaTTZRv9VMg71wXqKYnlo7AmnVrAtkkdfHAVoNd0JVVX1BYu8wJpFw9Ccy/tJZp0hy3tY0J/EtEGc73wV3AOAYFx/ovPc0JpP/QnHXa41WSdv8PUc/jcJ39Atdc8tTXtBcFtkucAV0PN/vVRpRlTiAqWxneUF/PmC9AIffD+hZvtqrkzQMwLbBdogz4BbS1T8WBE9c2oiyzAil7PwDjgkYkHuMYDJ/GBf7s/Mji8ejri8/+ExsNYqxDW+uemD6pYsP91nyaFcjD3mRs5AUAtTWqgNjF0X0LuOhdAMIPYlev0YT5q3Bz1xt1OYQzswJRwcrev4JxTiOLiFmsL8J1bgmcc8l7FsBege2SY2B0n0e9WMwLpH+KxsaFciTxVlvwMvLZ3QIPte7x9oaPZ+ptauLWqT3mbvbQwNwMgDAvkP6H9eq3Af6RgfyS5YIzR6LQeUfgotJ9tMTTGFc7AFOmrA/MzYCBHYF0V4eDfDXRb4KBHJPiQu+r3fKyHcBrlycFQqA61FC+jmH7Y9qENwPZGVxsRyAqwaJ3PAg3GMw13q4I05B31LaAYFdqH855OfzMNHRlFwYDZna1PYH0H+LiPQeiPc2mHENvjBtRcIKfvjXwk3gxiMbGsOowKb8MDDs4CkMx7AlE4Zm7aA/UaupfzRFhaMXblt9BS9snMGOS2twU7CpWzwPxZcGMYr5aHZk9CrMwNbcqCpXYFYiqUL0/VKP7QWiJQsENzoFBfAjyueBHEKTypwffjpHOlzCV+hrcp0HD2ReICp3WE6gYF6Pg6G1zTd2zB18GN3d+VISxKY/GCERFS9svEJnvQCF3pFbDH341h419LwDUrmUfJyPmVaCWYwNvPW5QjY0TyMDJq3elYu86Yx5GZfPaHxVK3qMAgr/t26CbxlgYxrPg9llRnnHcOIEoqv3jL/vU9sjkTkBhPIOWloMwc7KahRX8KntnQp3tnfzrKrhO5EcQNVYgqukDu+JmAzg8cfcA850Y1XEcpo7r1aqtvGh3cO15Ldu4GKlplJnMKchn74xDyo0XiKKiPm6Vq+rhNTmTUMIe4rlgwTC8lnkSRHvE4cYJnCOjBsLVGLbdhZE9rm4rRTVHIJsS6Z8Vy7+J98MobwDRccg7twa+aTY3KFZ+BqLTQ/mIrDGrQXcnwc3Nj2yKgyTWXIEMfLu1H5jvBihe5230A+XlYMxCIfd4qMaXK0eBKZzAQiVgybh/uHfmIrjZayxFsO62+QLpF8nCneHX5sTqtRTmPyLT8unAg9+2bGnPIge1jc+CaJT1bjcuwDIwX4H29qsbtTXWVmnREIiq7nluxwrvDIAuBGGMrYLD++XlQOZSjO28OvQ0P/Wt3oa+p0DYLXxeUfDAiwG6DONq1zXr9XTTFKIjkE2VzV2xDWqrzwPj70EYbrpgfX+8GsClGNlxlfa3VFsGn1uZhI04H6ATQBipn1uzLflJgK6G6/yi2ZmYjh89gWyqcJ63E9bxdwGcAqJW04XX7U8NKANdBcbl6MraOSio/70r/A2I1VHNB6up1nXn17SFvBxENwItv0B+8gtNS8Ny4OgKZFPh/a9dbLwUwDGWWXzgXomCcC9At8MfeS+6dny3YbHV9JING05471zzaE1lZ1YcHkAmc0Ncfo8Rtm/RF8j7QnllR2ykQ8D9/8IebH63ovpGiu4CZe7A2Ml/CP18EbYzyl7949DXlweQB5H60zHhtn4frAYB9gCZMoh6MHPyMyDy67eP/8r4CGRL1uq3zr5/MOB3AejSGpytJqyrnxLs346uXPSn03dXPwZi9ZrOJ0H9Z37sBsauIIwOdSuqeVOEl8F4CcTq45I6U2R+HH9vEYrDVozjK5Ati1Gf41szHWjJjMB6dKClbwSIOsAYjhrWo4V7UWvrRRv3oq/Wa+15wnSH6vGnntfWZ3IARoNqHfBJ1T4C5A/8N6gVxL1g7kUm896f3Atk3oVPi+B2VusJk8Y1yRFIGrsnNVsnIAKxjlgCxJmACCTO3ZPcrRMQgVhHLAHiTEAEEufuSe7WCYhArCOWAHEmIAKJc/ckd+sERCDWEUuAOBMQgcS5e5K7dQIiEOuIJUCcCYhA4tw9yd06ARGIdcQSIM4ERCBx7p7kbp2ACMQ6YgkQZwIikDh3T3K3TkAEYh2xBIgzARFInLsnuVsnIAKxjlgCxJmACCTO3ZPcrRMQgVhHLAHiTEAEEufuSe7WCYhArCOWAHEmIAKJc/ckd+sERCDWEUuAOBMQgcS5e5K7dQIiEOuIJUCcCYhA4tw9yd06ARGIdcQSIM4ERCBx7p7kbp2ACMQ6YgkQZwIikDh3T3K3TkAEYh2xBIgzARFInLsnuVsnIAKxjlgCxJmACCTO3ZPcrRMQgVhHLAHiTEAEEufuSe7WCfw/bCCgFNJVZToAAAAASUVORK5CYII=" parent="1" vertex="1">
          <mxGeometry x="852.5" y="-325.5" width="47" height="47" as="geometry" />
        </mxCell>
        <mxCell id="-dllcQzm70aawtmvtiuD-3" value="OSS 存储&lt;br&gt;（包含文件存储和html代理）" style="text;html=1;align=center;verticalAlign=middle;resizable=0;points=[];;autosize=1;fontStyle=1" parent="1" vertex="1">
          <mxGeometry x="806" y="-285.5" width="165" height="32" as="geometry" />
        </mxCell>
        <mxCell id="-dllcQzm70aawtmvtiuD-7" value="" style="shape=image;verticalLabelPosition=bottom;verticalAlign=top;imageAspect=0;aspect=fixed;image=data:image/png,iVBORw0KGgoAAAANSUhEUgAAAMgAAADICAYAAACtWK6eAAAXQElEQVR4Xu1debwcVZX+TvXLxhIIIeyQ11WELSMDEgVCXlc/GRYBRZYZEFFEAREFZJVFATcwqAjIMoPgICIqiw7rDwbkdXVCWAwOywAB0tUvBAIEYoAAWV+d+d33EiYJ/V7fqq7qvtV16i9In3Pud75zv1e3qu5CkEsYEAYGZYCEG2FAGBicARGI9A5hYAgGRCDSPYQBEYj0AWEgGgNyB4nGm3hlhAERSEYKLWlGY0AEEo038coIAyKQjBRa0ozGgAgkGm/ilREGRCAZKbSkGY0BEUg03sQrIwyIQDJSaEkzGgMikGi8iVdGGBCBZKTQkmY0BkQg0XgTr4wwIALJSKElzWgMiECi8SZeGWFABJKRQkua0RgQgUTjTbwywoAIJCOFljSjMSACicabeGWEARFIRgotaUZjQAQSjTfxyggDIpCMFFrSjMaACCQab+KVEQZEIBkptKQZjQERSDTexCsjDIhAMlJoSTMaAyKQaLzF4zWzsgE+7PgncN8OADoBbAJgLJg3AtEiMC8A4U0QvQbiWVgxYha6t3o1nsYlig4DIhAdluKy8V7bGrx0fwAFEBcA2iZC6IUA94AwDZx7AG7nCxFiiIsmAyIQTaIimz3+6lgsXnoMCIcBNDlynEEd+VmwdTto+H/C3XJu/PGzHVEEklT9Z85bB+8vPRMUnAnQ+kk18/9xeRmAazFyxI+w+1YLkm8vGy2IQJKoc6lyLAhTARqXRPghYzK/D9ClYPoZuvNLmt5+mzUoAomzoNNf2QIrll8Pos/GGTZaLJ4LWGfBzf8pmr94KQZEIHH1A6/yJTBdBcKGcYWMJQ7jbqzHX8Yk591Y4mUsiAik0YJPf2t99C36NYAjGg2VmD/jTeToYHTlH0+sjTYNLAJppLBqSNW3/EGAdmokTFN8+59Ncvui2PloU9prk0ZEIFELWZ6zE7jvIQCbRw3RdD/GB2DeH93O9Ka3ndIGRSBRCveYvymW4CkQNovi3mKfD0HYEwX7mRbjSEXzIpCwZeqpjoTFaiy/c1hXY+wZC0C8J1znZWMwGQpEBBK2MKXKH0B0ZFg34+yZK+gYvSumjFtkHDaDAIlAwhSj5B8PwnVhXIy2Zf4Lis6hRmNsMTgRiG4BvN4dgeB5XfPU2BEdi0L+xtTgbTJQEYgO4cwWvOqTIOyiY54ym4UIyEZ3/p2U4W4KXBGIDs2l6tkgnqpjmlKba+Da30op9kRhi0Dq0TvwSrcXhJH1TFP9e0A7ojs/K9U5JABeBFKPVM//MYDz65ml/3e+Ba7zpfTnEW8GIpCh+Bz45jEPwJh4aTcyWoBg2Pbo3nq2kehaBEoEMhTxZf84MNRExIxcfAVc5zsZSVYrTRHIUDR5fhlAlxaT7WG0EIX8xiAK2iOdxrMQgQzG4Yy5W2L58uztIGLx59Dl3NN412qPCCKQwepYqpwGosvao8whsmBcj6J9fAiPtjYVgQxWXs+/H8B+bV39msnxK3Cd8dnLu3bGIpBavDDn4PkfgGhEJjtKMGyCvM0aqLwIpJYCyv6nwcju8lSmo1DM/yGTfxzWSloEUqsXeP5XAPw2sx2E+IcoOBdmNv/VEheB1BZIRr6eDyqBW+Ha5m5C0UTlikBqCqTye4COamIdzGqKeSaKzqfMAtUaNCKQ2neQ2wG1l25GL+bXUHS2ymj2a6QtAql9B7kDoAyvtONlcJ1svsGTh3SNv4teJeMCAZBbf7SsV5fXvLXVUvJ/B8LRGlJqX5Mt+kZiwoSl7ZugXmYyxKr9DHI1gJP0KGxLqwCunWvLzEImJQKpRVipejGIzw3JZfuYM7+NotP8oxsMZFAEUlsgp4D4CgPr1RxIjKdQtHdtTmNmtyICqVWfaZV/QUAPml26BNEx/xFF54sJtpCa0CKQWqUq924ODtRS22xeTBeimP9hNpNfM2sRyGC9wPPVOX8bZbKTEH0Bhfydmcx9raRFIIP1gpJ/GwiHZ7CTMEZssCH2GPteBnP/WMoikEEFog7ipN9krpMwT0fRydI6/CFLLAIZjB61YdxSvJFBgZyHonNJ5vIeJGERyFA9wfNLANwMdRZGjjsxxXklQznLHSRysdXJtaCbI/unzZHxIIr2vmmDnSReuYMMxe5zPBxv+fNBtEGSRTAo9hFw7VsNwtNyKCKQeiXIzrSTKlzbrkdH1n4XgdSr+GMLRmPJO6+0/12Ej4br/L4eHVn7XQSiU/FS5VwQXaxjmkobxoso2jukEnvCoEUgOgTPmDsKy5Y9CyJHxzx1NmxNRrHz0dThbgJgEYguyV7vZCCY3oZ7if0crn2WLg1ZsxOBhKl4uTIVTGeHcTHaljELRXtHozG2GJwIJEwBergDVvWhtvh4qBZFDaNJ2MueE4aCrNmKQMJWfPpb66PvvScBmhDW1Rh75qXIdeyFrvFPGoPJUCAikCiFmTbHRl/fIyBsFsW95T6Mz6No391yHCkAIAKJWqSeV7cCLe0B0bZRQ7TAbzFgHQS38+EWtJ3KJkUgjZTt8VfHYsmyGQC2ayRM03wZJ6BoZ+jMxcaZFYE0wuEj/niswAsARjUSpnm+/DwK9s4g6mtem+luSQTSSP083wNQaCREC3x/Atf+XgvaTWWTIpCoZUvrEdGMPuSwG7rsp6OmniU/EUiUaj8yexMspwqI1ovi3nofGWrp1kAEosvU6nYl/24QDtJyZX63aTOBmV8FkeaxBfwDuM5FWjlk2EgEErb45eqRYNY7v49xAcblp+Lt3kOA4HiAPhP7XC51lgfoFli4GQX7GXj+EwD0Dr8JaFd0558KS0GW7EUgYao9Y+5GWLb8JRDG1nerMYxRG0EswecBfA6EvQGsUz9OLQt+D4w7QLmbURhfAlHwkZX6iBmseAGg4fVjy1CrHkcikHoMrTG0qtwCIr0tOcnaDYXOvw8Zvqe6ByjYE6A9QegE8xgQqc3qNoKaKwWaDXAvSD3voBeBVQFzFd353iHjev6ZAH6mlZq6yxXtH2nZZtBIBKJb9HLlQDDdo2fOU+E65+jZJmDFTChX1THW9YdazCtAuZ3hdqrvOXKtxYAIRKdL9C+7fVcNrTata848G+vZO2ESLa9rm6RBmKGW2s3dze+2xlAtSWwpii0C0SmWV70B4K9pmDKYd0fR+ZuGbfImnn8GgJ9rNvR9uLY6/lqu1RgQgdTrDuGOQrgKrn1yvZBN/V33rZYMtWqWRQQyVG/tqY4EBbNBtGXdTq1et7K1LbrzS+raNtNgYGr+cyCMrNusDLU+RpEIZKheU/KvBEHzjmDtbew08lLlNBBdVlcgyoBZ9uaVIZZGVyn7nwbjMb0Pe/QbuPmva0RtnYnuUAu8DMjtIm+1Bkold5BaXXYmD8MH/nN6y2p5PkZsOMH48zRkqBXpj5MIpBZtXuWnAH1Xj1HrQLid9+nZttjKq54K8OV6KOgcuPmperbtayUCWbu2PdVdQDwThPrnhKfxsEuvMh2gvep3aV6GjmE7Ya9tKvVt29dCBLJ6bZlz8PynQTRRo+T/gJXbFl3jF2rYmmMyvbINVtCLWm+1gCfg2rubA775SEQgq3Ne8r8Pgt7prmpOViH/x+aXLIYWS/7JIFypGeksuLbux0bNkOkxE4GsqlV5zk4IVqi7R0f98vG9cB299SD1g7XGQoZaWryLQFbR5Plq5u2udVlTC6CsdSagsPlbdW1NNpChllZ1RCCKplLldBD9Qosx4Di49g2atmabef63AFylBZL5dBSdX2rZtpFR+gRSfn0csGw78IpNwTQW4I1BYMBaCOZ/ANbbyNEcdI33terUP+u173+1tu5hPISivY9W3LQYlSoPg6hbA+5idHR8ou5brbK/MwJWM4M/CeZdQDQWjDGr7UI5D+AFYFInCM8C4UWw9TyYHzVumo7xHwoHppm7sHgKAkwGYWeARmsUc8BEHQxDmAnwfVgX92KS8+7HfD2/DKD+ueCMJejg7dvuBNiBvb2e11vdyI/AdaasweHMygZ43zoA4ANAOBDAGO36fNzwURB6ANyJgq2WDrf8Mu8O0jNvY1hLjgDzYZp/2UKQyA+DrCtRyN/Z7+RVTwD4P7QCqDlZBVtvOKIV0CCjcvVEMF+rhYhxCor2r9Azd1vQsvNB9FUtv7BGjF5YfBOo4/JWvko3RyDl3s3BfRcAdGJYLiPYq9VzV4P5p1pb9zBPR9Gpf5eJAMQYF6/y15WbStSDtBjMD4DoC/UMY/ldvRQBpmL48MsxeevFscQMEaT1AlHHCQSLzkGA0zU/XoVILy5T3g6u83Jc0YyMo95q9ZH6wxFxI4mEs2K8AcL3mv2CpLUCKVW+CSK1ik1tVGDmxfRdFPOXmgkuZlRhhpwxNx0i3DNgPq5ZqzZbIxD1nEFL1OZre4QgpvmmWVxApD/Uan49VrXYv/qRLkIhr4bIiW7E3XyBlCqfAtF/AdiidQxrthx0fALd26hXwNm5vNe2BpbOMnaotXolmHswfPiBST6bNFcgXuVQgO5IRW8jXIaCrTY9yN5VqlwDom+mI3Gegdzo/TFl3KIk8DZPIKXq2SBOz/oCtXFbDnuhy3kpCeKNjen5/wbgT8biqw3scaw78jOYtMWHceNujkDCrImOO8PG4r2OgCbX3cmwsTbM8S71fhYI1LNh/bUw5qAeQMIoYb38vnHvR5a8QBTpFKRjxV2toqsPVsOHTcHkrV8zrU/Eiqdc3Q/M98cas9nBmP+ConNonM0mK5Dp/vbog5ola+a7dX0mXwKNmpL6GbyD5Vvyu0BQU27SfzHOR9G+OK5EkhPIyy+PwDzr7wDtFBfYlsZp16/poXasb2kFdBsPQLkCCuMf0XUYyi45gXi+muN0QhwgjYnBfBKKjt6cJWNA1wFS8m8C4ctpgauHk+di3VE7xPHQnoxAvN4DgOBevWRSZMX8PjowsW1m9IbbVjVFheqfp34xCvb5jYKOXyBPv7Eu3vnAB2iTRsEZ6d8uQ60w26oaWYh6oHg5MNKBu+XcepbNHWJ5/q8AfLsRUOb70jfg5q8zH+cQCMOtokxnquqovKJzVCPg472DqNV+/OGresd/NQK7xb6MBXDzmyY9DyixLNUBO57/iv6Bn4khSTpwgGDY9ujeenbUhmIWSOUHYLogKph0+dGRcPNp++I8QLHnq3MSBxaNtfvF+B2K9leiphmvQEr+23oHXEaFa5SfB9cuGoVIF0waZuzq5qJjF9AYdOff0TFd2yY+gaRpImIUpmr5dHRsW3cTg7jaiitOT3UHWJyx8wjpRLh5vaXVa/Ecp0DuACjWz/xx9Ynk4vAVcJ3vJBc/gcgl/zoQjk8gsrkhG3jzGI9A1LLZvkXvmctQUsh4Llxnm6SiJxLX8xcYvYIzkaQBrMsb1tzVpk578QgkSw99axOa69gSU7aZl1RdY407sAdYRndr58PgOn8Oy2dcArkCwClhG28Le+LDUXDSsQisXD0S6ttANq9r4NpqJ8lQV1wCeRpQm7pl8ErTysOy/wswTs9gldSCkY9veqdBRDwCKfkrUrnIRoOguibqHMOivWddOxMMSpVpIFpzZ0QTcDUFA78H19kgbFONC8TrzQOB3j64YdGlx74MZgukznwkC9z/X9bA1q5srflvrHYSHrBlGrAhXumz8v/7f19p1//7qpgq1kq/fn/VBg+01d/mSn9gVHqoayLSkcM3xu5bqZcU2lcMAvH3BfCAdotiKAy0igErNwld458M03wMAknRTiVhmBHbdmTgYLj2XWESa1wgZf9wMG4L06jYCgMtYUBtZVTI/3uYtkUgYdgS23QzwHweis4lYZJoXCCl3kNAQegPMGFAiq0wEAsDEY6wiEEg/j4g/HcsCUgQYSBJBoiORSF/Y5gmGhfItOruCPixMI2KrTDQEgbUmSarDk/SBBCDQCrbIaAXNdsTM2GgdQxE2Iy8cYGodD2fW5d1q1vmRbAstULP/Cvgy7SOujY/k2gIXTt0fw/tUBNZqTIbRE401Gn3ijbHpyVZp2rX9tgZqsK17bBR4xGIV7kXoAPCNt4W9urwy6JzUipy8arfADjUd4BU5KUDMuIOJ/EIpOSfB8JPdHC2nw19FW7+t6nIa5r/zwjwVCqwxg0ywkdCBSEegWT5TVaECXBx1z5UPK8yH6BxoXzawZhyE1EYr86DD3XFIxDVpFd5F6DRoVpPvTE/CdeZlKo0vOoNAH8tVZgbBct4EUV7hyhhYhSIfz2Ar0cBkV4fOgduPj2nZimi035eS5TOwnwGio56gxf6ik8g7XTGhC6NHcGm2Gvb+brmxth5lTfbdu/kWiQbsS9W/zDLVwun8sZ0hESB8L1wnYMSbSKp4F7lEoDOSSq8UXEZv0bRjnwMR3x3kAGBqEXxVxlFUFJgLNoDXfnHkwqfaNye6mawgjltv4eyOrnQ4h0aOYg1XoEMiERtgbN5ogVueXB+GK6zd8thNALAq1wO0KmNhEiB711w7YMbwRm/QEqVk0B0dSOgjPcNaE9059M9QfMxf1MsRRXtvH49oB3RnZ/VSH+KXyBq84Ky/2zbnE24NruMm1G02+PIspJ/FgiXNtKBjPVl+iWK+Ya3OIpfIIqxctUFc8lY8qICU0ewWbntUOh8PWoI4/xK/gsgRPpGYFwuHwHiuciNnogp4xY1ijEZgQw8i6iFKcc0CtAs/xSfCTIYkT3VXWDx/5jFc4NoKDfF/FNuZ8wdheXLngZoQoPpmuHOuB5Fuz13RS/73wZDHZ2X/is156QrqqfPmYi+vr+l/kGQeSbY6kJ3fkn6e9AgGXiVawE6MeX53QTXjnXUktwQaxXTJX8fgO8DUUdKyX8dAX0S3fk3UopfH7bn3w7gMH0HgywZ98DNHwyiIE5UyQtEoS1VvwjiW+IE3pRYjHdgwUXBfqYp7ZnQSMm/FYR/NQFKCAx3IaAjkrjDN0cgKlO1wVzAN4NoRIjEW2m6EAMPe6GnSLcSdMNtq9f06k5CdEjDsZoRoMGpJPUgNk8gConXOxkI7gEwph6wFv/uA9ZBcDszdpbfaqx7/o8BnN/iOgzdPPNJKDrXJomxuQIZEEke3Hc3iCYmmVjk2Iz7sR4fGeW4rshtmuqoTg5jvglEoY8NSDYlng/kDoHbOSPZduJaURgWZc/89UCLFPHm3MbVR0Cyzox6GmpYClJj3z+xsX8de0NzmmLLV81ksKyzm/Wxtvl3kNWZ8qpHgHkqCONjIzBaoFsR0KmZeFMVjR+10OoQoO9KEG0VNURDfuqkWsZp6HZmNhQnpHNrBbIKbKlyLkBng7BhSPyNmr8E4pNQcP7aaKBM+PdUR8IKLgTTySCs25ScmZ+DRRehYKtX0E2/zBCISnvanDEI+tRD4RnJs8B/BnI3wO28L/m22rCFmfPWwQdLDl+5xLqQQIaLwbgXwE0o2ncnEF87pDkCWQV5ZmUDfEAHg3E0CPtoZ1Lf8FGAboRl3Yau8Qvrm4uFFgOP+OOxnI4BsfrA2MhBrk+AMB3EPVhhPZTENw2tfNYyMk8gqwNUD/PWhwUwTwEFhZVT6DVeEfNcAGp7m+cAehgBHpDniyjdI6RP+fVxwOL9wDwRoM3BvAmAcSu3Gdp44AxHVuszZgH0PBhqiDsLrvNsyJaaZm62QGrRoIrASyfA4uEf/dxHS8G5tzBqnfnYY+x7TWNPGmp7BtInkLYviSRoEgMiEJOqIViMY0AEYlxJBJBJDIhATKqGYDGOARGIcSURQCYxIAIxqRqCxTgGRCDGlUQAmcSACMSkaggW4xgQgRhXEgFkEgMiEJOqIViMY0AEYlxJBJBJDIhATKqGYDGOARGIcSURQCYxIAIxqRqCxTgGRCDGlUQAmcSACMSkaggW4xgQgRhXEgFkEgMiEJOqIViMY0AEYlxJBJBJDIhATKqGYDGOARGIcSURQCYxIAIxqRqCxTgGRCDGlUQAmcSACMSkaggW4xgQgRhXEgFkEgP/B9yDECPZ+D7QAAAAAElFTkSuQmCC" parent="1" vertex="1">
          <mxGeometry x="285" y="-470" width="47" height="46" as="geometry" />
        </mxCell>
        <mxCell id="-dllcQzm70aawtmvtiuD-8" value="" style="shape=image;verticalLabelPosition=bottom;verticalAlign=top;imageAspect=0;aspect=fixed;image=data:image/png,iVBORw0KGgoAAAANSUhEUgAAANcAAADICAYAAAB7/XT7AAAgAElEQVR4Xu2dCZhcVZXHf+d1dxYSSViCELJ0vYJxCCiLbIZ0v2pAQRFcGBVlGWBAERVRUQRFBFFEUcRdQBFlGQYGRmFE1q6qYCQQZFQWhVRVQthkEQKEJJ2ud+a7VenQSbrTVXXvq3rVXff7/BLJPet9/3r33XsWoTXi54HewlRom0FbcXtUZ6BMB2Yiuj3IFigTgYmIlv80/19kcskQ1eXAqyCvgr4CvAKyArT838T86b2Eah7Pe4iiPkxPYlX8nND8Gknzm9DEFizSDlYW5hCyK8KuqO6Kmr/L1nW0KiwBTeQhhIdQfQhPHmLb4t/YccfVddRj1IlqgaueS5pdOgctvg1lH4Q9gd3rKb5qWaqLEbkf4Q6KcjM9iWeq5jGGCVrginLx5xdSFLUL9G0gb0OYGqW4yHmbt5rIneDdyqRxafac/lrkMptYQAtcLhdPtY1s4QCUD4C+t87bO5eWVMBL+0D+iHIb6O0E/v2IhBUQjpkpLXDZLrUB1PwlB6L6AZT3Imxly7JJ6Z8G/RVtcjnz/L83qQ1O1W6Bq1Z3Zp6cCatOBo4H2aZWNqOSTrkHuJz2N1zDvGnmxHJMjha4qll2VeHu/CGEnATyTsCrhnwMzl0JeiMe5m12JyI6lnzQAlclq/2HxduwxjsB+CjC7EpIWnM29IAuA7kCxl9CsP2yseCfFrg2tcoGVP3el1D9GCLjx8IDEb2NpYOQS2gPv8Z+OzwbvbzGSWiBayjfL1i2JWvWnAGYb6rNGrc8o1rySuBHdHScz9yZ/xyNlrbANXhVTdiRp6eh+ul14USjcdXjZJPqq4h8j/FTvs2+W70cJ9VsdWmBy3jQHFTMX/IxVL8ObGnr1BZ9DR5QXkK4kEkTLhotl9MtcGWX7IEWLwXZo4ZHokXi3AP6HMgFTC/+sNljG8cuuBY+sRUr+85HMKeAY9cPzsHhjGEevKMJOhc441hnRmP3oUrnbkDkfXX2d0tctR4Qvku3/7lqyeIwf+yC6+78m+jXBxFpj8NCtHTYpAceAe9Igs4HmslPYxdcZpUyua+CnN1MC1bStZQQKSsRXkPVHGmvRMREqE9EdTOQSYhuhrLZ6Dr1lK8SJM5plvUa2+Ayq5TOPYbIDrFZsNLRNAWQPEKOkCW0aQFpL+B5eebONGCqbtzzwuYUV0yjrziN9nBrikwD2RqhE2Uuwm7VMWzgbNVFSNsxBJ2PNFCLikS3wGVyrkLtrchbricZICFpRO5AwwXoxAI90593LaYifr25eXiyL7DX2mTOmId5yakEiYsrsq1Bk1rgKm0P81cAx0S+Bqr9CAvBux3x7qBr1j2IFCOXW4sAE6VS7JtLKPsAe6PsHcNkz6vYKnE8u0hfLSZGTdMCl/GwOZZf1fcYsIVzhytLgJuA29lis7vYddsVzmXUi+H8wsGEehLwnnqJHFGOSW/pCN8TxzjFFrgGVi+TM3lZPx9xMSuaoH2o/Aa4lCBxx6hLtSgHNJ+IckLpu63x4ynw3h2308QWuAY/GJl8Fuiq+VlR/o5wGTLxCrq3e65mPs1EWH6bfRw4rMFqv4bw73T71zdYj3XiW+AavBK13X2Z07vrUC4j5c+Py8LWXY/eZTvg9Z8B4dEgHXWXPyBQ9Fy6k7G4XmmBa8OnIJ0/F+GskR8OXQPyM2TiuWPmLTWyU6D3iRlI3xfWhpWZoqWNGL9h0oSPNDoAuAWuDZf+scfG81SbuUNJDPNUKKrXot4Z9CTMYUVrDOWB7NPTCFd9BsKTEZnSACctJJx8ID3bvNoA2SWRLXAN5fnh774yhHIqPYn/a9SCNZ3cRbkpvCqfQPRUkGl11r+hAGs+cJV+EVd+B0+voDt5Z2SLlc7/GuGotfxNTNsXCfzbIpM32hn/+ZlJvLTi6yCfqnNhn4VMmrB/I7aIzQMuVY9s4eMo5629zPwhgW8WKppRvvu6HfRCuv1rRt1xejReG5lrb2E3RC+va8iV6t1MnnhQvQHWHOAqJTSGlwNvGbR6TxP4pvtHazSbB8wPZSb/aZCvIUyqi/oNAFi8wVWuaXEBlBIaN64RGOpe9CQX1WVxWkLce8CcLHqrfwpyiHvmQ3A0AFPv7fVqmRRPcJmaFtn8cSgXbLLeuvANuv0v1WVhWkKi80Am936QH0CpD1nEQ+8i9A6pB8DiB67ex3dB+i9FMBHaIwx9mCC580izWv/eBB4o7VLC60EOiF5bvYsgGbmc+ICr99nJeK98DZVPIbRV7OB2OtnPX1rx/NbE+HqgfGhlPgNOi1xJ1ctJJY+PUk48wJUufBjR7wDbVW+sfJEgYRakNUaLB8w2Ubk68irHysdI+ZdE5bbGgsvE8hUxxnVbGLiQwK9gC2khoUVafw/Mz+9KUW9GZEZ0wnUN0rYv3Z1/ikJGY8DVW5iA8BUk/BzIOGvDxJtOd+fT1nxaDOLlgXL5u5sr+/6uWfWnaA93jyIfrP7gyhbeQ6gXO+0WovoJUskf1+zeFmF8PdCr7Uj++4iYtJZohkm4DBLzXGeF1w9cvYVOPP0pcJBzDym3k/Lf4Zxvi2F8PBB9pa4fEfifdGlw9OB6UMfxfOF0BNM1JJoUBKXIhClbjrZC/i4XelTwyuS/He1Joh5JkLzala+iBVdmyf5o8RJEkq4UHpaPcDTd/pWRy2kJaKwHogSY6mq8trmuDjiiAdfdj0+nv/97iOlqX6+hNxAkD6+XtJacBnogkzfRHE63cIOsKTC9uJOLJhBuwWU622cLn0H17AZUel3JVompcS2z1cBHcXSKTucvQTgxIuPOI/AryEbftHR34MosmQulVjxzIjK4ErbvIfB/W8nE1pwm94CJP80UrsB8Drgepr5ku+zCPP/vNqztwWWSF3XlhXUpqjmSpaq/JJU8bqRprX8fJR4opa4UfhkJwOCPBP5cG0/VDq7SL0f+4yBfj00lVuUFgsQbXd9X2Di4RRuxB8oAuxMh5VySuVvrTpjro5pGbeCKczdG9fYn1dmY2u81LUGLyNoD5UiOhxDeaM1rMANTy1+9HelJPFML3+rAVU4L+CaI+ZDcOHmxFg3c03yfwP+0e7YtjrH2QHrJ26CYdd5vTbmelF/TqXdl4CpvAY8FvrXJ5MV4eL+V/h+Pdai/Ftncqahc5FywyMF0J26tlu/I4MounYMWTf2Kvatl3rD5XtuedM2+v2HyW4Ib54F0/rcIhzpVQPUJ9A07VVsDcXhw1Zq86NSqmpl9ncD/cs3UzUBoYjXbvO2RcOPS0YoJCFtNu+k6Weo8uQrdbCXFtpXVPiDN4Ir1dDTPrbzygPuGhnoOQfKr1fhjaHBlC0egpeTFOtQ0qEbdCueqPkQquUuFs+M5zdReb+/rpCgJPNMBUjtBZqKasM5xMr/E8FdEHir96bU9NKre9JklO0FoChdt5mxxlZfQyTOr+XFaH1x/eDxJf/8vLJMXndljxahZ0v8zSxIQ7oXoW1H2BHYsgagx41HgAYQ7UM0QJE3PsuYc2fy/oVznVHnlK6T8r1XKswwuk7zYpmehepqT5MVKpUc5T+V0UolvRSmiJt4Llk2k2HcAIaac2CENBNLI6qs+iUgaJYNouunAls7diMh7Rza0whlVvr2E+bl3E/LjWC9yhbZvMM36hr02sUNQzV+6BWF4GOj7AJN3Fk3qjTOFh2Okj6HelXToFU1RFGh+bhZFHnVci+PLBP7XK3G1YEqZtfUfR8hHELathKhJ5ijibd/Q9H9TutkLPw8mO6CBPasiWTBdgHi/Rrxr6Zr9YiQiXDDN5M02zt3hVhVvr9e/uUphJEsPguIxiJiet0366zpoRSzDV2pe22zucEI5LeLaDzWr55xQuYk2/T5dyTuc87ZluOipzVixanFtlcWGfYOfQZD85kiqDX1aWDqGf/VDa4NxTRvTke/DRpLUmH+/jcB3X1ZgOFvKp6xfAXZqjLkNlqqkaZMv0pVY2GBN1hefKXwI9D+d6WTeXuM6pjN3prnmGHaMDJrMkzPR1ceCmjfaDs4UrAejeqX/ZwsBqiYyYPd6mNUEMq4lHHcaPTPMkX88RiafcXoKXsGB2cjgGuyacs7WMSAfBLaIh9dG0kKPIkheNdKsmv69lByaPw/k9CZ+u9dk+ohEJugVTo9NVa5ypNGDztbJ3BUG/qxNtZaqDlwDHjVFZ/5ZOIyQY0Df6TxYcsSVq2KCReDlJqWYjokr5CbAbJtbYzgPqN5CKvmuWDgok/8RcLIzXUQP3FQDxtrANVi7Bcu2pK//KAjNtvGtzhR3x8h9+v+CZdvTt8bkEL3JnZqjmFMDemMN6c3Ss9r3lLOjeeXXpPxjhls5e3AN5jw/9y+EHI9yFCLbx+ZxUQ4j5Zu3jP0o9/hd2AJWla5U/R9SSXPP19iRzpsOOqbfm/1QE7M5edpwIVFuwTWgbib/H8Bl9to74uCyo0U6fzvCgY40G2Ns5FSCxMUNNbocd/iwMx1EjqM78cuh+EUDrnT+FoSDnRlgy6ic/j/Nuq9x3H40bP1Sb3pzyNGhySjqsldlisvn01w/pPye+oDr7ufeQP8rL1bVY6sqz9Q4WSRFd8Icx9Y+MrmlILNqZ9CiRPVMUsnzG+qJdP7tCLc50kEJx80a6trB/ZsrkzcfeFc4UtwhG72YIHlqzQxNmJjX/9ea6VuEAx64l8Dfp+HuyOTN1tDVZf9ZBP55G9rkHlxRZIK6WQm79P/5hRShtgrf2K6F6nJSyam2bKzps4VjMd/ibkaewN+oZLtbcJl0ijV9L8U2bUW8t9ZcBzyTezPIX9ysxVjmoo8RJP+l4R4otSYqPOGuYpS3H0HngsF2uQVXObbuGgeOM3UQFqN6NMg0B/zKLJSvkfJN7F9tI5NbDrJ5bcQtqvIa6E9IJd1d5Nq4NZ0/E6Gi9JEKxPyYwP9EdODK5K8HHDRD8A4h6PwdJrwoU3gXoqby1Lut34iqD5JKvrkCRw09JdoGADWr1VyE+haCZDy+XU3DkGL/k078p7qYVHLHaMBV2hKuecE+VUVfYSt/640aKpRu19ccWQaa7FGzQ2zS/8vFJ/+OsFXN8sc24WkEvqnNEp+RyZt+yG4CrkPZbnABUXfbQmc1C/RqguSRm/S++f4ROZaQI6veMytfIOWbJmq1jWzuEFRuro14DFMpV5Ly3TdNsHWpy46VG/SIcweuTP5nwEdtbQU9nCB5Q0V8ato26gKC5H4V8R9uUjr/UQRjb2tU4gHl96T8d1Yyte5z5i99K2HRVIpyMX5O4K8LrXIHrnTeVA3azVLDlXR0bDVSEtqQMirfNioTxk1jnxlmC1v7iO19Xu0mRUR5FYF/VES83bDN5M13l30ZQdUcqeS6nEc34Cp/b5n8Hdv68f9N4P+btccGto2qR4FsszE/OYkgYf/myeS7ARNXlrDWebQxMPdZnnyyKVrpZnI/ATnJyRIM+u5yA67s0v3Q4t3Wyql8hFTCxVF+WZXht423EvjuYh9dF0GxdmTDGdxKKMfW2h2k7tqnl7wTCX/nRK5yDCn/14aXG3Clc59B5Lt2ymkfHeOm1rQlrETwQN6ZOW1U3sKEKVuy71YvV0Ja0RwTba3FXyFiCnuOzWECpNGvxCb7uNJVMMm/LxRMBSv7Cr2DMjBcgetqRD5cqS3DzMsS+IElj8rIzbbRYzldyccrI6hiVukiPTwTpPb7tCrExWKqKdiCXMTk8Rey5/TXYqFTtUo4u6NlXSiUK3AtRmSj2Kqq7DOtX1KJz1ZFE+fJ5WKrp4IcEGc1LXX7L8AcWFTXh9qUO4sbCNP5ExEusfRHmTwcN9NEyduD654XNmf18uX2SkVYSMZeOTBVcz3Zkv1m5apid3f+TRRLdRtMA7XtqqKN5+R7EX6NtF1VUzHQTO6bqLxgddcYhV96c3viyX1OWIu8j+7E/9iDy9XHYCg70ZP4mxPjomBSalKx5mHU+w6Tx59X0y9vb2FfPDU14k1Rm72c7PGjsHUwz3IVpzsQ7/cw7ncE2y+rSWRvYVtEbywVSrW9yK9JgRGIyt9dpg6h7Ym3EfR5Av9Ce3BlCmeDVtW3aAgzVxL49h+TUTh9gGe5A4yp3GpOIZ9A5HMEvtkW1T5Mb+lQD0TCd8Rs+/gX0N+B3ELgZ2s3cC1lOTnx2nXl+OIILqNqOvcgIjtb24v+jCB5kgNw5X8DHGal0CZSpa34uiQeDK7X+WbBO4mg8xFrUeausL9vLurtgIQ+oSSQUl8u049ra2v+QzMooCxGNA9ifjgeZTwL2df/hxN5mSW7o+E5G3V6jCu4MvkrgU2H3lXiGOUOUv7bXYDrz8BbKpE57Bzhu3T7n7PiETXx0OAyb7F+hB8yfurZTo/2B9tjDgBWrUlQ1Dei4VZ4TEGZCjp5I7OVWaWONaIvo/JP4EVE/wnei6Dm7y+gPB5pO6By7ptpgGB6Dmw84guu04Da404HLFWWkvI77cGVzr2EyBSrZ9v15bGVMsMQl5vU5Ydnrc+BnEHg/zwK8U3B0zSgUI4HGakIaOmbJHY2zc8dSCi3O9BLCRPj7MBVDnuyv9fw9E10JU1Xw/iO4d5cG786HgPv57QXL294laN6eNOUiQ7DE5DQhJpVltga1zeXCTQop03Zj1B2sgOXm9T3+B9mGFdXDK6162K2i3AzHpfR5f8ekaL9isWEQ29hKp4eiepxNVVZjiu4jHvTOXNYZV/Q1tND7cDlJLdJ/0SQjGMZ7PWf5GrBNZi63P70l7RzaVN0ZNwQw6Z32/zCnmipK+bbQd9m1cwvzuDK5G4GMdcldkP0M3bgSudORsQUt699KDeT8g+tnUGdKG3Atb6Kj4Ca4+0soXdXbINbe5+YgfSZHKx3IJgoE3ddbWINrvwPgE86eKp+aAcuc9tebp9jMfSnBMmPWzCoD6k7cG2ob6EENAO4cFyWnpnlu7R6jXvyb2SVNwcJ5wBzUOYgOmfoVB1HSsUZXOn8uQhnWVuq3GwJrsLPQY+3UkTlbFKJc6141IN4xNNCZ0q8BvokyhMgT4Isw9OnQJ4gDJ/Ea3tixD7PpupxsW8qYXEKrJlK28DRvUxFmYIwG9U5iBhAbelM88oZxfO00OjvJMOj5IiFduBK565B5IjKfTrkzBOa4vi6fuCq0J26rAQ41XFg7rwMaCK7bK5Qp4qnxRlc5pDmFxVbMtxE1cWW4Mqb+oJ230vqvYtU5y3WxkTNILptYdSax49/nLeF2cJ7Ub3R2mmqz9uBK5O7wzomzpN9Y9egeijPtsBl/bytYxBncJVLN9g17FhrqB240vk/lqKcrYa3B0HnA1Ys6kHcApc7L8cZXNn8W1BMSJ/1sANXJm8fV4g3x0ngq7UrRmDQApc7D8cZXJknZ8JqJxnqduBK5+wzkL22JF2zNxGz525NrTjF7kDDyppGE8f3QKP32cl4r77iwkF24HJR762tfXvmzXrKhTGR8nBZVzxSRZuAuerxpJKu2ve4NziTVxdM7cCVzj9TdTnpDbVuFnAZvTO5ZysOTnWxOqOVh029/qh9YkK9sgUncaB24HLx5jJJgT2JJVH7zAn/VpcTF278LYE/dJ6XC+62PEyzjVV9z9uyMfSW4Mo9XkrMsxnNkG4yYJ/Dj10blzU1bdxrpTj8trYDVzr3GCLramPXtOhh+5vpmfVgTbSNIMrmT0C5tBGim16mcCLd/mWxtqO3sBueOrkasgSXg+YLzXKJPPiJcFlbPNZPmkvl9ByCpG0hI5cKDc0rNpfImbxJnTBlwmofzRL+tKGFmfzFwCm1Gz6GKFU/Syp5UVNYnM4filBdkdMhDdPnLN9cDgJ3N2gY1hQLMKBkOQ7NBHm6y3VqKgeMpKw+Bm0faooInHVrmj8KpdRIwXI8ageuTN5UyjEVc2ofKp8mlfh+7QwaTFlOKrzOPgyswXY4Fy+/YNL4T9VUPNW5LlUwzORN0/AfVkEx3FTblJPCKYia7ZHF0AsIkl+0YBAP0mzuVEI5Gymlf4zdoXo/bd5pdCXSTemEdO4MRL5hrbtyk92bq1RKS663VCTe9x7VGLcoN4UVchroKSCbV0Pa9HMNqDzva3QnTJHY5h3p3I8Rsc+MVy61A9f8wj6Eeo+dJ/UxguS/2PGIGXUpE/iVU1D9uJNKQjEzbwN1bsWT79GV+H281axQu0zevHEdtLLSc+zAZb43vL7aCvMP2KoUCRLjR1XpscHrmFmyP4QfAd4/eg4+StV8/4t2LmSe//cKH9vmmOYsxE2c1Iq3D3KUtp3pnv1wrL3fW5hAT2KVlY5loL0f1fcgMsOKV/2J8yh3IVxH4N9Ws/hM/h2gMwiS9qn0NSsxDKHLoqAiB9u9uYyOLoooCh+g27f9dnPt6vX5mXyuNWtuReRkq4drgKtpUkD4LlQPRmRetMpXyV1ZAXovePfgcS9M+APd2z1XJZf1p/dqO1L4BsJpKKfHrj+X0dbhBTIdHTPswZXJm2+ufawcD2cR+OdZ8oiWfP0WQv+Dep9xGnBcbr5m/LgTqj6Ij/CmaI0qcTfVpky4z30gD5T+HiT/6lRuqTdXePO66rxxTZbMFk5C9SfWtps2til/CxfgMm+cw+0U0qsJkvatW+yU2DT1hpnIyipEvknIBdbbxU1JXrBse/rDTigmCEsdTLaGcCqCaX5R7nYimJPJKetqDaqaqO6XgOXI2j/xXkJZDvo8Ho9DW4F2bwlzZz4ZmdtM19FVy09D1LSvfcM6OXEFl7ushwyBn3IBLtMq5suWC/QAgb+HJY9oyYdtIcQSPDm16Y+gXXqv1KCj/xTQLwxZFzG24MrdCbK/tSuUH5DyT7EHV6mxttxkpZDqalLJCVY8oiaev9QnLA7fD1m5nXY+NepOz6rxa+9TWyOrjkP08yMklcYzzT+dfxph22pMHnLu2uh/e3C5Si7z2I0u30nVHWvnDMWgkgI1A51N2ryfMa/zNkTCSHSJE1PVNrKFQ8odTzikogYNcXxzuXqOzdoI+9Dt32sPLsMsnS+UWozaDNUzSSXPt2ERKW0l4BqsgOkuKFxGKJfFttmCjcNMXy4tHo9yVNWlHuIIrkzuSBDTttV+TJowycRUugFXJv+fwIestFK9m1TSLn3FSoERiKsF1wC70fI2M/d8Ij1IeDDKQVYnmXEEVzp3NSIftn6EVBeTSu5YfoG5GG6K1yuTdAv2TC53oZJzHrWCq5nfZncv3ZlisQwmk7cnuPkujhu4VIVM/kXr9sOltdYbCJKl03M34MosmQvhH+wfaDmCIHGtPZ8IOLgA1+tqmW8xEzZ0H8oiVO5jRv8D7Ljj6gg0r5yliYnsf+VghINQPSiyKJK4gas3Nw9P5lfuqE3NfD3j2g24FmkHKwomNMizVPAKAv9YSx7RkDssXDK8gvonVP5UAp3nLaK70/zdfvz5mUmsWDOV/nAKqlOhuC3CLEJvFqKzUEyb0kTV3061axav08JM7nwQN2lPogfSnbzT3ZvLcErnFtXUH3e9BdLnCJLb1L5mEVLWBVxD6K9qLoKXg5hL4RdRXl57Obwc5Z8Im5VaCJm+W+ZPoQPWXiqXe3FtFaFXamUdN3D9BeTNtRoziO41uhObDwShu3lzGe6ZvGnferK1gqHuRU9ykTUf1wzcbgtda9dc/OK0LXRbSfm/Cfx/G1gMh+DKfQTkKutVVr5CyjdRH/EaLXC5W484gctVPGFpHyjH0Z34pXtwlRIEX34exHQ6rH0MOsqsnUkElC1wuXNqnMCVzt+E8G4HxinhhG3omb6uWq+7N1dpa5i7GeQQe0W9Awg677Ln45BDC1zunBkXcJn8rb6+fyDS7sC4+wj8vQfzcQuubOFYVF10r1hv7+rAcHsWjTrQsNc8jhzicaCRyZuAczefICpnk0qcGx24yvckLyK0Wa5oSCjbxypsqLfQiacFS7ta5MYDqp8jlfxuQ51huplkCk85u37w2vaka/b90YHLcE7nb0E42N5x8lWCxDn2fBxxMLf42cIKYKIjjmOXzaC7oIY5IZP/IOAmYMHkz6WS0za0xe22sASu3HGIuKiP8DSBP71hzh9KcDp3AyLvi5VOzaaM8g9Svn1ah63dmbxpKm6ai9sP5TJS/onRg6v0kbjmWQdbQ7N/OJwgeYO99Y44ZPN7oyx0xG1ssolDheXMkp0gdFcQKdQuepJ3Rw8uIyGTvxV4h/3To3cSJA+05+OQg7tUcIdKNQkrk/kQ+N2I2FcMszE5kzdtjP7DhsXrtPowQXLnoXi53xaWtob5ExEucaJ82LEjPTMXO+HlgolJvfBCkw4+1wW7McNDWUJ7+34N739dOnR7+TlExjvy/ScJfBOdtNGIBlwu679B/IJ5S2WruQsk3nU/HD091mxUn0C9LqfVsmpVKl34AqIX1Eq+Ad1rhJPfSM82r9YPXOW3139h6hG6GHHsPvnYY+N5yrsA5NMuTBy1PJSbaH/Dkcyb9krDbSyXGV/qsPLxJQT+x4azK5o3l5GWzb8FxU1NDNVeUkn7qjxRrG46/3akdKTb6tG1vn9fKzUHDPyfR+H2mnimC99F9DM10Q75atp0pejowFV+e92G8HY3xniHEHT+zg0vx1yyS7YjLJruGO91zLlZ2WVo42OxqoTVu2wHvL6HKyqgU5nXFxL4+25qarTgKtdGLyWOORiP0p3YKdYVlbJL90P7vzVmDzuU/0O8L8XyRzCd/y3CoQ6ew7Us5FiCxBWNA5eRnMnfC+zlxCjlo6T8S53wipJJthAQ6pfcvbWjVNYBb3PELm3nxxJU5WfQXBabS2NHQ19merjNSGUZon1zlQzLvR/kv91Ypc8ydZLPrtuaMKT4j/JW5CgoVRUaXT3IylWtroe275Pq/GNsF6NUVzFvMo3nONNR5SJSic+OxC96cJUq6xQesSrFtZ4VrxcAGcm4WP276Wqi4ftA34/IkJeOsdJ3eGX+iHIj7e1XNfzOqhKHpXOmAeGPK5la2RxdQ8e4RCU19g68XosAAAqYSURBVKMHV/ntdTyIq1Oj1/B0J7qSj1fmjBjOKrcjOqycpOegNnmUJpoTX+EPKPfgeXfQ3fl0lOKc8i5fGOcR07zC2fgOgX9aJdzqA65Sb6b8EoctTBfSnZgb68ONSrxv5piID8KB9kF7o7ozIgkoFZ6p9yiUSr2J6cnFvXR03MfcmSvrrYQzeen8rxCOdsYPfXntW+uflfCsD7hKb6/Cv4Ouqy9QiXKbnCN6Lt3Js635xJVBqaeVJJCij8psBB9lFoL5FZ5abhnEljWpr5oDyYMpuS2L8cL7mch9sS3IWouR2cIRqF5TC+mwNMqXSPnfqJRn/cBVApiTRnkDtpnCmj0EfrZSY0flvN5nJ9OxanOK4RRCnUL7BlVx+8N+PFOabcJLjJ+wnH23MqXZRvcoJ7Y+5Pbtr88SerOr6cVWX3D1FnbDU1Po0o1c5Rna2ubQNfvF0f20tKyr2APl9rD3IexWMU0lE1VPJpWsquukm4e8EuUG5qTzlyKcUA3Jpufq/xIkXVTvcadSi1PjPJDJXwh8zqkCJqI/SOwwUOyzUt71B1f26Wnoa2bP/3obz0q1HXaenESQ+Jk1mxaD5vZANncAKne4N6K2Hgb1B5exPF04BdGLnTnB9Cdu013pSj7qjGeLUXN5oNTVcuUjjo/dTTGdB0klayp13RhwRXJrrjkmjt+HfWa80FxPRUtbaw+Uigflbwc5wJrX+gxCvLa9N6zqVKmMxoDLaOc83qtk8gNM3ayracKjKl2l1rxNeyCdvwTTh9j9OI/AP6tWto0DV2l76DChcp0H9C5C/yB6xMS+tcZo90A6fy5CzQDYhHv+Qph4q81z1FhwRbZP5jqCxIcaXghltD/YjbYvm/8kyg/cq6F9hN6u9CT+ZsO7seAyms/PHUgot9sYMQztjwj8T0bAt8UyDh5I549G+FUkqqicTirxLVvejQdXaXvoOP16wCuqZ5JKnm/rpBZ9zDyQLbwXVZPGZNvJdGPDVO8n8PdyseuJB7ge1HG8ULgH2N35MprAzW7/Sud8Wwwb4wGz0ylyi6POJOvbYK50Otp3Yb9ZORfGxQNcxpJMbkeQ/3MbD7bWRcoHSfnXuXBYi0cDPeC0MfgQdtQQ4rQpb8QHXEZLdy2INrRZUU4n5X+7gY9GS7SNBzJL3gWh+YGMJhVHSZPye2xU3JA2XuAqvcHy1wOHuzRyEK9f0Z04vtoYsYh0abGt1APp/JkI5zkL+N74p3cpOmHPwV0hK1Wted5cRtNy4UZT79AkDLofpgaivuGw4aqkuhfY4lizB8y3+POFK50Vlx1SEX2ZcNxboyiZHr83l3HA/MI+hGoOOKIZyt9o04OaulRANJ6JD1dzB+qt+i3wtkiVUm9/Up29UciIJ7jK28PDgBsjOW41/E3Dsrb2g2uNG4tiMVo813qgt/CveOFtIDOj9Ult0e6V6hRfcJUBZtq8mHYv0YxyNP0H6EreHI2AFteqPVA+ar8RkclV01ZHYBU3WImoeIPLWJDOnYFIxXULKjF6iDk/oqPj801djKVGw2NFlsl9FST6uiimtkYq+ZGobY8/uMpvsB8Cn4jUGSbbtE2OoCvR6hwZqaOHYF4u/3A1sFPkok2JuK0TAbtIX9SymgNcZYCZutzHRO0Q4DuE8uVqCpHUQafRKyJd+AaiZ9THQH2MjnH7MndmRaXRbHVqHnCZBMtM4WaEg22NHpFedTFt7Ue0DjtG9FTtE3pze+JxNciOtTOphlIfpl172G+HZ6uhspnbPOAyVpoCmhLejsg8G6MrolWKIN9i686v1mMLUZFOo2HSgmUTWdN3PsinIjsJ3thPfyGUgJ7ES/V0YXOBy3im3DJ1PkhNdQ2qdq7ydzy+TLdvIkdaw8YDpvuL6i8A34ZNdbS6gLbND25EZ8vmA5fxbLnnsjk+j/aCcf1VfADRs+hO/m91i9uaTTrfhegXQd5VX2/onXSMO7RRp8DNCS6zQqYn8ZNtv442NGbIR2Ehnn6ZrmQEJbzq++hFLi2dPxTR00H2i1zWxgJ+w6TEB9hT1jRAdklk84JrwGN1PW0atEym4ZtyBj3Juxu1eLGUaw6e5hc+TKinI7JLQ3TUUpmHIxrdqKP5wWVWL5s/AaUxHSdLgcDemfQkoouFbMgTWqVQU7PeW3EkqmcgzK6S2uX0Swj8j7lkWCuv0QEuY32pFgc3uK3kW4VbVRfhcRVtenU9j3ur0ND91FL9yaUHocWj1jZbn+heSIUcy50uTyeV/G6FFJFPGz3gMq66e+nO9Pf/HpEZkXtuOAHmCF8wTdavIpx8w6hMbSndUcnRoEeAbNMwXw8INg05xDucoHNBw3UZpMDoApcxzPS18vSGOp8kbmpNr0K5lpR/U5wWvmpdMk/OhNX/juqxiCSrpo+OIINM/ADd2z0XnYjaOI8+cBk/lKM5zgT9SiSFTGrytb6Cyh9As3jtWTabdW8jT7JGNGH+Up8w7ELVXNjPQ/jXEWnqO0ER/TZd/plxzSwfneAaWOR0zpTI+s/6XlpW/IStRFmIaAbasoS6oGHxjKoe2aW7oqEBURlMML1iS+o+0fxQtX2IVOctdRddhcDRDa7SNrF0inUx6PFV+KUxU5WlwKOI5kEWo14OKS6mY9xiZxeh2aVz0OIOqO6AYOL6dkRlX4RJjTG6SqmmAXpb2/vpmm3azsZ6jH5wDbjfFJIMw18iYnoJN+N42lydo5rH43FMPasNhzCRUMyJ3UTM39GJqPm7TALtBJnVjIYP0rmpqiiPHXCV3mLmsCO8MoJWM03+zMZe/b8g3nF0d5qWv00zxha4BpYlU/g0Gl6AyPimWamxqKjqcpCzCBI/anS0RS3uH5vgKr/FTMf3C4AP1uK4Fk3UHtCrkc1OjeMRe6WWj11wDXionLT3vQYFl1a6TmNnnknxET5K4Geb3egWuNZtFfOHoVwQw/ucZn/GKtX/NVTPQ/1v2zScq1RYPea1wDXYy6VYuSUnoHoOwhvrsQAtGfoy8BPGy0Xs6/9jNPmjBa6hVvPPz0zipRWfBz7bsEDg0fSUDWmLmloWFzGJn7BncvloNLcFrk2taqneQ/8xaPgpRHYejQ9AA2wqoPpt1Lu8YREpdTK6Ba5KHZ1Zsj+EpwCH1rGwSqXaNcE8/SvwTbr9a+MaC+jaiS1wVevRcnT4Kaie2MTRHtVabTFf/xfxLqU78RsLJk1J2gJXrctWKvOmJqfplIals9eqe7R0IYo5Rr+Gtrbr6Jr9YrTi4su9BS4Xa5PJvRnEdGUx/9trVNQmqdYvJhPbAEq9q+lJPFMt+Wic3wKX61XNPj0NVr6HkMMQDiwF0Y7WYfqcIdeg7VdH0Tyu2d3WAleUK2hOG/vWGICZN9q7EbaNUlwdeOdRzeB5WcTLNkPaRx18MqyIFrjq6X2T3avFPQhlD9DdEd0jFjUohvfBI6XMafUyKL2t7V51D0sLXNX5y/3s3idm4PUZkO0Ougeqe9S9wI5pAojmSvliYmL7ZBHtHXfVqxuIe6fGg2MLXPFYh/W1MNvJYrgdoW6LFLdDxWwnt0VL28ptEbZBdfowIDTlA1YDqxFdDWKAs7r030RWgL6AsJhQFuPJoxQ7cvTMeCKObmh2nf4fgiVk9DpcUCYAAAAASUVORK5CYII=" parent="1" vertex="1">
          <mxGeometry x="744.5" y="-324.5" width="55" height="51" as="geometry" />
        </mxCell>
        <mxCell id="-dllcQzm70aawtmvtiuD-9" value="RDS 服务" style="text;html=1;align=center;verticalAlign=middle;resizable=0;points=[];;autosize=1;fontStyle=1" parent="1" vertex="1">
          <mxGeometry x="747.5" y="-266.5" width="63" height="18" as="geometry" />
        </mxCell>
        <mxCell id="-dllcQzm70aawtmvtiuD-10" value="" style="shape=image;verticalLabelPosition=bottom;verticalAlign=top;imageAspect=0;aspect=fixed;image=data:image/png,iVBORw0KGgoAAAANSUhEUgAAAMgAAADICAYAAACtWK6eAAAgAElEQVR4Xu1daXRcxZX+7mtJ3gn7gMFYkslCQiAkTiC2FouwOSyxMZsBA14hmXNyJnMmDFnmTDIzJ5PJnOQkZ4Yk2Nrl3caAMRAIoMWGsE+ABJKAuiWbAGFfvCGp351z63Vbki2p+9Vbul939d+uulX11bu13Lr3uwTzMwgYBEZFgAw2BgGDwOgIGAUxX4dBYAwEjIKYz8MgYBTEfAMGAT0EzA6ih5upVSQIGAUpkok2w9RDwCiIHm6mVpEgYBSkSCbaDFMPAaMgeriZWkWCgFGQIploM0w9BIyC6OFmahUJAkZBimSizTD1EDAKooebqVUkCBgFKZKJNsPUQ8AoiB5uplaRIGAUpEgm2gxTDwGjIHq4mVpFgoBRkCKZaDNMPQSMgujhZmoVCQJGQYpkos0w9RAwCqKHm6lVJAgYBSmSiTbD1EPAKIgebqZWkSBgFKRIJtoMUw8BoyB6uJlaRYKAUZAimWgzTD0EjILo4WZqFQkCRkGKZKLNMPUQMAqih5v/tTp66kD2NSB+GxxrRm35i/43YiS6RcAoiFvE/CzfFT8N4Gtg42oQnThMNOP3IKxGid2G2Se/4WezRlb2CBgFyR4rf0p2/nUasP8aMK4B0alZCLXBeAhAG46YuAWnH7cnizqmiE8IGAXxCcgxxTzV/THssa5UuwVQDUAX970A7oBFq1FV/lsQJcPofjG3oTtRxYxZdmN/6aVxeC12MRjXAjwXoLLsKmZZivE3EK8DxdpQU/5MlrVMMZcIGAVxCdiYxZktbI/XwZbjExYAdJif4seQ9SKY20DjV6P2hF0htVkUzRgF8WOaO3vOAGw5Pi0EMNUPkZoyGECXutxbUzag6pgPNeWYaikEjILofgqPxKdjQI5PEMU4RVdMYPWYPwLobnVfmVh+L2ZSf2BtFbBgoyBuJvfRXUeir+9KkCgFzfJw2XbTqveyjLcB3gjE2jCn/HfeBRaPBKMgmea6PTEeMcyDzfKIdz5ApZmq5PX/zN3qCIZYC2rLE3nd1zzonFGQkSZBLttdiXOc4xPPB2hKHsyV/11gPKaUpbR0HWZNe8f/BqIv0SjI0Dls754JC9eCSY5Rx0V/erMdAfeD6TfqMfKE5FZ8/OMfZVuz0MsZBRk6w13xy8D8M4Cm5WTimf+Q5et6cN1j/A/mVH4zuAaiJdkoyMHzJXcOy74FoJsBTAhhOp8DYwOY1qKuogftb0xGbM9FsHkBgLkgTAqhDwD4ERB9AzWVz4XTXjRaMQoy2jy1v3IirL6fA/Lg5/vvRYA2oCS2GrNP6h5VumMguMBRFr4YRB/zvSfgnYB1M2orNvgvO/oSjYJkmsPOeA0Yt4HwqUxFx/6fX1JKIebW2hnPu5b1FJdid+85gH0pwPNAdLRrGcMr7AXTf4HxE9RV7Pcoq2CrF66C7Ng5FQMDSwG+DmR1YXzpzTjzxLe1ZpI5hs7EN0D4IYAjXMhIpN4fNqC2/P9c1Muga9Kf3hqQLbvbfJev9/LavhZkfRs15a9p9UnhEf8mCN8CcC9sqxl1FY9pycrzSoWlII/umoC+/stAfANAdQc95L0Dou+huvw2EMlH4v4nD4X9fT8CaDkAa2QBvAtEmwBsQE3lE+4bcVmDmdDZe1ZKWS4FUDG6BH46dc/Q71dHz5dByXqAPj2sHcafQdycUpbXXY4ib4sXhoKoY5AoBS4H0eQMy+8zQGyZpxW9q/fT4GQjgDNTbclKvAmwZKd4NKez7fiFLQBjwZBj4WsAfQc15a3ai0PXa8fA3vdTEBZlGJ8N4EEwNeOEgS1RNxlHV0Ek8Ij7FoP4egCV7j9Kvg22dQvqKt5zXzdVozN+BYDXUVvZpS0jyIo7ej+DpD0bh09Y4ynQqqv7H2DjB66NBMy7QbQWsOTVPrcLhybO0VIQOUL191+udguiOZ59oZjfAtEtqKlo1F5ZNYGPRLWO7i+CqB7AaT709y9gbgZbTairiMwRLP8VRM7Y23tqYNuyU2RxhNKayicAXqZlXdJqLs8rPf7KUdjf/xOAF3tehA4dqnMEA7fAtrbkuwUtfxVExW73LVFWKK0jlMuPkJEE4dcY97Hv4qyjPnBZuzCKO4vRjWD+kUtrnd74md8HaCPIEhaXvDyC5ZeCyBFqoH8BbF4CUlaoHPz4DSA2P18nLDBA1K7Rdx+ALwbWxpiC1TtRC+yyFtSd+Epu+nBoq7lXkMEjlFihLstshQoIOonxBq0FoxV1Fb8PqJX8FvvIy8diwFoExiIQTs9RZx0WF8dknPMjWO4UxKG/WQqQHKHGsN0HOk37wHwXEGtF7fQHDEvIEKw7e04B7KUArgZwfKCzMKpw/gBMG2HFmlEz/ZFc9CFcBXn29Ul4f59jhQJqArgAZoOhE7cNboU9ZSPqjt2dTaWiLaOIKHrOBdvXATQPwMTcYJE6gsVKmlB10qth9SF4BZEj1I6eWth8A1iOUGF5px4EoXrpRRswrtUwf2h+Xo6n8WWw7et8MbPrdUOOYA+njmC3B20FC05BFKkBLwbT9SCU62HhsZbEYhPWg9AaituHx+5Gqrrydeu/Xh2RPTty6o48+COYvwoiR6h391wBIjlCeWEQ1EVM4hr6AGwDWa2GzcMDjG6qyoMiaBHAC33wMnbT8mBZ5pdB1IJYSaOfRzDvCuI4y80B2XKEEv+fkAJ8DsHxdyBqxUR7HWbOeF8PZVPLEwLtXAIr8VUA14H5IhCN8yRPr7INcDuImpGkzV6PYPoKIkeoJC+BrbbY3ByhgASI21LpAgxDh94HFUwth4/4KkBd7oUiKQc//lA9RNrcjLoZO3Q6oKcgnfF/B/B9nQZ9q8O4GXMq/9s3eUZQcAh09swCJ+/K2fHLGVknrNh8VE9/181A9RRENSfetB/d4AQk0cluGvWxrMRPr0RsSquh2fQRVT9EOUFmctxakYqtj/kh1pUMxnsgbPTiTayvIEN72tU7G5yUc+eVrl2iXY141MJ7wbwBbK0s1Mg2f2AKQcqju07AQN8K2FgKohNCaHF4E8wDIDyg3FamJu/yGo/ij4KkuyiU/6+WzFPnTqbzQQh/1QA/D6KVsKa0mF0lpM9TdovtPReB7RUAXTB6tGWA/WE8qx5/eUIr6qa+5VdL/irI0F61v3o0rP3ioi6uJH7EE7gds7iRbABiKw0frVvosiyv3IU+kiPUEpdx8Vk2kKFY2n8uxi2ornzWH6HDpQSnIMOUJfE5EK5TSSpBxwYxkDFlCiEbaCUmc6sxAXtEX90tei8B7BUgnBf6bsHYD8JWELeiuvI3QfvPuVeQru4FsK0yzKlYpwX19u6LYKuHxCD4prLp0hrY/Gtds182DRRkmfZEOWK8HAwJosqB86Iitmv2lPdke+8RwVuxOuNi3hUzr5jL1oBiv0LN9BdcfxRiJ99rLQSrgKgvu67vtQLzHwFrJSbbLWZXGQVM2S264l8DSI5Rslu4X1C9zBOjR/EFk9WkzUS/I/5JJLEc4EXg2E2YU36Hmy65H3BH93dAJBFnQ39PAlQPe9JaLe/Yzp4K5Vot+fwI090MwIey+xQjCcVW5sql2ocx+CtCHoH76UYVchs6iTd/CMZmWFYLqsu7tLgCxKnS2n0lAHHXH1x82bo0eAXpTPwzwD8ecUYYe0AkPLP1WhfjtNsKkrKr5CB4il9Qu8oku7nodhVxE4kl5sGG3C0k9YP7xVNfTdNBUhKnru+hK88NtpAF0hUjujyFoyDxfwKQ+QVbjjAW6pFUrHvuqXXSJHBiBSOcHc5lUFwT8EvQxJ+i5vg39ec7gjUVtWniBhBuCYUDQEGkFqRW2GjRZjqRKMh+S6ylS0H45NjGmjB2kI7ub4HoZ1l/AipXnuT2Rj2qKx/W2zITx4HsxQG6Vr8Dpl9gsv2Lots5Dp5IFSCVuBqM7waSe1GolkDrwNyKuhlPZf0dDS2YfqUnLAXzhSAqyUpOKDtIR+KbIP5FVh06tFAcjAYwNWqvGF3xL4EhK8ZVAI7U7IdTjSH8TD/DERN/6YlYzVMn8rSy4gqIXwqm7wE4w1svuQ+Me9S9wktC0e29lbAHlgMk8+/ekhaKgnTG/x7A/3oDTNW+C0Ajaiu3assSkzOrmPZLXMlg/iuI/hO1lbe6qje0cEf82yCcrC6Ucyp/qy0nqIodPfMdvl6623Nqg67uC8H0L0OoVrPrNbPsEE2Ilaxza1490IAiC+xbCByIMcqu7ZFKEc1HTcWdbgS4v4h1dH8dRL9000iGsq+C0IwYVmJ2Za+WXJV9duBakHKt/sLoMiSuGT+GXdmKOhrQaqsjfjGIfwrQx4fUfwfMWxHD7Tiy8gF8hiRoK9yfumTHz4ct6eNYTLOHDXaAH0GMlqKq8s+eOrU9MQe2/X2AvjKqHOZXVN5Du6wBddNe1m7POSkIO/9Vw8eiLREIZwdJrAD4Ng/dHK0qA/wwyKrHUeVbtD+y7d2fQJKWOamaMdVpTPyzrB+hunwjiITZz/1P2dP51jE/DqctMVNug0VbMHH8vZg5da/7xrKs4fhAnQPGFU6y0TFSM6SJ8Sbx9zzfsySXI9G/gnCRM2TsUfdMcfmoUvdMPYydNNtyfBJetFOzRCH7YuEoSFxsy8LXGtxPGPfUrkK/8rTqdcbPA1uT3Nq+hw1MpTzo/zcAcrTU+W0F0R0oO2yLb4yNXd1fUTuFomLF4a46JXH6Fn6Amkrvx+Su+GlgOgOHT9js6Q7X0TMXsOXN5XJXY3FbOKQj1mIQCfV/WL/fAVyPSRPWB7oaHzwatTonvg5WSXO8GQOcZVYuqg+B6HaUlt7hKu2yeh9KVIFwZYoZ5u88gy9meIqtyBmDpHqMFNOsyuUSTtLUkHYQuRS3eJ4g1wJU+KSYB+sxZ8aTrqu7qdDZczbYvjUwtg513OFOgLbAJnkYG5nt3ElWcyVAsrKmjotuBpJFWeb1sGL/qJ1tKosmDhRR4RCW+ODJY97BCY7cSNIrG46CdItH7mq9HvpW6zkQVmEit3k+Tw/tkpgRk8mfg3Cxbz3NShA/CsbtKMFm9ONYWHJ84isAOimr6t4LyT1JrHr/4V3UCBKcpD7iSnSN6yOhnx0KR0ESMnnr/ey3J1kszmyo95zE5pGdMzAwIObaXNGgeoLBn8q8E7GSr6Jq+h89y2tPHA6yhbZUrJ7+X7h1OhjKHcTJqpSHKYPFhGs1wB7XoB1R5jyOna3eVnJLYaQz/R7q8E4QrQZJ4NGMv2gLSuMn4bag+SCM15YVRMVQdhDncW5zEP33RabEJAN3g2L1qJkuATV6JkchwXtvr+QnF/ZAyWY1StJOX3qdAyH8AWBthoU2VJV3arkApXstceh9KqOwWKJyRQGVGcNQFEQ9FnF75t7kQQl5tAI1oYTrUTVjp3aPnNBS2VUkLcDYDnHajYRUkfEbEJpg01avpGpwFkvJ+Ht+SL331kwoRyzpovKgjN0A4psidGa/H0wt2pGQ6anZnjgTtgTf5PjC6epT4WfAWINSXo3ZJ7/hqurBhZ0MvzcCKtutm5zxnpr1WPldh83f+rFbH0D3riaHAJYQ5vZlTvxGnp05R0SV33QyGZXe5skVQtzD98QvdvKb8FcBKvU4iT5X551gaw1idrOne4X0asebU5DcfTXA8kicowxUruFJ5UJEAyZV3IGZ1O9agq9BMSqElmRllS03Fywm7sfPvANEq1Baugmzpklkod5PuUj0X5Mi0ZupJ8SPWj7eK6Q7kn/eicq7LHd5QVziosJ0qQlU1uRHmgvvO8hI/RdHMxvLUmzfk10OMfziKpkk1oLwK8+ZbsUXzMYSJ3w4BOK0NFEaWW1I4k7P94r2dOyN8ofKFWOmu28gHXMUQwOqKsVbQZIk+fILRkHSXXvq1YnYs38hoHaVM33pceBC1Hm9HiWHrfZEPCeBR50J8XqViMhL/V+B+WnAaoM9bo22WTuNpfIE7rkItjpCzc0N4Z/GxDIkl2QjmNq0olazaDJYBRnagcHL3bX++DZlMTpvReR1eRNsrvdMEZROPWezJBOq1T/a8i7FJGOhyfO9Qt0tFOPHspR1zrt/lze8s6vt8O2uBVkNqCl/JrtK+qXcK0h74iyQ/XmwtVZbazsSCwF7ee5SPbsEjPEnEBpAE1o8x6rv6D4JA5J1ixcdFFMycqcUEQZuTxEwP+yy54cWV7v6PonGXALQbM/ywhLA8rRgrfJkhRS2T5e0pO4VRAUMYSsUwx1vAceEwUTvXcQJoVyRStN2XFhY67cjHrl0l3Jtqan4reezriw2li0PkeK6Pmgy9fteoS7cPbMAe0mKYDz/74XSZxV8Rc0oQb12MJ26U/ESgJeoQK7aGT9wM//uFWR74gLYLAnnB3/M3eqjsRWDycieqZl61dl9KRjLQDQ3U9G8+J/RC1AjykoaMGvaXz33qSt+GWwV+PQYxtManFX5N88y0+9Vzgv3pzzLC0sAC0+Z1Yza8nu1mxzxe+If5kZB0qNw3Dy2pRhM9HhT024LJDm6Q/Nm1Z4HOK7r94OsVaguvztortiMHVVxLPELnPQDEvGXb+8zo4xAMV2iAWVlLa5iZYaKG8qiOCIHdBgK0hE/18m/kOEnxAiywtK4VVr2aOX41nMemIU28pJITLSwpIjDn1WyEtXT45kg8vV/5apvLwOJ71hAsSO+dlidoT4E03rEqAHVFY9riR+NRXFEYWEoiAQTwX7IxWAYjAfVEUz3RVMuV7RfjgnyYv8JF23nqqiMuRPE9Zhqb/aaxGXUQaTJ9YQfCso6FpXfdoAaMGncJu0oUXWn4qVgW7IqZ3mnCkNBuhK1YO7QmgkhDbOoFRZWaseay+uu81ofEdcWvAvGalixX2uRfI8EtKRdVqRpuCpHGb3cT396d7XL6rVdfNILpSJ10LlThaEgHfFqELrcI3RwDaGzt+pRUrJBy80j7doiL/aE0733JxQJT6hHSJ68zjXJtyKPGFikIvNAnw2lt14bUdY4ukc95tVU3KN1P5M71Y74XCTVLimppbNjUczhEUvMhY94xW6wvvgPYS2sknpUT39aS65aUclxbQFN0ZIRZiXnbWM9bKofM6eiogHtOReszJTzACoLs5vabTH+rO6fpclmbe9hryyKOVMQx937MW3wxqqoXAd4FSZjjVasedq1RZmLcVYgffRbqGS/kp3UIXB2SL4l/oT2ywu3MH6EFZfubWSKG4s3KWpZzZzkUCyK/UJQIbuFOEr6/AvjiCWkYRYFyyriwNKqzH61lXrHOeXaIo+QuCE653ReD8IxmcnpfP5uvIl73OFb1jg2pttVLIosDp7XZH/h1ul0GArS1fN5sK13FNIak2zXMgHjm9y6Cajm/shleLNnQcq1RUJn3T+O6vS7oOvwmyBq82RskTvVQJ9EaYrLS0h3qjAUZHv8dNjKizLkH/cDtBUW1aOq/AGtWPP0uZZJ8mBEwLUlZIjHPv46D6KyWNmVW7W4jdN3KvEadviDQ75ThaEg7TtPhTXwfG6njncCViNKS+q13DwcTtuLwfby3OVzzy2CLlqXB89G2NSg7UYkLIpJdYSSHC/hsCiOOMAwFKSz5xTAdp+008WMuCgqqbseAPEq7VVtkJFDbOth50d0MdRQi+5TRHayCNVO79ByykwfbR2XIckQlgdH2zAUxPF3+VOo05VVY/yGImXg0pVaD1Fp1xaJr3e2/zyLMc8KBI+F+Gl14Z6MtVpWRGm9s/uzqay4wq6fZ6QOYShI+66TYfVLno18/nWpB7kTkhu13Dzkxdbaf4PjXRxxmp/Ms/SOYjyRXbh2ht7RWR5t95AEwol51mM2qswd1i8RioIo//qXR8wiqt/zgGrKIySJ6fRW1FQ+p9WIQ1wgecJlRSygHz8Eptswp3KT9qAUyXdSAt8kACsCvzAURGCQB7m9H10BZvlwBvNQ5zdE8nbTgtiUVq1Yc1kldyslyR+uWbd4+0GkdyAcQdIWRITHWIL7JHyaS36CupP+4AY27xenQR98SX92jJvGc1R2L5g3gmKrtHNjOI+l4oaf/64twvhBdKe6W9RWPKh14RYOsL2Jr6ViTM6LEA3r48rlJTZ5ndai6KtlIQ2inNuBcyMC4osq30hZWbNWkM6B+G7xA8u7nfQ5MDWA0arNHSDeCLa9DLAXgejoHC1oLpvlNwBqQwyrtD3Gh7TofQcZqfuKy7ZviYqBjoQvEfcBapWt115lnRyGXwdIKDl9yEjl8ruQ4ml+L0ajdg5yh0VxYYpF8UsavQi/ikR1AvfBogYky7dpPWKO0utgFCTd2HDTqUQFhvxyqjFXwswnDCaOp637+PpB+/+ykLIoOcFZFhpwfHKTltVOYHLCGMQKJc6CEzWQC7+KeA2TkJMnm7S9hjP0OlgFGdq4k8FUHAflOHJK+Gi6bHFwVapHdfk2rVgGlYePbnTy8Gkkvh+ryxLSbFELKNagHd4rpA4DscWpGJOhaa1dghVicebdIGsjyGpEzXQfwy5GHoN7BXn8laOwf+BY1Ja/qA1LV+9s2ANLU+bBCdpyQqsohNdo9BRrLqkCFJGCZ9aW20HchJoZEoik9+tKzFMsiuk0znpSQq4lAXbUjInj12qH6YbCi9UZvwTAXQCeVHHFsclrdS0EUAH3e9Ks4VE477IKN5b4+qMrN2vlcnd4miRkWFxbskw2wy8oa4w9vkXLo1k+ZXngjfUth01ChRoVR83XnLQFXsJ0w+bF6uq+EEzbhiwfjtnUS6CMCIseNek7AFaDYrdpxZrL/awrca6Krx/RtUUxfmxQlqi6Cr0ANbGy7d4npHRCRF0V8pKv2Rz3g7ENMTSiqvI+raOtcA1T78Wg5FIwXTDINRzGQ+FIxHEHLuUeYzdETl46uWWc68fVrpKcvN51rLmIVvHm/eLtKn5gbzn+UBM26B8lhB5WuZRLCun8D0EWDBxerEbwhFbtXTI6vFipVcBrnkC55A5gOZjlcn9Cxs801wXkAimuLTGq1+Z50h2DYvzYJ8cn8Z79tK6YcOulXIEsatTGK+94sbq6vwKmB7MG0g9+1TSzhU3LwHyhN2aLrHvuraDEmgvZspeHukw9EFy6es8HkmKelWxXUfBAdszSsluUlW7WYrQRXPKWF0s/iScD/LAiKDiqfIvWBVeAiZpp0knusgUQ1xbN2IqDFSVqO6tzhPKBiDpFIFgEvFjeLrjpD0ZI7FT8BhYAyH9zsZB8S8hqKTe4fth66aVxeC12OWxhKVdpqd2b6DPtSL7/n2LDlxfu6nJhw3efktvwYilzcT3sSWu1LrgyqWlPW+cRMo/jEVJfYJpQzZL01BksNdt7v4Ck5CDH1dFhZ8Gzyizt5XhpeLEOWa4cc7EQyHl5IRXWFTspihKND0pexJW7xJAcGO2Jw50EO4qhPSqske86eR7lhVsz85PhxcpyD08z8/G4Rm2T3yDYoizVWbac42L8EEBvAZC3i4j8JPDKavCU+cnwYunOtVD94G4g1oCa6ZJvxP0ZVpqW7ZoHboQtqc8QjVx8upCFUU85dFIzUNaoldoi/fZjeLF8nK10NFwpGrTTcQ3S/Swb/sLqYz8LVVQ65R6hEdWVD2sFXhlerFC+DrGjP6R8/72Yi8UnymI5fi2JTOhoKPAe1AjzU+rNwgvTSVHxYjk+U+IWkA+/dwBuA5Ws1PKHcuzzhO3xsyFpFID5IBqXDwPLaR8kjwthjcONrMl0kpcuQ2H4YuUtLxaeUN7FXszFYj2ycD1YUpnRqTn9SMNuXMW/8AMQt4+JFXdhJsn9z/3P8GLlOS9Wmobfs7k4/iW1qxBfFRmHP/efs+ygLwPUhLJSSZ6pl63X8GINQd6JZ4gGLxYrBshGlNotrl+u00M+QMygWMhn63yDeVcnTYMjHsi66SVkUIYXa5SpHWTzEF6sM/PuAxipQ4zNIKvJW+7tnlNAtiS2WZx/tJpZzYKTy6NkynrtIDfDi5UV0IOF8oHNw02X0+Zi3fTU0pZQHO1OzEtl3T0nrymOGH8DQWhwxK1Fcq24/0WVF0sscJbVAGvyGt0FwT+Ht/DZPNxP9PAajrmYqB5Hl9+h7V2sKI72i6+UHMFySO0/ZHDi6wVK0+Dco02DE0VeLMbbygKnG+l50Ffln4IMFZxm8wBLbvP8j39WoPJqj+ZiCzt6zlPexWChOAo/NkPduajJU/LMKPJiAeJhITFKDTi64k7txW6EJTcYBUk3FM2Xa/1UzelxO+zw16fY4T/ldasbs76iwaENTi6P8ke124omL1avcvT04vKSAbBgFWRo4+py1y+v1uKhmv+JahxzsXgXix+YPv+SQ3Ek7ypX+ErIxrxDna8njtuoHbseteAz+Z6cALQ7lDu9Ltewi1UkPAUZ3FUysHm46H1YReXoIiZRL7Q7ztElTXH0Rc2uv5qiwWnQShLkfGCSfu4ixYsFnhuJ8GXVb4kxkWSu1KbNNawBevgKMrSTkUtUk0okKu7dtdPv1/YuVpff5E0gSNKZDFmYUh7NjpOgeDQLD637XxR5sRjvAbwOsRJhjwwvs/IQdHOrIEOnWc7AEI4oXBaJ8FnwLhCawOPrtV2+xfL3VlzGK0wkdcPCaBXpg6LBadOOiYkkLxbS5HwNmGpv1uYadr+EjFgjfxQk3b3B8NkbAZzm0zgDFiOBTtYq1FZs0G5IhZgmlwB8NIgaUVP5hLas9hQvFrAwGpnA1NFPIiubAdmdyxPaY/e5Yv4pyLAjmCSqUV62V0fCH8oPc7HuBEeTF6sfoK3KAuclIE4Xsyzq5beCHNhVUhSaJFmd8i5RzWgwO24dPHmdNhlFpgmMJi+WbBcvONh4YFHMhI1P/0dDQYYO1nFtuQlMi0A4yiccghOTNhcLy6SXd4qhPYwiLxZ84BoObpZGlRw9BUkPRS64b/dcCraXh5Soxo/pkZQRDVrm4kjyYqm7hff3Gj+Q15QRXQU5eEUNKlGNJrBjV0uZiy2qR1X5A/G5XIcAAAPDSURBVGOai6PJi/U6LG5FsmyV9ntNILi7F1oYCpIe9+AjmFzs5w7S3rsHJrwaI5iLo8iL5ZDh3asscLoZucIDPeuWCktBhg47HbcAWxLdn5g1IjktGEFeLKFTVV4GVrNWTsec4p258cJVkMFdJe3aIuGzX4tEItHM85brEnsBbFKWqDmV23PdmSDbL3wFGb6rSKKaxaF42QY5a7mTHbzpOndjG7Hl4lKQoRC0d1fBUu8qkvY4/5nhc/XhCAUQrDZYlnAmv5CrbuSq3eJVkDTi4mU78MEigMQP7HO5mog8a9cG8/2eKYDybFA63TEKMhQ1ManaA7KrLAToMB1AI15HfKAaUVrapE0BFHEADu6+UZCRJlSY4fv6rnJIGWhWgc358OGkOXcdgvB2Lc7dAgbIKEimyRXXlgG6EWBJkJn/ri2ZxnPgf37GyaaLNZg54/2sqxVZQaMg2U74oGuL7CpnRyMF2iGDkyQ3awBeqc25my1eBVLOKIjORCq2cqxIEcgdryMixDpO8lSJgjym/HY/GT9CHEPOmjIK4gV65W6euBAMudjnmWuLDxGPXrApkLpGQfyayHS+EVasLeV+iXUnx4essu4aLPjSRkH8nmLJN9KZEDrS5eG5tvDzKlS1tKQNs6ZJim3z8wkBoyA+ATmimEd3Bejawh8AWOf4Q814MshhFLNsoyBhzb7j2iJu+OLaMtFDs10q6Kq0dBNmTdvnQY6pmgUCRkGyAMnXIo5ry7Vw4uvPyFL2q2BqQcyqR/X0eJZ1TDEfEDAK4gOI2iK6ej4PToqiCGvLcNcWxdCObYihAVWV92kTxml3zlQUBIyC5MN3IK4tAwNXqvh6piNBKm69WZswLh/GVCB9MApSIBNphhEMAkZBgsHVSC0QBIyCFMhEmmEEg4BRkGBwNVILBAGjIAUykWYYwSBgFCQYXI3UAkHAKEiBTKQZRjAIGAUJBlcjtUAQMApSIBNphhEMAkZBgsHVSC0QBIyCFMhEmmEEg4BRkGBwNVILBAGjIAUykWYYwSBgFCQYXI3UAkHAKEiBTKQZRjAIGAUJBlcjtUAQMApSIBNphhEMAkZBgsHVSC0QBIyCFMhEmmEEg4BRkGBwNVILBAGjIAUykWYYwSBgFCQYXI3UAkHAKEiBTKQZRjAIGAUJBlcjtUAQMApSIBNphhEMAkZBgsHVSC0QBIyCFMhEmmEEg4BRkGBwNVILBAGjIAUykWYYwSBgFCQYXI3UAkHAKEiBTKQZRjAIGAUJBlcjtUAQMApSIBNphhEMAv8P0NvPjO6LdL8AAAAASUVORK5CYII=" parent="1" vertex="1">
          <mxGeometry x="601.5" y="-323" width="50" height="50" as="geometry" />
        </mxCell>
        <mxCell id="-dllcQzm70aawtmvtiuD-11" value="Redis服务" style="text;html=1;align=center;verticalAlign=middle;resizable=0;points=[];;autosize=1;fontStyle=1" parent="1" vertex="1">
          <mxGeometry x="597" y="-271.5" width="65" height="18" as="geometry" />
        </mxCell>
        <mxCell id="-dllcQzm70aawtmvtiuD-12" value="" style="shape=image;verticalLabelPosition=bottom;verticalAlign=top;imageAspect=0;aspect=fixed;image=data:image/png,iVBORw0KGgoAAAANSUhEUgAAAMgAAADICAYAAACtWK6eAAAXu0lEQVR4Xu1d23kctw4GR3k/TgWxpAKiFHCsdQWRK7BcgeQKrFTgdQWWK7BcgXdzCohcgC6uIMm7NTwfhrva2/AGgLOzGuyLHkRwyB/8CV5AwID+FAFFwIuAUWwUAUXAj4ASREeHIhBAQAmiw0MRUILoGFAEaAioBaHhplIDQUAJMhBFazdpCChBaLip1EAQUIIMRNHaTRoCShAabio1EASUIANRtHaThoAShIabSg0EASXIQBSt3aQhoASh4aZSA0FACTIQRWs3aQgoQWi4qdRAEFCCDETR2k0aAkoQGm4qNRAElCADUbR2k4aAEoSGm0oNBAElSJ8U/fXuGezBr/AA3+Hl/n2fmjbUtihBtqF5R4RjsPUIrDkCA6PWZli4B7DXYKprqOELvNy/3kZzh/xNJUiX2v969xyq+gysOQUDz7I/jYQx5mJGln+y5VUgGwElSDZkBAEkhrEfvZYit0oL/4Cxl1BXf8DLfSVKLn4Z5ZUgGWCRik7vzsDaC5LFiH0QLcqeeQP/3Z/Eiur/aQgoQWi4xaVwn2HsZzGrEfyiHcPx4dt4o7RELgJKkFzEUso7cnwFA0cpxUXKWHsJo8M3InVpJY8IKEGkB8M2yDHvg5JEWpugBJGEdJvkUJJIalItSBE0JzefwZiTInXnVGrMK3ixf5UjomXbEVALIjUy/rw7AWs/S1XHqgePga3Z1yNgFoqNsBKEjyGAW1rdFTnKpbbP2isYHb6iiqucQ0AJIjESpjdjAHMmUZVoHZV5qXckPESVIDz8nPTk9u9eWY9Fnz7B8cGpRBeHWocShKv5P+9OwdqP3GqKydfNXkQ9g4kAK0GIwD2KTW7xQrDdG5dbt4i8/QOODy9EqhpgJUoQjtIb71x7x6miA9kpHB/0mMAdIMD4hBKEAR5Mby4AzDtOFZ3IHh+onolAK3BE4Bqx6e0lALzmVNGJbG1+08dWNKSVIDTcnNT0Ft3MjzlVdCJrzBt4sY9k1l8mAkqQTMBWik9u/+rUY5fcVt2oU6FTglCRcxbEcsS7k1WCULFWglCRU4JwkNsZWSUIR1VqQTjo7YSsEoSjpp3ZpNu38OJwzOnqUGWVIBzN78oxrzotkrWsBCFDh5t0vSjkwLcLskoQjpb+dzeC2n7lVFFc1sI3GB10FzyieIe6/YAShIv35PYeDPzCraacvP0Ax4fn5ep/2jUrQbj6/fPmHKx5z62mmLy6u7OgVYKw4IPZc9saY+b+h1tVAXn15GWCqgRhAtiI9/XJrUY3YWtXCcKGsLEi/XsXoptzCc1q0AYRFJvo7fV1r5ZZ6uIuolq1ICIwNlbkCEw96QdJ1DlRSq1KECkksZ5+kOQLHB9sP7qjJK5brEsJIg0+kqSyf0lXm1yfupUkQ5VSUAmSgtJ6mcZS2PdgzavW8J7btCQu7OhLfWJLUeymjBIkF0dHDgz18wwsXM8G42YaNFfuaiu37EqSXK16yytBcqB0uQbxme0iASemQXOWZDMDLcbsrSxGWS/zbt3af72HAkqSHM0qQdhohXJ/xAYjRn6v7VjYmnwCsPfBsEOxdrFBefoVqAVJ0XFSYpyEo1UMU1rbczDwa8pnN8o4i3EFtbl4DCcae5OiJCFBPRdSgsTgSyIH5AWJxqXaXn0C1mBOkaPg3QneiBvAS8iJN3SPkiSmRfL/lSAx6CY3H8GYUIT0PHK0fQ8J8xM8X/nXD/gn6yQqRBIkmTUjTagTU7aeYuUhFHch6delXBtJlBx5Ol8rrRYkBp/vuLavA2+VJFOozYlajpiS/f/fXYLgwN2DxRuMB/heLA+G24dMHjfXfSXHXM+OJOBNnoOnag8wESGO08MvYOEIrF1EkZ+nhMBDAoDFEbix12CqCTzAt2L6ovNhQ7L/BGlcyfEeoT4Ca/Bt9VE0mxPeTcBMETVMs9byPnDnJAG8IDRHIoNLUJHJVc0T/oQuOUOVIQ57cAx1fQJgTqK6CNXl9DSBqrqCF/tfkvvQYcF+EqTxZ6pfN6c8Zm3zSgGnmcXsFdjqQ5As7hj2bHbxt5mVCQcHwHMRwlH6wZVZz4aVQxK3H3vHJoWvD6gjYy+hbnTUm4xY/SLI9O412OaeoFwUDhwUxoyhhi8rVmDZyfAp3h34UsXFSIKRWx7qs07zv1uYgDVv+kCUfhDEEeNCxFqkzrLNjGXO4Xj/k3NTn/lXzeWfEkliOdzbSNIsKev3kSPuVLSJ5ewY6uqPbS5nt0uQZnay74tajJhqcLYC+Ln1dhtJUpm3O59bY/2QoQ2TZZK4pSbqZeFzFsOx1P+XJ7JS3wjUux2CNE58zXq2//GankrymVSSNIcbwYvRzeHkbvvxtAr3eu7Eqqpw4nE/iwcb9WzZbPCkK99509pLsNXbrq1J9wRxy5mPBKsxde7j1TX8gPvW9SnW/RM8g7oeAZhR1I0jNiM9FXLM+5lCkhgmi0H/HSo7hofqirRXaKJS1iOw5jTZidNZOdybbHpOp7Y7s1y3BGlb6/tPNb7PCIE+SOgyTvu58KDoKpKXS9A80YjoHJIsnCXHooPU7ZFwNRG3LB3vDbsjiO8UZX3YW/gOlbkQX/e7Zd05WDhPCqzw1KzHMs40knyB2pwWXeK4PSk+Cwh7O3dIkm4IkkKOUsRYJ6AjCqZvPouapKccOieFJKgTsM+gqk5ZVjwK9FoBDOdaw0XEy7mTp8XlCZIWAb17nyG33LsMzlYdzlS5Y4hd3hEEX0euehEv9hjfGkte17/D6PAN+3u5FaQ8WY7d4eR+s6V8WYIk7Tm2GH3cPYlFv6XfvVg+VZJMbj57L/+aUyk7ebSyeIK0HZKs+sC1KQmP6UcHLwW40FpFOYLEHhrhhq+qzsX3GhSkYrF13bvz34quvyntpsqEEv8gOXDSWI9Yvy2SYB9jD8IKHqiUI0hs0PUtflN0n7RFS0clQptcKG5XQw5zAdZ+bv3kdkmCJ5l+S19ov1iGILHgaX09IYqRpG+kphBncoshixZu6at1fAILo+C9xLZ0FztUKLTUKkOQmBKOD0JPWClql5MJP13d7aVWaALAJa+tcMOOXrvhGMPbI0k4/nGBdskTJOwYtxsJXSa31/7TrYToJXJ0la1pcnvnPbVato4pkSG3lbkqNL5wrzg62JcETZ4gPiXMZ6iX+5tRCCV7JFGX82RtzxrlTrX2d27DHl4+bgaeCJGkwEydpbaQlRdumyxBgmmRd2zmDfWl4KlJ1kDJKRyyHj5r0EYS4QGY04XHsqGERXg3Mjr4jVRv8XuQye3frS7SeCM7Omi/kKL2ZP1NOtbzYn9KrW5DLmxFxE25WLtzT64gMnEtH7ikkuPPO/SpwtjF+Dz6Gly8AFkHw5AVETzRkrMgobWhVK48N6OdeZ99uqe1E9irPsB/9xfu1tTRF1qWpA4W6rcl5XyDKXXZizi4CcgFg1j/NbHDqnuw9fPgk1znso4PoPhPaoNp7+SO5OUI4lWCQCJ7yus2qWeb/jzo/YqJFSKUz7JDZkTI9W84vWBgvbyEPVJvO/xjTszCyxHEt8blrtfp70fwoQ7foc23F8G6Rwc/S070ReoK3UlxLHvMUyLWGQndhFYtQsssGYKElMA5DmxLNxADvu3/HLBCzpacein9oMigZ+y62wjWg8ur0SHtSS2XHPN+cEnifOn+boWFOzHPKpUhiM+thJOKWEoJzWBoLAn6UtHWvpMbDPCwCFL3qJEdOJmb3vpcNOgxhWMeBzlE5vq5TW9xr9n20Irev6X2CxHE00gOi4NHxjkamJW19gpGh68Ikugs5xtk/b/4nNyiS/tmGCXO8irmZ5cPMn0wey2kzKWhDEF8+w+q75KzHnjrS1sC+BREbY9PCfid4wMZDPMHVZrE9Na2FqRiETw9SmtSaynqUjy0BBbQjYxyfUqozc+kG2dJE76qDdpMVVgJjGEVFg3vDWm6kbcecxP/BxwfXmRjESIslXSiS6xQA6kM9i9psvFbEaD66oSVQBtovJ6kSZcgduhGPq1VvlL05aq0lRQliE8JnNtz/7k9TwWcJVFBJfA75amhhG58OEh0gj6hyi4jRQniP4uWnxEklEBdez8lggDQdFNq/zHXK5Ugvstcqq6VIAQ3FJ8LPOc0SILwoTr8FoTm0Bd7CMftD3VA+456qfWJEsS/zqXNUti4kmacernnPW/v8V1IiT1ISd1QLUhB684/xSqhhOCDJeY0RVWCb18kMEsxe+QXL6Ib36WpQC+ouuk1QUIzPr3D6DWaFyo0RT+cm/2CSkhpOqlMyBWjb7oBoDl/lnJzmgHOtyAlCBLLZ0EaLQBAvdnf1WPekG6olq/UHRX1+UAJKym6BymhBKxTepmV+vahjXyFlUDle5Kc93CBEZzb/wQgqUkbhThXAn4vB/oeuABBPA5jjA1sWsjSDIUw2uJPX/YNRgfl0sVl9M5b1P/yjj6ApC085ySwhDOmPEFuxp5g0HQlNJbpBoNMvxMYJ7T17fzDu+ysGFoSUV2B3KpBap9Ic//BNgTd3c0biaidMnuQUkqQUAQ3p3kHbw4EJgB/FaH9E2fmdroJRzuMdYxzaIJ1h8cdRp6hPW8QtyAllcCzJJ+gNuckh8k5SB0oITaO2P/37+fos/ejdfWuHmLNFvi2h6CcPc1aq2UsSHhTzQcC63d7EvT2TMlChEl4MDD2VWOGMYNtZT6QTK5vluTOfrHhI/n/kLu+gMcruAkSdZNyND9t4v9yg2oEJ2XGAUQxgpRWwrzhzbl3fQpgjprkkJiNCGcMA/dNAklTLVK2rb9KzD1KDB0UUI+MJQd+al1hHyqZCcztCZ4v6ea50439F4y5bqLN1E0+Q5nwP+GwPyLLK+ySnAXpSgnpg2Iz93nT44zNWyjGsMTMm9oXiXKh/cKu9SXsE8Y7GCpmQWIb6i6VEEvck0KS8IWYqBIkxn+0jpA15DxHjn64QIHQxEW9APU0U86COBN7BJX9q/VbXSoh5bY3RJJYejKqw2OBsZJVpT/AQZ5lzfqocOHw/Zj4xCVLEGdFfFEm6K4eFIw5JAk/K5Vbs1P6xZEJWhGBGGKctqXIxlYGwtZDdg+y2ETjicadt78FOuH9VowkbeGAUnJo7EKEeh8ou5r/JGbVQS7c6DJ08haksSKBs3FujKqUmWa5TE7Y/6h7C8NdJbfdpcqHgnLjNwtlamJ1JxYjjeNnF2lYGYK4DmESml/a9yNwDda8ZF3g5SDeTpLVpVLMfAtePuU0vUjZmC+Vi2v8qjP9hDqZEpeZ6xEQ+H4ZgsQ27G6mwnRmqASZc/HYSFolSR45sO5d3Zh7l1qRG3CXg/xNZ/ppa2dSXOayVr0cQbDDoctDR5J/oGruJdCnp/zPkWQEyzkSl4mDl3+1Od1Iv5ZyLFy+9fJfiPlScWPnclqMVq62HyPBA3lOqAntK0uQZj+S4vVpzuF4/0NCe2WLNHktjMt9MSfB5vJwd0+tYmjFMsc+ytsx1E1ej/Lp8xrnUDgDaFxX/D+uE2oMm9n/yxPEkcR/9DtvKJr0PfOW7aOT0nHcjD/Y948xa9ctxCL12NWKtUmpexfKuOxcR41vWipJ0JoYc1FsIpsTw9rzaMjZjsjRzJud6TPJksxOUdzal+2qvNE3R4x3K3nCfcsnXB4+VJedzJqdKWH2hmIe93jVak78mX2XGoh7RyRKDV/EsJnevQZrx1FiuGX5N7BmJPbtCPbdESR5uTVrMd68m+qKrQicmfbgGOpmZhqt4dG+fJrvS9xGtbvTttJEaTsuxWxPo8M3zadTJ7GF1cd86nMdpU9ojccFHIOtR5nZqTpf7nZLEAQ2tnFvGyQLsnxLOlV5VIA9aSHF6hfWLcj07t3K+vcpkcS31F0mCU4OdT1uz4cS3BMgQdC6LHJDGjwublIvuCj9eEACgF6+eQld8Z6jqvD5QnuOxIITS/cEwc40S536KlsJy/sVwISdGz90f89/I44keYArMPZzK6GeCklSc587z2wcjPG3NwUH56zq6ezRWzfXAWv92Q5BsBHNpqzGN+dn5TGOfuFTM7P5BkTH695oazkF2kniW2riUSvuDdovfDntiMnixez80VusbMH/b48g8045D+DxVmYrHPh75rw5OfOd5jwlciwwR08HtymPvYx0ExnmOcT7ofJEaYhhx305INk+QeZKcxtjvJPowqxPwZjxxgXlOkl2nRy4n6rhQ+uJjwtGMc56s+9cVFBHvxeYtL+AMZedXRondqA/BFnMbu59s8UNdlvizMSerRdzTz+voDbj4EZ/TpJmU+k5TsQ9FPdNNbEbyWLzw5AS+yfco+zVJ2CbZ88jkmWZ6wM39bj/6+ISMhm8RcH+EWR5GfATHEFdjwAMnn5QLMu0eadeN/cZ6Zs8JAn+2pT2eAS8dDxKAL6oyLpzZmm/t4YwcAS2XjogMYvTK3yPjj+Dl43VNfyA674SYl0v/SVI2wjC/cpP8AwsPAdbtx8VVtUEfsB9kYvGjYHXQ5L4o0BiKmy800mfKIqyeDcq3y2CbBNT78DrEUli71mekst+R2NBCZICdPT9RA9IEn3PYv8FW6GLhlqQFJ3PyihBUsBKcehbvo1OqRPLNBdyzd7KLRebNbx5BmDvwVTOdQNvox8APQj8nrQxcjT1ZIQ7Sm3/AMopQVKVLEUS5wbzuzuly7j1d+42k5lv2qrfUywdgZIjVcsb5ZQgOdDFSOLeRh+1HhC4WR5d7NcdJnNa4MqitbLN+wxHFFf3Vetxq5IjH98lCSVILnzeG3fPGh+XUaZ+9/gwK/d7vvLufcb48SKwtV1lIn1IdWEX6lGCULS07s/kLMfmBjjt2SilBQuZ5bfjqyTp3DWc15F+SitBqHqZk6RZ8rSQY3qHz0bRx6z8D63Jnnn16FO2V5/Ci8Nuvl2+d1v9ghKEAz+SBH/rR6fLb9059efK6n4jF7FoeSVIFKLMAnJp4zI/PCveZeRKWgt3SkoJIqmu2IWi5LdCm3drfiviatNF+3v2DSWIlEJSLuukvhWrp4QHb+ybT/T/ShApxYZyVkh9I6ueshEHs5qyw4WVIBLKizkJSnwjtw4XFRFTkZUP9pbbth0qrwSRUFbvrMe8U2pFuOpVgnAR7KP1eOSHWhGuepUgXARzg61xv5crr3cjuYitlFeCsOADgMntXXYgNO438+TV5SQPLyUIA69V0XA6YrHPsCrCzfro4GdWHQMWVgvCUf62b81T266366lIbZRTgpCha3IxYmTId5wqOpFVgpBhVoKQoUvMe8KpX0xWj3upUCpBqMihXEpiIE79YrJKECqUShAqckoQDnI7I6sE4ahKLQgHvZ2QVYJw1KQE4aC3E7JKEI6a9BSLg95OyCpBOGpSgnDQ2wlZJQhHTTtxk27/hdGhi1avv2wElCDZkK0JxKIacuvny6svFgNDJQgDvEZ0ejPuSZ7F9p6oNy9Lw0oQFnyzjL21/cqtpoi8C2j3XF8V0tFVgtCxW0j29rhXb9C56lWCcBFE+T6+KlTrIaFZUIKIwNhHvyy1HhKqVYJIoIh1rAe0lqqXUs+up6+m9LmQjBJEEtheRFYM5CiR7OtA6lKCSCt6np9cut7U+uom7KjmIUzFK1JOCSIE5Eo124p0once4tpUgohDOquwS0uCJ1Z71UmTH0R/oggoQUThXKusyTBVX4Ix/yn2GbchP9VlVRmElSBlcF3U2qR6thcA8Fr0U2g1DIyhrsZ6Uy6K7EplSpBy2K7W7Dx/MS0a5kXn/j5Bbc6VGFwY4/JKkDhGsiUaotQnYA3mSf81o/IvYOwEHqorTY6TgRqzqBKECSBLHJdfe3AEtna5DsHgX3y7cQ9gXQ70qprAD7hWa8FCmiysBCFDp4JDQEAJMgQtax/JCChByNCp4BAQUIIMQcvaRzICShAydCo4BASUIEPQsvaRjIAShAydCg4BASXIELSsfSQjoAQhQ6eCQ0BACTIELWsfyQgoQcjQqeAQEFCCDEHL2kcyAkoQMnQqOAQElCBD0LL2kYyAEoQMnQoOAQElyBC0rH0kI6AEIUOngkNAQAkyBC1rH8kIKEHI0KngEBBQggxBy9pHMgJKEDJ0KjgEBJQgQ9Cy9pGMgBKEDJ0KDgEBJcgQtKx9JCPwfz5zX277CHFVAAAAAElFTkSuQmCC" parent="1" vertex="1">
          <mxGeometry x="673.5" y="-321" width="49" height="49" as="geometry" />
        </mxCell>
        <mxCell id="-dllcQzm70aawtmvtiuD-13" value="MQ服务" style="text;html=1;align=center;verticalAlign=middle;resizable=0;points=[];;autosize=1;fontStyle=1" parent="1" vertex="1">
          <mxGeometry x="672.5" y="-266.5" width="53" height="18" as="geometry" />
        </mxCell>
        <mxCell id="-dllcQzm70aawtmvtiuD-16" value="" style="shape=image;verticalLabelPosition=bottom;labelBackgroundColor=#ffffff;verticalAlign=top;aspect=fixed;imageAspect=0;image=data:image/png,iVBORw0KGgoAAAANSUhEUgAAAN4AAAA4CAYAAACSekYoAAATbUlEQVR4Ae1dB3gVxRY+1CBN5RF6DxCQFgg9IITeAp9gofgACyGA8BAURIw0AaUEpSdYeYjSpSlI71ICCEIIAaRI6CShPKTJ+/4NczM7O/fe3b0ll7DzfffbmdlzzsyenTNzzpkzezNVrd7oEalSJlXJTCGTYRKGEcx0y8KxOOAzHMjsMz2xOmJx4CnigCV4T9HLth7VdzhgCZ7vvAurJ08RByzBe4petvWovsMBS/B8511YPXmKOJD1KXpW61GfMg7Uq1uTAgJKUflyAVSlckUqUaIopaTcoJSUm5Ry4wYdORJPhw4fobhjJ+js2b+8yp1M1naCV/ltNeZhDlSrVokavVifGr9Yn8qUKam7ta3bdtHipato69ZdunFcAbQEzxXuWbg+xYHRI4dS+7CWLvUJAvjtdwto/4FDLtFxhpylYOFSI9VArm9mWxvoao5aJc9yoFixIvTj/GiqGRzkckMlSxantm2a09Vr1ynuWILL9OwRsATPHmes+ieCAxUrlKOli76hPHlyu62/mTNnVtRVykS0L/Z3t9HlCVmCx3PDyj9RHMBKB6HzVMIKev16Eh05Gu/2JizBcztLLYLe4MBzz+WlqVPG0p69B2jDpm2UkPAnnTt3ni5fuUrZs2Wj3LlzuaUbDRvWpQcPH7rd5kt350pwjSDK9NgoTLxwkRITL7qFYRaRjMuBLFmyUJYsmenevft2H7J8+QCqWzuY6tSpQSH1a9uF03sjPGKwIuR64Z3BmRa8Z5/NS51f60AFCxSgIoULUZGihahY0cJ08dJlunTpiu135co1unL1Kp07l0hxx46r+hMzO4pqBlezCR706V69B6lgrILFAVc5UK1qJWrZMpRatWxC+Z5/zhS57Tt20zsDhpnClSGZ2kDv/NpL1PnVDlS8eFGb0DDihQoWoMKFCrKi6lqjVlNV2SpYHPAGB34/dITwW7RoBWHLoUqVioabbRBSh17q0IaWLf/ZMK4MwXDI2AdDB9D7g/sqQicjaNVZHPBVDvx5+iz9u2c/2rlzr6kuhoW1MIUnQzIkeB1fakuvdAqT0bHqLA48MRzo238ozY75znB/a1SvSvXq1TSMJ0MwpGq++koHDY2du/bSr+s2UWLiZcqcORP5+flRjhx+qVe/7OSXw49y+PnRhYuXNbhWhXkOBAaWVTQPRuHmzVv07uCPWVG5FilSiEaPHGKrA8zHIycQrkYTXOtTJo+27Zex9vbFHjRKyifgZ0enCl5EeA9D/WnVognt2rXPEI4MWLfgPfNMDipXtrSGxsxZ39DROLXTxHjkioasVeGEA6GNQ5xGaiB8SozmCCy/lMwIS82a1WxCh65hwxp1Zmg5eTSv3YbwlShelNq0bqa7zapVXtAN6whQt+DJAk6PHUvQCJ2jxly51zu8uwY9OmauUod7bEsCFYsWr6Br15I08HxFRG/1TLdu3RY6eeo0D2LlnwIOTJ/5NQUFVVY883oeFyccsJ3x8OFDPeB2YXQL3v9u39EQKV26BGElvHPnb809MxX2okTHjBpK7dqqDdsdO/coTWBGh7rACx42TydNnmm3C82bNVJwRICT0ZbgiTzJ6GXsG2Plg7dTT4LQIWLmzJlzesDtwugWvPOJF+nK1Wvkn/9fNmKw5/r1eZO+mDaH7t+3v5lpQzCRadqkoUboEKEwcdIMhRpUHQh+zpzP2KhXr1bZlpdlZOqCp2LyZO0/iXXfz1+i6basTgP0BFSsWLlWUcn1nmxA1MyZM649mG6v5r1792jZT6s1rXXt0pHmfjudGjcO0dxztaKAf36aNEF9eOKff/6hiZNn0hnu4CI2N/lUqVIFh9sdVQQ9/cKFSxTroWBYvl9Pch7OFKwM/M+Mk8ZXebBq9a+6u+bMjNFDSLfggVh0zH9p2/bfNHQDywdQ1MRRNGrEEOXErwbAZEVM9GQNZtTnszV92C7pU5CdVa9QoQJUVdhAxWr36JHweVFNy1ZFRuYAYj6xya4nuUPwdKuarEMDB0XSxvVL6dm8eViV7RrWrgWFhobQvHmLae68BXT37j3bPaOZ//TvRSVLFFOhLVi4nGTqzTZhxQNS9aDKtHLVWhU+Ci9ULE849sEnd3rm4LRBGBxLsCHgwmepW5dOCo/y5M5N2BIQE+Djj5+g5SvX0ubNO8TbHiu/P7gfBQYGqOjPjp5r81qKWxMAxHPxsbUyGGxxwAMaEd5dUecAwxJWzE2bt9PsmLkqOuy+7BrWriVVCCyr6asMltWJ/WT14nXDxm2E8DJH6dr1JLpzR+vvcIQju2dY8ECkSbOO9MnoD6h1K20IWO5cuahPRE8KDW1AMXPm0uYtxgdPm9ZNqWePzqr+Qp2cFCV3mCQlpdChQ0epatU0Vy88VbIks+/cqWa2b9eS+MF1PM9JWzfgCHr/vX62siwDXPxCGzdQBj0GrqdVOkwW3bp2UnXn+PGTNqHDDcTjilsTqFMJngQGe38iHmsIAtk+rJXyrG/3HkTx8SfYLc0VExb6aebcndhPDfHHFXrsfPDFHUk99Rug+NHHn9LwyPGUkHBKioVZKWrSaHpvkOOBpkLORMoqMHbMh6pqhPp8PjWGHjx4oKrnCzt2pXo5WV2Z0iUJKrCYRPsOR/z/On9BBLOV8aKxCf1lTJTth7K9AcALHYhg9TKbMGC/jI4yi64LD22Im8i3bt2mt8Lf1YXvDMie0PF44OWUSaP5KlUe/MaEZY/nKmAXCno+eGRvvBtt1tSKxxpZs3ajYm+90aOzskKJKhzg4Hzx88tOY8dPYWgOr8OGDlDdx9GPqdPm0MmTjl3927bvpj69e6pwg4KqUDw3QyGoW2bfqZCEAmZZzMqqFEzK9kXkiM9U1bJBdoybxW/eSosYgUOHXy1ACAMLx1n4BHUU7a9YuYavdkteGfCT1QOeCZ2nVlloF3gm8bwcW+WhevIJPNXwn4jQT7ZCyvgGGoCZFf2t7skP8JcuX6GCBfz5Lqjyv+2OVZXNFlwSPDR6+/b/CJuQGPhQDxu9WE/Tl04d2ynfsIjWER8n6thfTI2hzVt2amiKFUePxisHISFcLMHOW7DwJ1ZU7Lts2bLZysgwNZO9XHGA16yRZq/xiMGSetmMHB+fpppgoAQFN+HJaPJQMaGe8alJ4xCPCB4fAsbamzBphm1AszpXrhjMy1euIbjsmaCAHvjNh7OhrkloiGLz8e31EQIdcG/i5BkaWx+C+/nkMaqJCw4ztGtkEsHxNXuChy0zmDTuSKZVTbFxeITeHRxp1w57vevLVKZ0KRFNVZYN5vsO1EsVMhHt3rNfVSV6NitUKKe6j3ODTK/vEAbbTH2cCYIkc4CACF60qFaKzgnAGXXcYMZnkwHrbDDnrGF1rl5TnUDqjwN9/8MStws4nHHYc+WFDn3HBIdVn0+wxcQkPjscZjIHG7SHWY/jLxkNvD9MZEYSv08t4m3fsYdu3b4tVpsqu03wWOvzf1hK3br31cwyuXLlpObNGzEw6TV2v/bDMvCGBdeoKoUXK0U1AFsHvJOl0guBKhQIHUJ/8ILwgmsJX6kSVUfRsBbvF+U8dmhIhFc17qCAk/h8kq2k/H2jefRbtOsg7CwowSg9s/Ciqq2HDgI57CVRTQWcOJnaw2X1/v5pASKsDlesmtjDdFdyu+ChY3Fx8ZpZW2+Hxc3wfPmep/Be3QmC6yxB3YVqwycWxVKqZHESPZpsZWECJNodCALmkzij1hLuizO2WceKo8HF98dMHkIsqrKYIAYOjjRDzq04Iv+NEhc1EKP4OXPmVEVA8fg4RmT2ffJ0WN5lG48REq9nz50Xq+jBffteSQX4EdFHkeNp04ZlqtjL2rWqU98+bzidke/evauomwgzYwkOFvruR6pcuaJyXInV48rUQCZgolrJ23dQizCj4lq4cKpKKqrGolrEO1b4dpFHW6GNQpQIf3aPTQCs7Imr6JHFRBU58jONhuKJtp3RFPkPeJ7fKGO7BqqmzG6ThXwlJqrVWUd9sLfarf55nVS9dUTL2T2PCV5ZyRGi60nJzvpDKTdu0vDIcTTuk+Eq2K6dO9KJhFO0bPkvqnqxsGfvfuIFDw4WxHHi+4t8Ovj7EWKTAwSAJcyaUIGwMvADgQkprtjERWJ2HoNnNNiVd6ywOtCE69zV2ZnRM3oV1VbF68d5Xo3S8zQ8z2+0Bb4tmB+jOE2OHT+hCCBMBEye4sSFSUWmftrrs8y+O55wihAt5e7kEVWzdatmVL9eLU1f9QgekH5Zs5FWrV6nwY/o3ZNEB4kItHvPAVVV3rx5qG6dYA1e7OMDnEx4GBJTF8WXuHdfqv3JrgyewQWW10ahMGHlYbEvl15Cx/rBX2HricLI30/vPLysovkA/sE5BC/mVzFTlDx7D3x/ManIVkYehs/D+86nU6fO0LAPP3F6xIzH0Zs3tOI1a/oijR0zjJKSUygl+YZyTU6+QcnJyUoeXxnz989PdWrX0LS//8Bh2u1kD4SPlowc8SmF1K9Fz3NfhSpQID/17/cW9ev/gYY+qzh9+iwdOHCYqlevwqpo0MAIgq3IJ+bNxIFSPsEzCYFh6ie7x4SIXVm94slcmToTszpcRY8d6kQ1D3WwM+cJqlOH9i1tqypP0x152HP8XiGz+d4O982vu2FCMxNHCw+tzPvpiIetW6Vt9WD/98PhYz12RtOQ4AUElKSsWbMqR4PYssyfg7P3UMnJKTQ5aib9/bexc3u9eg+mxQu/UpHFStr/nbdp2vQvVfV8Yffe/SrBw/kpPuF4ExM8cbZnZdG+Yx44XPnBy+BE75noPoeKKa50iMWUOTVEoef77moeDqIh7/Wz2amgh9UCIWNGB6qrfdGDjw9rsXcCePAefJQ5YnBvb+xB5TnY+9LTBmDatW1uAwUf4EwxslrakHVmDAmeTpoasHGffqH5pqYGSFKBE+HTZnylrHL87Td7diGcfl+3fgtfbcvv2LFH4y633Xy8yrDzg6LxDXvh+zxLpPYdo4GXy1YNCBQGRgVB1YT9wScERYtpoxeDoFnbGEwQdthJfEKQNCYjccLgYdIjz9vZ6PurXXrZusHUS3d8CLlrl05KsMXW7b8Rxo+nkyEb7+RJY6f/EFI2YOBwWr9BLiB6Hu7rb+bbVicefkD/tBfA1yN/+I84ZcbCSitLbLXDPXFmhMeSvVCGK9p1+x7be+w+4Jmnk9WJMKyev4pt8/c8mYdwyb6yBacPv7p4sg9maKNvmCCY9xhqP37u4OPwj8bR+M+mekXo8OyGVrz1G7ZS0xYvU6kSxahMQCny989HhL9UERL+3igu7jhdvXpNuKMuhkcMIvET7mqI1BK+Li0KgwyOr2MHNvGSZk2fQNmzp4WK8XYanwc+1BhR1RNhxDLg+ZkZdPTs+eAIlUhLad8DkSo8b5AHf5o0bmBbudmzww4Vv1Ym4nqzjEgV5kVGu1CJ2UkK8A4THDQQqJmuqIYIxPdmMiR46BhWkYP4OTg0aOQrY7H78Xk4rfCKTBAHqHjfXjmgTCmV0B0+HEenT6u/l8HbbKCDIygs4Z44o+IF8zg8PPDgWBEHgUwQgVekcEHCtgNsRDgSRAFm/fDEFft38Ary9hJCrHzJ3oNXE3xhqj3PB0zG+EVQ6oersJJv2ryDVqxaq3lnPJ4v5A2pmr7QYaN96Nalowpl/catqjIKMqFgQJhNZclePWBlkwQEUXYwFwOdnYDwptChnxiocLmLCVsM3u6L2Ae+rNeriT6Dlz+vnK8c4RKdWTzN9M4bXvHSu8Oy9vF5v2pVKhGO3WCA45czV05lNcE/fLIEr6rMIbN8hVqdYfDYP7Ln6UN9h7BWqtWC4W3cJD/862j2Zri4itEa/D135/EcUDmZ3QT6sKVGjxhCOJwqrtzubt8ZPXhg+UkA72Te/MVKXC3q+dWap4WVEA4kZwdseRxv5jOE4IHJtWqqI+1lTFy4aIVUBcEKBWcDb/Ngfw2ud1HNZHRRj8OifcJ72D70BIHBERh70RIYxMCBKgeh5R0yLMoCe3rwgPLHYWSDH+opizVlfRKvsH9ig9WB57LVHV7OMSOHahwr4Ct7FngOxfbEYG4ZDH8GUeyfqDWI9DAB8PYd8CF0iv1OqQHLED58akOcPAAL/Ne7diLx3KTYj/Qom/6bLkedNWLjpdJxbuM5am9OdJRTwfvjjzh6vYeB0/COGnTjPQwcX3Phu/HxXCIFwcfJfz5ho1+mygMGqiVsVn5Cw6TVsHF7noRP5DPEiofVJ+HEKeVz3PjWJ5+wWb5k6Srlx9f7St4SOmNvAquYvYRxgB8veI7g7dHxRn2GELwRo9K+4oWwshLFi1FSUjIlp9yglJQbDr/V4g0mW22Y44CoeoIKzmdixZOp3xAyXugALwvdM9cb92JlCMHjWXL58lXCz0pPPgeweiGsjv9YMlTzbZtXKMIHO5cJoLKXWj41ioh/cntqKQ+THvkMYeOlB+OsNr3DAdhtC3+YY9d76agXcFi1btfFJpyOYL19L8Pv43mboVZ77uUAVj3EZ4oeVWetAB4eZLYiOoP39n1rxfM2x632THMAaiaOcSGQHfYcH83CQsawRYHoFV93WlmCZ3oYWIgWB8xzwFI1zfPOwrQ4YJoDluCZZp2FaHHAPAcswTPPOwvT4oBpDvwfo3JcF1RkU2EAAAAASUVORK5CYII=;" parent="1" vertex="1">
          <mxGeometry x="779" y="-706" width="107" height="27" as="geometry" />
        </mxCell>
        <mxCell id="-dllcQzm70aawtmvtiuD-17" value="调用链监控&lt;br&gt;Apache Skywalking" style="text;html=1;align=center;verticalAlign=middle;resizable=0;points=[];;autosize=1;fontStyle=1" parent="1" vertex="1">
          <mxGeometry x="772.5" y="-679" width="114" height="32" as="geometry" />
        </mxCell>
        <mxCell id="-dllcQzm70aawtmvtiuD-19" value="" style="endArrow=none;dashed=1;html=1;" parent="1" edge="1">
          <mxGeometry width="50" height="50" relative="1" as="geometry">
            <mxPoint x="845" y="-639" as="sourcePoint" />
            <mxPoint x="932" y="-562" as="targetPoint" />
          </mxGeometry>
        </mxCell>
        <mxCell id="-dllcQzm70aawtmvtiuD-20" value="traceId" style="text;html=1;resizable=0;points=[];align=center;verticalAlign=middle;labelBackgroundColor=#ffffff;" parent="-dllcQzm70aawtmvtiuD-19" vertex="1" connectable="0">
          <mxGeometry x="-0.1579" y="1" relative="1" as="geometry">
            <mxPoint as="offset" />
          </mxGeometry>
        </mxCell>
        <mxCell id="-dllcQzm70aawtmvtiuD-33" value="" style="shape=image;verticalLabelPosition=bottom;verticalAlign=top;imageAspect=0;aspect=fixed;image=data:image/png,iVBORw0KGgoAAAANSUhEUgAAAMgAAADICAYAAACtWK6eAAAVUUlEQVR4Xu1d/X3bNhM+0AM0G9RKBmjeARonEzSdIPYEkSewPEHkCZpM0GSC2H0HaDpArHSCNx2gxPsDIcqSTBL3AZAgefrTxudzeIg74O5gQH+KgCLQioBRbBQBRaAdASWIrg5FoAMBJYguD0VACaJrQBHgIaA7CA83rTUTBJQgMxG0TpOHgBKEh5vWmgkCSpCZCFqnyUNACcLDTWvNBAElyEwErdPkIaAE4eGmtWaCgBJkJoLWafIQUILwcNNaM0FACTITQes0eQgoQXi4aa2ZIKAEyU3QnzdPAOAJvFp8y21ocxyPEiQnqd9trsDaZTUkY9ZQwg28WnzPaYhzG4sSJAeJ323egLUrMHB6MBwL38GYJZwtPuQwzDmOQQkypNT/u3kJ/9orMPCycxgWvsCJuYSfF7dDDneOfStBhpD6580pmPIKjDkndW/hFqy5UPuEhJqosBJEBB+xsjPAC3gLYFfEmkfF7RrK4lrtExmKmNpKEAxKMcp4O2MNBtwplfzn7ZM1nC2u5Y1pC20IKEFSrw1vZ7wDA8+TdGXhGxTmEl4sPiZpf+aNKkFSLYDKzrC/BQ3wWP07++TEXKshHwtQ344SJC6eAJWdUV4BGH+fQf7ZrcpkrshVXQVr34Ot7BO9aGQBeFhJCRIBxF0T9UUfz874AKVZ7Ra224EK+x4AzshDtPA3WPNcjXgyco8qKEHkGAL8sXkNZWVnHF704dq+g8KsWlUj37Yz7n/ENVdtI9dw9kx4UobvbcollSAS6WIv+pr6cF95R4wXC7dLdP+82rYEQKhd1v4DtjjV3SMEKu7/ShAcToeluBd93kb4BwysWV94lNqluwdHpG11lCAUNOuLPudQyLczluKve5va5Xall085ah4FhVmVVYJgxS276LuD0pxHPVlqUruMuUCpbNg5azk95g2uAclFn/uin5jzpHcTtdpl4VR3j6A0yQV0B2mDzNsZ78CY12RUnZ1RFMtev+ZuR9HYEbKoQhWUIMcIxbjoK4v1KBfrH5tz+Bduo6qCoRWY+f+VIPsCutu83QYucRwKDy/6Mhf8o+F5VW3j/25WGs24RWJsckwy3pQXfUkGnKDR26+/H6iTGs3oPxUJoB5Pk583z8FUN+DdEX1NM6Jc9OWOiDuIKO3nxmHO3AlyngQZ6qKviyi7McH33oOhbu83QTcZ7wR5OUrbSvCBmhdBcrnoOxbYsZNjn+rNH1+XYM071BqaYZDWfAjSljkEtTIg/kWf69ffsbiYkebbbx+D7r7aX3DDZJS6vf8f2SvABWmdmIuk9zuMqaSoMn2CSB0KU1z0kYOpEsagOzussGumW/3kk0hMlyA5XvRJkjakVrtYbvX1N3u6x8LTI4hkEVbytteQ4qJP5sv1oD2kVLtq/y4LSzDmB5LKkprApMHEKzwtguR40SdR8TrlnFTtcpeGTu36hbzUJnYsPA2ChIzdbil3R/SRV8i2gvsae18uWnI4Sn+pv9oeVxfN+BNlWH4jnkZs/LgJkutFn2wnI69FSKl2udG4o+ASVky1a9S5u8ZJEMnXWRLRF1q6sp0s1Dri/0nVLhf2uwIwbxEDOSwy4txd4yJIrhd9khMz8moLVEitds3sWHg8BMnxok98YhabHXvtJVe7ONlW6vEl3OkiQ5o/QSSnQCkj+mQewJHF2NVcwsU4g2PhfAkidShMHdF3d297XOXCrhJnOvGxJNxj4azfPsmPIGK1JdFF3/ESVYI8Ju0Ej4XzIojstrnfiD4lSPuuNqFj4TwIIjseTXPRF1JqlCDdCHn7ZPTHwsMShOzVenBKg0/dGVrsnP8rQXCojfxYeBiC5HrRhxO5LzUmghh7CS+eOSN6uJ/IWzjhSVwAkf4JIn8iQJ66M8YykZzcxOgf08YQ+bm6xjXCY+H+CJLjRZ8TZn0LDuY5GLMiv0nu7af3tOcJMKtbWsbeQFm490a+o1uqVV6AUxYW2I4kH5een8TuhyC395/ZmUNSRPR5YjS/BMV11+ae3GAXFb6cCw92uyw+TDc2FtixSo6Fz572snZ76YSsr6dWDTDethx37WqhVRdmb7BrJFo5LmY4LD5uM5qkedaN83GZL0ESXvRR3UPqLB4l3BBVFX6cN4sxDHWKlZQ7YWgt9Vh4hgRJd9En8edyC9a5a3PsE9HJDYopHHWKn5TbY+HeZ3e22g1qhNRC2GPh2RDEwl9wYpZJUshI/LmaBMvxkJWc3LQtLo46JXbhORpM6tQ/d1/XnbEnsyFIigcn5XEj3d89TpZBycnNwWgY6pTMhSeARaLcXXdf3S18+1PYShDq3rwtn3Ix7A+Jm2WQf3JDV6dYdgYTd86hRldXSpAanUiu2H0uhkOifIPCXMKLxUfS0rq7d6/bIk+7iBgNFeHIPdRoAk4JEokgEn8u0ooOFKbaJ6EFsN9dYV6hbLTUqiUWL+6hxn77IXxUxQpIQ+LPhRU0pxzWPgktgP2+S/Of4MWfzFOBM9NwHcmtdwgfJUgH/jJ/rrBgpSUwR6HHC6A6mYIVWHjyyDjtWgzSI2zpXDH1/e56QXraTQnCVLHu7p2uT8/4hxFk/DKf4Oxp8yOghwvA3QE9OGH6fF/Ov8snbGsjiL8z+DP+sBO1iNkJ666VIGyC3LIykSeSeaDZOzh72vx6lVsA1rzuvAPyZc5bn3fuehlqmPl294q1pVwrSpCZE8QdLrxahH2bup53VoIk/wxk4KxIPMK8u5/GDhJDtEqQGCh2tqEESQtxu4oVo18lSAwUlSDJUWzvQAmyj43aIC0rpTN+e7IqFt01hMrk2hGyy2eJ2mbK8kqQHgjCeXQypdCP2+a+n76L6iu+Az3+xGU2dK4rZ31OldyXEqQHgmSdTYQZ7HUc1cd11cg2Pn67LpQgsyXIp+1FX/jYdh+iUITj+OPjDxeEEmRmBOEGe1FfxuK4kg8ZH9+meylBZkKQ2m+KmoxNEuHIdSXHhrCSDQpGBSXIHAjCiOiL6YbOfc7sj805lHY1aP4uJcikCcI7tk0V4UiNP3GiSREfT9lIlCATJIg/tl2SIwb7inDExp/siyZafDyFHQCgBJkaQYiXmP4rfQrG/sbKJElcb7visvj4/tKmKkEmRhBK1Fpb+k7uoufU49gnfTp/KkFmSpDcIhwp9okSpPNTNEZv3v4ezwztIKGLPs4uELUO4l0NJciECNK3e3cXQbgZ66MSANGYs08Kc9F6yKAEUYIgllFzkS6CZO0TdjydjsMGJYgSRAmiBOGugXHZIDmpWLqD0NecnmIlPsVSgtAXZVVDdxAmcKA7SBdyaoNw11VzPd1BEu8g/pb64y6hWlzxPW5NCRITYefLdo5KdeR61bxYNfYMd46+PFOVIHKCOF82zkOsShABQVzVPjxTlSB8gnBjZuoelSBCgtTVvWfqCv/WBkHmShACWPtFmbH5+00oQSIR5IEo8V+WVYJQCcKLzW/qRQkSmSB1czEzeyhBsAS5g8KsUI/8oFvUNwq3UDGMdAzInMfpj9tVgnQjzc0BhpGf7iCJdpB98KWZB5UgzUvZGeAG1nD2zNl+aX5KkB4IcmjIr8kP7yhBmhb/4WM/aeih9yAPuCZSsZoE511V3FcvnKLT5bx6+fR5q/zn54tFu+iTEkd3kB53kGNhdV00Ys/vp0KQ0DE596JPCUJAIGZ298c2xhVYOAVbXKLdGOo2qifOYAnG/LD9E159mApB9k//9nfX6kNRuGwuLik2/ldljSyvwBRfyEm493vRHUS4gxzHgfMzDz6BolxBUXwkHVNOjSC1ONzuastTKIs1vFp8RzOjKWkFVyauUyUIkyChOHBuZnT0StgWnCpBqDhUi3nzFmyVtfFJY3UOUWZGEPeuYPPPmPekbRwbIkrJ7MFaFPf9JY/gjO+gTqKDEGpyPHV3F0sy3ACWILsNyr7f2id4dSE8CoA57yA+Cfc7MKb5Dfg2/JQgmJUlLEMliOvOb/ErOFvcCHt/qD5HgtRJuKE6Kqf/lCB0zMg1OATZ7SbwDU7MBcoYD71jPhWCODXp50W7Clxj55NwOzvjlCyzuoIShA0dvqKEIA9EuQVrLhqPhfe/knO5SbdgW/HwdsZVlFzDShD8OmeXjEGQXedmdXBWf3xC1p047tugb21QADRV4rjm+4waz2M11H0ovJ1xTumqs6wSJBqU7Q3d3v8JBtpdQKhD8AtjCdaeP/pKdhFE6ghJHSevfNg95PiD407/jLkFa5etx7a8sejzB1zcSPX61P1DuXndwId6a6MLNIp7SNQdOSBJ3UFIS51XODeC1LPwuvq6t4wrTehx3EOUIJ3rsJ+8WDwqNNfqkyDG/Ep+WapyhCzXe/5dMWff0RYjDtynUfosOpmizE53EApazLJ9EsQN0d/IN594tU2hX/vEOViuSI6aktd2mWKrqilBJOgh6/ZNkN2wjk68MMNNa5/Q48CHIkaNlRIEs2qEZQYjSLWbfANrXpG+1m66MRNJcB8VdeMYTP3bylwJIlz8mOrDEYSuyhzPR5JIIlYcuFf/VgDmLQbuqGWUIFHhHN5I9yOQE2N/JqwFam+gLJydEc/h0gU2FdbF6YfDj2OJVQnSgqR7rqztV5gPRHf3/tzMS7Mgq1PYxeTtE3e73bVAwxd92P7ayt3ef+ntaFoJ0iKFmCG3fapYmIvCesrOma+Av1GOf/swNdknLmHEiVmS2/J+ZG+ghE9oYus9SOcnpp97kCkTxN8l/LZzU7FV/Mk1eoHW4qnsE3MOhVmTdtQHgl4duocgT92UIBMiiFdLNlKtAl0/tIO0hZpyQkzRgzoq2BWCjImDUYJMiCA5PcGGeQbaHQsX5pJ8G48hC8kNXZ9gw0DaVGZcKlZOBKHYQjHj41mXfUoQJQgXga560QOm7BrKyj6hH9fWgVwsN3QlCHd56A7SK0GY8fE+3NV5Cjen1QlKXwkShKilgBKkb4LU/Tn7JBQfT02r0zoXJYgShIvAUATZEcV+fJQ29fjoWDw3JQgXwnHtIG6Wfb1w6/qKboN0iam6t/jg89pGjAOvuhyYIJQIx929jr4wtYWCkfWvjxdueycI9xuHqTcQQbCZ8pumMLPUox3+UwyC1ICGUvdj1s7QKpZ0jKj6QxCEEeG4PxclyE4JvxY/5ZXKM7VXFQu10pmFeiVIHO9nJUhEgtRNxQxMUhWLSkZ6hGNXD0qQBASpm5QEJu0LTXeQMElSvXSrBElIENd0jMQJSpB2gsSKcGzqwR9z/96ZIDDkSBqmNqpEBse8bpxI12zUlI4KSQx5JUgb4vin6igyo2SPnxdBdi4YSzhbfKBgii5LeeG2blQJcgxvughHqjvN7Aiy07jgC5yYS3I0HZYp2ItGp1u/fNqe6p/izYsdW7JyXadYX9fBBA7cCEfMfEhu+3sNzpYgO6I0uGBgAMeWefzCra+JNTqnQhA357bdlZPKFIu/JHt86OOFHQOiXE82yKPnlhFDq4sktU+ebDN7vEETox7WlAhSz6neXcE+AQPONZ/20i1WqscvFGPrpTwYaBlDPwRxnVcGWJVm5g0Wj125+omCVPZJ6DWppgFPkSD1PDl4YITq1SkXv895peoTlGZJjvXHjKujTH8EeQCfn48J4yIuBARdfcoEQYOALCjxTuY4OiKHhSnWP0EetvPXUFZBQD9iBnpQhpNQmtxJoIISBI+oDxP+Qsp4P4A61TSh4Qiy0+Ul9okghBUv3uaSShAags67wZp3yEqDqFN5EiSOfRL3iWeMFJUgGJQOy4RSDA2sTuVLkH3jMJyOs1kwfdsnShA6QdpUrUzUqfwJUo9Q4pUbM8VO1xJQgtAJ4mo8VrWyUafGQ5CdIe/SccKKZNzVdX0K0EtWih2M6EPeppg2+inj3EPc8eiXfrpD9OJULQuncGLOk3lMIIaBKTK8kR4aJeu5gG2jdQrQs8V1qBvW/3EZ2llNiytJHtoJdf6QJPsD6wPk6nNyg4XGleD/+RMkln2SKgVopTZs+EfWsYVa6/PpbsH3cnQJwqVjzztRe+MhSO72SYz4E7mQ0+nzbTm6Ur6hIsdD3ML4CJK7fTKE2pXS29afPL0DY143rjZrP8LLZ7+KV2KmDYyXIA5QyVc79RMFfahdkrQ6oQVJCV6ivBwV6jez/4+bIIf2iXOE/IWMr7s/McZdNMYP1JIQODyRNFF9rt+2d0/axuQwfPl0ER7y+EpMgyCH9onz7/qJLAp3f3JirpMcO8ZVu9Id20q8bY35Nck7KGRBxq0wLYLs7JPNOZTlWnB/Qn9CDSMXidqFDeTCjOO4jNTbtjDLKZLDwTRNguRsn7DULmGWwjbS+LFcAZglmVcZu4eQ59JRYboEyd8+GfYZaKqdcbiI0tk/MVd3hLamT5B9+6S0q8C75M2QprRPmtSulF6tXY9+hhdUOvsn3PcgJeZDkAP7xK54gVqJEkkcZKuHtThXcdNScvmLjX23e66astxSEpYyjgHKzo8g+/aJhSXLkE+Z6C72IhBlD7H/QAErePHMHaHP8jdPghzaJ07tyi+RRIzlyM0eUvVtb6AsVmNxKowBV1Mb8yZIHPskbaI7juTldsZ539lDONPso44SZB9lbNbFJsk4nyQff/KtD8E19qF2RnTolSDHkIqfd0uY6K5N/N6hkPe2YUp/rujLtf8GlSBdi66ojoW59kn6RBK1Q6G1S94b6mpnhCinBAkhJHneLWUiCZ8N3R1XjyZLYQjqHP+vBMFKReZHdQvWXESxT7jZ0KuDKfgLTswyiUMmFseRlVOCUAXWlhUe1Y4g0Z3YziicQ+F71DC10A4BJQhnMcgTcePtE7mdcZ0sSzsHu5HVUYJIBJbaPlE7QyKdKHWVIDFglNsn7v7kIW9VW4IEzFjVzsCghC6jBEFDhSgoeX7aJ7q72d5nNCdI6BpCyoAqxNSnWkQJEluykkR3nLGkzoPFGdOE6ihBUgkzbhx62yhd4JJzKBzOvSUVfpm0qwRJLQhJIu72sd1BYVZ6n5FaeFOOSU+PHa0HiX1S96R2Bg3zCKV1B4kAIroJrn2idgYa4tgFlSCxEcW05+0TbKI7tTMwmCYqowRJBCyqWW+ftCW6m12CBBRmPRdSgvQMeGN3VaDWNtFdync9cpjryMagBMlFYM4+OYHX6lCYi0D8OJQgeclDR5MZAkqQzASiw8kLASVIXvLQ0WSGgBIkM4HocPJCQAmSlzx0NJkhoATJTCA6nLwQUILkJQ8dTWYIKEEyE4gOJy8ElCB5yUNHkxkCSpDMBKLDyQsBJUhe8tDRZIaAEiQzgehw8kLg/7+czJspfpNhAAAAAElFTkSuQmCC" parent="1" vertex="1">
          <mxGeometry x="390" y="-492.5" width="27" height="27" as="geometry" />
        </mxCell>
        <mxCell id="-dllcQzm70aawtmvtiuD-34" value="" style="shape=image;verticalLabelPosition=bottom;verticalAlign=top;imageAspect=0;aspect=fixed;image=data:image/png,iVBORw0KGgoAAAANSUhEUgAAAMgAAADICAYAAACtWK6eAAAVUUlEQVR4Xu1d/X3bNhM+0AM0G9RKBmjeARonEzSdIPYEkSewPEHkCZpM0GSC2H0HaDpArHSCNx2gxPsDIcqSTBL3AZAgefrTxudzeIg74O5gQH+KgCLQioBRbBQBRaAdASWIrg5FoAMBJYguD0VACaJrQBHgIaA7CA83rTUTBJQgMxG0TpOHgBKEh5vWmgkCSpCZCFqnyUNACcLDTWvNBAElyEwErdPkIaAE4eGmtWaCgBJkJoLWafIQUILwcNNaM0FACTITQes0eQgoQXi4aa2ZIKAEyU3QnzdPAOAJvFp8y21ocxyPEiQnqd9trsDaZTUkY9ZQwg28WnzPaYhzG4sSJAeJ323egLUrMHB6MBwL38GYJZwtPuQwzDmOQQkypNT/u3kJ/9orMPCycxgWvsCJuYSfF7dDDneOfStBhpD6580pmPIKjDkndW/hFqy5UPuEhJqosBJEBB+xsjPAC3gLYFfEmkfF7RrK4lrtExmKmNpKEAxKMcp4O2MNBtwplfzn7ZM1nC2u5Y1pC20IKEFSrw1vZ7wDA8+TdGXhGxTmEl4sPiZpf+aNKkFSLYDKzrC/BQ3wWP07++TEXKshHwtQ344SJC6eAJWdUV4BGH+fQf7ZrcpkrshVXQVr34Ot7BO9aGQBeFhJCRIBxF0T9UUfz874AKVZ7Ra224EK+x4AzshDtPA3WPNcjXgyco8qKEHkGAL8sXkNZWVnHF704dq+g8KsWlUj37Yz7n/ENVdtI9dw9kx4UobvbcollSAS6WIv+pr6cF95R4wXC7dLdP+82rYEQKhd1v4DtjjV3SMEKu7/ShAcToeluBd93kb4BwysWV94lNqluwdHpG11lCAUNOuLPudQyLczluKve5va5Xall085ah4FhVmVVYJgxS276LuD0pxHPVlqUruMuUCpbNg5azk95g2uAclFn/uin5jzpHcTtdpl4VR3j6A0yQV0B2mDzNsZ78CY12RUnZ1RFMtev+ZuR9HYEbKoQhWUIMcIxbjoK4v1KBfrH5tz+Bduo6qCoRWY+f+VIPsCutu83QYucRwKDy/6Mhf8o+F5VW3j/25WGs24RWJsckwy3pQXfUkGnKDR26+/H6iTGs3oPxUJoB5Pk583z8FUN+DdEX1NM6Jc9OWOiDuIKO3nxmHO3AlyngQZ6qKviyi7McH33oOhbu83QTcZ7wR5OUrbSvCBmhdBcrnoOxbYsZNjn+rNH1+XYM071BqaYZDWfAjSljkEtTIg/kWf69ffsbiYkebbbx+D7r7aX3DDZJS6vf8f2SvABWmdmIuk9zuMqaSoMn2CSB0KU1z0kYOpEsagOzussGumW/3kk0hMlyA5XvRJkjakVrtYbvX1N3u6x8LTI4hkEVbytteQ4qJP5sv1oD2kVLtq/y4LSzDmB5LKkprApMHEKzwtguR40SdR8TrlnFTtcpeGTu36hbzUJnYsPA2ChIzdbil3R/SRV8i2gvsae18uWnI4Sn+pv9oeVxfN+BNlWH4jnkZs/LgJkutFn2wnI69FSKl2udG4o+ASVky1a9S5u8ZJEMnXWRLRF1q6sp0s1Dri/0nVLhf2uwIwbxEDOSwy4txd4yJIrhd9khMz8moLVEitds3sWHg8BMnxok98YhabHXvtJVe7ONlW6vEl3OkiQ5o/QSSnQCkj+mQewJHF2NVcwsU4g2PhfAkidShMHdF3d297XOXCrhJnOvGxJNxj4azfPsmPIGK1JdFF3/ESVYI8Ju0Ej4XzIojstrnfiD4lSPuuNqFj4TwIIjseTXPRF1JqlCDdCHn7ZPTHwsMShOzVenBKg0/dGVrsnP8rQXCojfxYeBiC5HrRhxO5LzUmghh7CS+eOSN6uJ/IWzjhSVwAkf4JIn8iQJ66M8YykZzcxOgf08YQ+bm6xjXCY+H+CJLjRZ8TZn0LDuY5GLMiv0nu7af3tOcJMKtbWsbeQFm490a+o1uqVV6AUxYW2I4kH5een8TuhyC395/ZmUNSRPR5YjS/BMV11+ae3GAXFb6cCw92uyw+TDc2FtixSo6Fz572snZ76YSsr6dWDTDethx37WqhVRdmb7BrJFo5LmY4LD5uM5qkedaN83GZL0ESXvRR3UPqLB4l3BBVFX6cN4sxDHWKlZQ7YWgt9Vh4hgRJd9En8edyC9a5a3PsE9HJDYopHHWKn5TbY+HeZ3e22g1qhNRC2GPh2RDEwl9wYpZJUshI/LmaBMvxkJWc3LQtLo46JXbhORpM6tQ/d1/XnbEnsyFIigcn5XEj3d89TpZBycnNwWgY6pTMhSeARaLcXXdf3S18+1PYShDq3rwtn3Ix7A+Jm2WQf3JDV6dYdgYTd86hRldXSpAanUiu2H0uhkOifIPCXMKLxUfS0rq7d6/bIk+7iBgNFeHIPdRoAk4JEokgEn8u0ooOFKbaJ6EFsN9dYV6hbLTUqiUWL+6hxn77IXxUxQpIQ+LPhRU0pxzWPgktgP2+S/Of4MWfzFOBM9NwHcmtdwgfJUgH/jJ/rrBgpSUwR6HHC6A6mYIVWHjyyDjtWgzSI2zpXDH1/e56QXraTQnCVLHu7p2uT8/4hxFk/DKf4Oxp8yOghwvA3QE9OGH6fF/Ov8snbGsjiL8z+DP+sBO1iNkJ666VIGyC3LIykSeSeaDZOzh72vx6lVsA1rzuvAPyZc5bn3fuehlqmPl294q1pVwrSpCZE8QdLrxahH2bup53VoIk/wxk4KxIPMK8u5/GDhJDtEqQGCh2tqEESQtxu4oVo18lSAwUlSDJUWzvQAmyj43aIC0rpTN+e7IqFt01hMrk2hGyy2eJ2mbK8kqQHgjCeXQypdCP2+a+n76L6iu+Az3+xGU2dK4rZ31OldyXEqQHgmSdTYQZ7HUc1cd11cg2Pn67LpQgsyXIp+1FX/jYdh+iUITj+OPjDxeEEmRmBOEGe1FfxuK4kg8ZH9+meylBZkKQ2m+KmoxNEuHIdSXHhrCSDQpGBSXIHAjCiOiL6YbOfc7sj805lHY1aP4uJcikCcI7tk0V4UiNP3GiSREfT9lIlCATJIg/tl2SIwb7inDExp/siyZafDyFHQCgBJkaQYiXmP4rfQrG/sbKJElcb7visvj4/tKmKkEmRhBK1Fpb+k7uoufU49gnfTp/KkFmSpDcIhwp9okSpPNTNEZv3v4ezwztIKGLPs4uELUO4l0NJciECNK3e3cXQbgZ66MSANGYs08Kc9F6yKAEUYIgllFzkS6CZO0TdjydjsMGJYgSRAmiBOGugXHZIDmpWLqD0NecnmIlPsVSgtAXZVVDdxAmcKA7SBdyaoNw11VzPd1BEu8g/pb64y6hWlzxPW5NCRITYefLdo5KdeR61bxYNfYMd46+PFOVIHKCOF82zkOsShABQVzVPjxTlSB8gnBjZuoelSBCgtTVvWfqCv/WBkHmShACWPtFmbH5+00oQSIR5IEo8V+WVYJQCcKLzW/qRQkSmSB1czEzeyhBsAS5g8KsUI/8oFvUNwq3UDGMdAzInMfpj9tVgnQjzc0BhpGf7iCJdpB98KWZB5UgzUvZGeAG1nD2zNl+aX5KkB4IcmjIr8kP7yhBmhb/4WM/aeih9yAPuCZSsZoE511V3FcvnKLT5bx6+fR5q/zn54tFu+iTEkd3kB53kGNhdV00Ys/vp0KQ0DE596JPCUJAIGZ298c2xhVYOAVbXKLdGOo2qifOYAnG/LD9E159mApB9k//9nfX6kNRuGwuLik2/ldljSyvwBRfyEm493vRHUS4gxzHgfMzDz6BolxBUXwkHVNOjSC1ONzuastTKIs1vFp8RzOjKWkFVyauUyUIkyChOHBuZnT0StgWnCpBqDhUi3nzFmyVtfFJY3UOUWZGEPeuYPPPmPekbRwbIkrJ7MFaFPf9JY/gjO+gTqKDEGpyPHV3F0sy3ACWILsNyr7f2id4dSE8CoA57yA+Cfc7MKb5Dfg2/JQgmJUlLEMliOvOb/ErOFvcCHt/qD5HgtRJuKE6Kqf/lCB0zMg1OATZ7SbwDU7MBcoYD71jPhWCODXp50W7Clxj55NwOzvjlCyzuoIShA0dvqKEIA9EuQVrLhqPhfe/knO5SbdgW/HwdsZVlFzDShD8OmeXjEGQXedmdXBWf3xC1p047tugb21QADRV4rjm+4waz2M11H0ovJ1xTumqs6wSJBqU7Q3d3v8JBtpdQKhD8AtjCdaeP/pKdhFE6ghJHSevfNg95PiD407/jLkFa5etx7a8sejzB1zcSPX61P1DuXndwId6a6MLNIp7SNQdOSBJ3UFIS51XODeC1LPwuvq6t4wrTehx3EOUIJ3rsJ+8WDwqNNfqkyDG/Ep+WapyhCzXe/5dMWff0RYjDtynUfosOpmizE53EApazLJ9EsQN0d/IN594tU2hX/vEOViuSI6aktd2mWKrqilBJOgh6/ZNkN2wjk68MMNNa5/Q48CHIkaNlRIEs2qEZQYjSLWbfANrXpG+1m66MRNJcB8VdeMYTP3bylwJIlz8mOrDEYSuyhzPR5JIIlYcuFf/VgDmLQbuqGWUIFHhHN5I9yOQE2N/JqwFam+gLJydEc/h0gU2FdbF6YfDj2OJVQnSgqR7rqztV5gPRHf3/tzMS7Mgq1PYxeTtE3e73bVAwxd92P7ayt3ef+ntaFoJ0iKFmCG3fapYmIvCesrOma+Av1GOf/swNdknLmHEiVmS2/J+ZG+ghE9oYus9SOcnpp97kCkTxN8l/LZzU7FV/Mk1eoHW4qnsE3MOhVmTdtQHgl4duocgT92UIBMiiFdLNlKtAl0/tIO0hZpyQkzRgzoq2BWCjImDUYJMiCA5PcGGeQbaHQsX5pJ8G48hC8kNXZ9gw0DaVGZcKlZOBKHYQjHj41mXfUoQJQgXga560QOm7BrKyj6hH9fWgVwsN3QlCHd56A7SK0GY8fE+3NV5Cjen1QlKXwkShKilgBKkb4LU/Tn7JBQfT02r0zoXJYgShIvAUATZEcV+fJQ29fjoWDw3JQgXwnHtIG6Wfb1w6/qKboN0iam6t/jg89pGjAOvuhyYIJQIx929jr4wtYWCkfWvjxdueycI9xuHqTcQQbCZ8pumMLPUox3+UwyC1ICGUvdj1s7QKpZ0jKj6QxCEEeG4PxclyE4JvxY/5ZXKM7VXFQu10pmFeiVIHO9nJUhEgtRNxQxMUhWLSkZ6hGNXD0qQBASpm5QEJu0LTXeQMElSvXSrBElIENd0jMQJSpB2gsSKcGzqwR9z/96ZIDDkSBqmNqpEBse8bpxI12zUlI4KSQx5JUgb4vin6igyo2SPnxdBdi4YSzhbfKBgii5LeeG2blQJcgxvughHqjvN7Aiy07jgC5yYS3I0HZYp2ItGp1u/fNqe6p/izYsdW7JyXadYX9fBBA7cCEfMfEhu+3sNzpYgO6I0uGBgAMeWefzCra+JNTqnQhA357bdlZPKFIu/JHt86OOFHQOiXE82yKPnlhFDq4sktU+ebDN7vEETox7WlAhSz6neXcE+AQPONZ/20i1WqscvFGPrpTwYaBlDPwRxnVcGWJVm5g0Wj125+omCVPZJ6DWppgFPkSD1PDl4YITq1SkXv895peoTlGZJjvXHjKujTH8EeQCfn48J4yIuBARdfcoEQYOALCjxTuY4OiKHhSnWP0EetvPXUFZBQD9iBnpQhpNQmtxJoIISBI+oDxP+Qsp4P4A61TSh4Qiy0+Ul9okghBUv3uaSShAags67wZp3yEqDqFN5EiSOfRL3iWeMFJUgGJQOy4RSDA2sTuVLkH3jMJyOs1kwfdsnShA6QdpUrUzUqfwJUo9Q4pUbM8VO1xJQgtAJ4mo8VrWyUafGQ5CdIe/SccKKZNzVdX0K0EtWih2M6EPeppg2+inj3EPc8eiXfrpD9OJULQuncGLOk3lMIIaBKTK8kR4aJeu5gG2jdQrQs8V1qBvW/3EZ2llNiytJHtoJdf6QJPsD6wPk6nNyg4XGleD/+RMkln2SKgVopTZs+EfWsYVa6/PpbsH3cnQJwqVjzztRe+MhSO72SYz4E7mQ0+nzbTm6Ur6hIsdD3ML4CJK7fTKE2pXS29afPL0DY143rjZrP8LLZ7+KV2KmDYyXIA5QyVc79RMFfahdkrQ6oQVJCV6ivBwV6jez/4+bIIf2iXOE/IWMr7s/McZdNMYP1JIQODyRNFF9rt+2d0/axuQwfPl0ER7y+EpMgyCH9onz7/qJLAp3f3JirpMcO8ZVu9Id20q8bY35Nck7KGRBxq0wLYLs7JPNOZTlWnB/Qn9CDSMXidqFDeTCjOO4jNTbtjDLKZLDwTRNguRsn7DULmGWwjbS+LFcAZglmVcZu4eQ59JRYboEyd8+GfYZaKqdcbiI0tk/MVd3hLamT5B9+6S0q8C75M2QprRPmtSulF6tXY9+hhdUOvsn3PcgJeZDkAP7xK54gVqJEkkcZKuHtThXcdNScvmLjX23e66astxSEpYyjgHKzo8g+/aJhSXLkE+Z6C72IhBlD7H/QAErePHMHaHP8jdPghzaJ07tyi+RRIzlyM0eUvVtb6AsVmNxKowBV1Mb8yZIHPskbaI7juTldsZ539lDONPso44SZB9lbNbFJsk4nyQff/KtD8E19qF2RnTolSDHkIqfd0uY6K5N/N6hkPe2YUp/rujLtf8GlSBdi66ojoW59kn6RBK1Q6G1S94b6mpnhCinBAkhJHneLWUiCZ8N3R1XjyZLYQjqHP+vBMFKReZHdQvWXESxT7jZ0KuDKfgLTswyiUMmFseRlVOCUAXWlhUe1Y4g0Z3YziicQ+F71DC10A4BJQhnMcgTcePtE7mdcZ0sSzsHu5HVUYJIBJbaPlE7QyKdKHWVIDFglNsn7v7kIW9VW4IEzFjVzsCghC6jBEFDhSgoeX7aJ7q72d5nNCdI6BpCyoAqxNSnWkQJEluykkR3nLGkzoPFGdOE6ihBUgkzbhx62yhd4JJzKBzOvSUVfpm0qwRJLQhJIu72sd1BYVZ6n5FaeFOOSU+PHa0HiX1S96R2Bg3zCKV1B4kAIroJrn2idgYa4tgFlSCxEcW05+0TbKI7tTMwmCYqowRJBCyqWW+ftCW6m12CBBRmPRdSgvQMeGN3VaDWNtFdync9cpjryMagBMlFYM4+OYHX6lCYi0D8OJQgeclDR5MZAkqQzASiw8kLASVIXvLQ0WSGgBIkM4HocPJCQAmSlzx0NJkhoATJTCA6nLwQUILkJQ8dTWYIKEEyE4gOJy8ElCB5yUNHkxkCSpDMBKLDyQsBJUhe8tDRZIaAEiQzgehw8kLg/7+czJspfpNhAAAAAElFTkSuQmCC" parent="1" vertex="1">
          <mxGeometry x="392" y="-459" width="27" height="27" as="geometry" />
        </mxCell>
        <mxCell id="-dllcQzm70aawtmvtiuD-35" value="" style="shape=image;verticalLabelPosition=bottom;verticalAlign=top;imageAspect=0;aspect=fixed;image=data:image/png,iVBORw0KGgoAAAANSUhEUgAAAMgAAADICAYAAACtWK6eAAAVUUlEQVR4Xu1d/X3bNhM+0AM0G9RKBmjeARonEzSdIPYEkSewPEHkCZpM0GSC2H0HaDpArHSCNx2gxPsDIcqSTBL3AZAgefrTxudzeIg74O5gQH+KgCLQioBRbBQBRaAdASWIrg5FoAMBJYguD0VACaJrQBHgIaA7CA83rTUTBJQgMxG0TpOHgBKEh5vWmgkCSpCZCFqnyUNACcLDTWvNBAElyEwErdPkIaAE4eGmtWaCgBJkJoLWafIQUILwcNNaM0FACTITQes0eQgoQXi4aa2ZIKAEyU3QnzdPAOAJvFp8y21ocxyPEiQnqd9trsDaZTUkY9ZQwg28WnzPaYhzG4sSJAeJ323egLUrMHB6MBwL38GYJZwtPuQwzDmOQQkypNT/u3kJ/9orMPCycxgWvsCJuYSfF7dDDneOfStBhpD6580pmPIKjDkndW/hFqy5UPuEhJqosBJEBB+xsjPAC3gLYFfEmkfF7RrK4lrtExmKmNpKEAxKMcp4O2MNBtwplfzn7ZM1nC2u5Y1pC20IKEFSrw1vZ7wDA8+TdGXhGxTmEl4sPiZpf+aNKkFSLYDKzrC/BQ3wWP07++TEXKshHwtQ344SJC6eAJWdUV4BGH+fQf7ZrcpkrshVXQVr34Ot7BO9aGQBeFhJCRIBxF0T9UUfz874AKVZ7Ra224EK+x4AzshDtPA3WPNcjXgyco8qKEHkGAL8sXkNZWVnHF704dq+g8KsWlUj37Yz7n/ENVdtI9dw9kx4UobvbcollSAS6WIv+pr6cF95R4wXC7dLdP+82rYEQKhd1v4DtjjV3SMEKu7/ShAcToeluBd93kb4BwysWV94lNqluwdHpG11lCAUNOuLPudQyLczluKve5va5Xall085ah4FhVmVVYJgxS276LuD0pxHPVlqUruMuUCpbNg5azk95g2uAclFn/uin5jzpHcTtdpl4VR3j6A0yQV0B2mDzNsZ78CY12RUnZ1RFMtev+ZuR9HYEbKoQhWUIMcIxbjoK4v1KBfrH5tz+Bduo6qCoRWY+f+VIPsCutu83QYucRwKDy/6Mhf8o+F5VW3j/25WGs24RWJsckwy3pQXfUkGnKDR26+/H6iTGs3oPxUJoB5Pk583z8FUN+DdEX1NM6Jc9OWOiDuIKO3nxmHO3AlyngQZ6qKviyi7McH33oOhbu83QTcZ7wR5OUrbSvCBmhdBcrnoOxbYsZNjn+rNH1+XYM071BqaYZDWfAjSljkEtTIg/kWf69ffsbiYkebbbx+D7r7aX3DDZJS6vf8f2SvABWmdmIuk9zuMqaSoMn2CSB0KU1z0kYOpEsagOzussGumW/3kk0hMlyA5XvRJkjakVrtYbvX1N3u6x8LTI4hkEVbytteQ4qJP5sv1oD2kVLtq/y4LSzDmB5LKkprApMHEKzwtguR40SdR8TrlnFTtcpeGTu36hbzUJnYsPA2ChIzdbil3R/SRV8i2gvsae18uWnI4Sn+pv9oeVxfN+BNlWH4jnkZs/LgJkutFn2wnI69FSKl2udG4o+ASVky1a9S5u8ZJEMnXWRLRF1q6sp0s1Dri/0nVLhf2uwIwbxEDOSwy4txd4yJIrhd9khMz8moLVEitds3sWHg8BMnxok98YhabHXvtJVe7ONlW6vEl3OkiQ5o/QSSnQCkj+mQewJHF2NVcwsU4g2PhfAkidShMHdF3d297XOXCrhJnOvGxJNxj4azfPsmPIGK1JdFF3/ESVYI8Ju0Ej4XzIojstrnfiD4lSPuuNqFj4TwIIjseTXPRF1JqlCDdCHn7ZPTHwsMShOzVenBKg0/dGVrsnP8rQXCojfxYeBiC5HrRhxO5LzUmghh7CS+eOSN6uJ/IWzjhSVwAkf4JIn8iQJ66M8YykZzcxOgf08YQ+bm6xjXCY+H+CJLjRZ8TZn0LDuY5GLMiv0nu7af3tOcJMKtbWsbeQFm490a+o1uqVV6AUxYW2I4kH5een8TuhyC395/ZmUNSRPR5YjS/BMV11+ae3GAXFb6cCw92uyw+TDc2FtixSo6Fz572snZ76YSsr6dWDTDethx37WqhVRdmb7BrJFo5LmY4LD5uM5qkedaN83GZL0ESXvRR3UPqLB4l3BBVFX6cN4sxDHWKlZQ7YWgt9Vh4hgRJd9En8edyC9a5a3PsE9HJDYopHHWKn5TbY+HeZ3e22g1qhNRC2GPh2RDEwl9wYpZJUshI/LmaBMvxkJWc3LQtLo46JXbhORpM6tQ/d1/XnbEnsyFIigcn5XEj3d89TpZBycnNwWgY6pTMhSeARaLcXXdf3S18+1PYShDq3rwtn3Ix7A+Jm2WQf3JDV6dYdgYTd86hRldXSpAanUiu2H0uhkOifIPCXMKLxUfS0rq7d6/bIk+7iBgNFeHIPdRoAk4JEokgEn8u0ooOFKbaJ6EFsN9dYV6hbLTUqiUWL+6hxn77IXxUxQpIQ+LPhRU0pxzWPgktgP2+S/Of4MWfzFOBM9NwHcmtdwgfJUgH/jJ/rrBgpSUwR6HHC6A6mYIVWHjyyDjtWgzSI2zpXDH1/e56QXraTQnCVLHu7p2uT8/4hxFk/DKf4Oxp8yOghwvA3QE9OGH6fF/Ov8snbGsjiL8z+DP+sBO1iNkJ666VIGyC3LIykSeSeaDZOzh72vx6lVsA1rzuvAPyZc5bn3fuehlqmPl294q1pVwrSpCZE8QdLrxahH2bup53VoIk/wxk4KxIPMK8u5/GDhJDtEqQGCh2tqEESQtxu4oVo18lSAwUlSDJUWzvQAmyj43aIC0rpTN+e7IqFt01hMrk2hGyy2eJ2mbK8kqQHgjCeXQypdCP2+a+n76L6iu+Az3+xGU2dK4rZ31OldyXEqQHgmSdTYQZ7HUc1cd11cg2Pn67LpQgsyXIp+1FX/jYdh+iUITj+OPjDxeEEmRmBOEGe1FfxuK4kg8ZH9+meylBZkKQ2m+KmoxNEuHIdSXHhrCSDQpGBSXIHAjCiOiL6YbOfc7sj805lHY1aP4uJcikCcI7tk0V4UiNP3GiSREfT9lIlCATJIg/tl2SIwb7inDExp/siyZafDyFHQCgBJkaQYiXmP4rfQrG/sbKJElcb7visvj4/tKmKkEmRhBK1Fpb+k7uoufU49gnfTp/KkFmSpDcIhwp9okSpPNTNEZv3v4ezwztIKGLPs4uELUO4l0NJciECNK3e3cXQbgZ66MSANGYs08Kc9F6yKAEUYIgllFzkS6CZO0TdjydjsMGJYgSRAmiBOGugXHZIDmpWLqD0NecnmIlPsVSgtAXZVVDdxAmcKA7SBdyaoNw11VzPd1BEu8g/pb64y6hWlzxPW5NCRITYefLdo5KdeR61bxYNfYMd46+PFOVIHKCOF82zkOsShABQVzVPjxTlSB8gnBjZuoelSBCgtTVvWfqCv/WBkHmShACWPtFmbH5+00oQSIR5IEo8V+WVYJQCcKLzW/qRQkSmSB1czEzeyhBsAS5g8KsUI/8oFvUNwq3UDGMdAzInMfpj9tVgnQjzc0BhpGf7iCJdpB98KWZB5UgzUvZGeAG1nD2zNl+aX5KkB4IcmjIr8kP7yhBmhb/4WM/aeih9yAPuCZSsZoE511V3FcvnKLT5bx6+fR5q/zn54tFu+iTEkd3kB53kGNhdV00Ys/vp0KQ0DE596JPCUJAIGZ298c2xhVYOAVbXKLdGOo2qifOYAnG/LD9E159mApB9k//9nfX6kNRuGwuLik2/ldljSyvwBRfyEm493vRHUS4gxzHgfMzDz6BolxBUXwkHVNOjSC1ONzuastTKIs1vFp8RzOjKWkFVyauUyUIkyChOHBuZnT0StgWnCpBqDhUi3nzFmyVtfFJY3UOUWZGEPeuYPPPmPekbRwbIkrJ7MFaFPf9JY/gjO+gTqKDEGpyPHV3F0sy3ACWILsNyr7f2id4dSE8CoA57yA+Cfc7MKb5Dfg2/JQgmJUlLEMliOvOb/ErOFvcCHt/qD5HgtRJuKE6Kqf/lCB0zMg1OATZ7SbwDU7MBcoYD71jPhWCODXp50W7Clxj55NwOzvjlCyzuoIShA0dvqKEIA9EuQVrLhqPhfe/knO5SbdgW/HwdsZVlFzDShD8OmeXjEGQXedmdXBWf3xC1p047tugb21QADRV4rjm+4waz2M11H0ovJ1xTumqs6wSJBqU7Q3d3v8JBtpdQKhD8AtjCdaeP/pKdhFE6ghJHSevfNg95PiD407/jLkFa5etx7a8sejzB1zcSPX61P1DuXndwId6a6MLNIp7SNQdOSBJ3UFIS51XODeC1LPwuvq6t4wrTehx3EOUIJ3rsJ+8WDwqNNfqkyDG/Ep+WapyhCzXe/5dMWff0RYjDtynUfosOpmizE53EApazLJ9EsQN0d/IN594tU2hX/vEOViuSI6aktd2mWKrqilBJOgh6/ZNkN2wjk68MMNNa5/Q48CHIkaNlRIEs2qEZQYjSLWbfANrXpG+1m66MRNJcB8VdeMYTP3bylwJIlz8mOrDEYSuyhzPR5JIIlYcuFf/VgDmLQbuqGWUIFHhHN5I9yOQE2N/JqwFam+gLJydEc/h0gU2FdbF6YfDj2OJVQnSgqR7rqztV5gPRHf3/tzMS7Mgq1PYxeTtE3e73bVAwxd92P7ayt3ef+ntaFoJ0iKFmCG3fapYmIvCesrOma+Av1GOf/swNdknLmHEiVmS2/J+ZG+ghE9oYus9SOcnpp97kCkTxN8l/LZzU7FV/Mk1eoHW4qnsE3MOhVmTdtQHgl4duocgT92UIBMiiFdLNlKtAl0/tIO0hZpyQkzRgzoq2BWCjImDUYJMiCA5PcGGeQbaHQsX5pJ8G48hC8kNXZ9gw0DaVGZcKlZOBKHYQjHj41mXfUoQJQgXga560QOm7BrKyj6hH9fWgVwsN3QlCHd56A7SK0GY8fE+3NV5Cjen1QlKXwkShKilgBKkb4LU/Tn7JBQfT02r0zoXJYgShIvAUATZEcV+fJQ29fjoWDw3JQgXwnHtIG6Wfb1w6/qKboN0iam6t/jg89pGjAOvuhyYIJQIx929jr4wtYWCkfWvjxdueycI9xuHqTcQQbCZ8pumMLPUox3+UwyC1ICGUvdj1s7QKpZ0jKj6QxCEEeG4PxclyE4JvxY/5ZXKM7VXFQu10pmFeiVIHO9nJUhEgtRNxQxMUhWLSkZ6hGNXD0qQBASpm5QEJu0LTXeQMElSvXSrBElIENd0jMQJSpB2gsSKcGzqwR9z/96ZIDDkSBqmNqpEBse8bpxI12zUlI4KSQx5JUgb4vin6igyo2SPnxdBdi4YSzhbfKBgii5LeeG2blQJcgxvughHqjvN7Aiy07jgC5yYS3I0HZYp2ItGp1u/fNqe6p/izYsdW7JyXadYX9fBBA7cCEfMfEhu+3sNzpYgO6I0uGBgAMeWefzCra+JNTqnQhA357bdlZPKFIu/JHt86OOFHQOiXE82yKPnlhFDq4sktU+ebDN7vEETox7WlAhSz6neXcE+AQPONZ/20i1WqscvFGPrpTwYaBlDPwRxnVcGWJVm5g0Wj125+omCVPZJ6DWppgFPkSD1PDl4YITq1SkXv895peoTlGZJjvXHjKujTH8EeQCfn48J4yIuBARdfcoEQYOALCjxTuY4OiKHhSnWP0EetvPXUFZBQD9iBnpQhpNQmtxJoIISBI+oDxP+Qsp4P4A61TSh4Qiy0+Ul9okghBUv3uaSShAags67wZp3yEqDqFN5EiSOfRL3iWeMFJUgGJQOy4RSDA2sTuVLkH3jMJyOs1kwfdsnShA6QdpUrUzUqfwJUo9Q4pUbM8VO1xJQgtAJ4mo8VrWyUafGQ5CdIe/SccKKZNzVdX0K0EtWih2M6EPeppg2+inj3EPc8eiXfrpD9OJULQuncGLOk3lMIIaBKTK8kR4aJeu5gG2jdQrQs8V1qBvW/3EZ2llNiytJHtoJdf6QJPsD6wPk6nNyg4XGleD/+RMkln2SKgVopTZs+EfWsYVa6/PpbsH3cnQJwqVjzztRe+MhSO72SYz4E7mQ0+nzbTm6Ur6hIsdD3ML4CJK7fTKE2pXS29afPL0DY143rjZrP8LLZ7+KV2KmDYyXIA5QyVc79RMFfahdkrQ6oQVJCV6ivBwV6jez/4+bIIf2iXOE/IWMr7s/McZdNMYP1JIQODyRNFF9rt+2d0/axuQwfPl0ER7y+EpMgyCH9onz7/qJLAp3f3JirpMcO8ZVu9Id20q8bY35Nck7KGRBxq0wLYLs7JPNOZTlWnB/Qn9CDSMXidqFDeTCjOO4jNTbtjDLKZLDwTRNguRsn7DULmGWwjbS+LFcAZglmVcZu4eQ59JRYboEyd8+GfYZaKqdcbiI0tk/MVd3hLamT5B9+6S0q8C75M2QprRPmtSulF6tXY9+hhdUOvsn3PcgJeZDkAP7xK54gVqJEkkcZKuHtThXcdNScvmLjX23e66astxSEpYyjgHKzo8g+/aJhSXLkE+Z6C72IhBlD7H/QAErePHMHaHP8jdPghzaJ07tyi+RRIzlyM0eUvVtb6AsVmNxKowBV1Mb8yZIHPskbaI7juTldsZ539lDONPso44SZB9lbNbFJsk4nyQff/KtD8E19qF2RnTolSDHkIqfd0uY6K5N/N6hkPe2YUp/rujLtf8GlSBdi66ojoW59kn6RBK1Q6G1S94b6mpnhCinBAkhJHneLWUiCZ8N3R1XjyZLYQjqHP+vBMFKReZHdQvWXESxT7jZ0KuDKfgLTswyiUMmFseRlVOCUAXWlhUe1Y4g0Z3YziicQ+F71DC10A4BJQhnMcgTcePtE7mdcZ0sSzsHu5HVUYJIBJbaPlE7QyKdKHWVIDFglNsn7v7kIW9VW4IEzFjVzsCghC6jBEFDhSgoeX7aJ7q72d5nNCdI6BpCyoAqxNSnWkQJEluykkR3nLGkzoPFGdOE6ihBUgkzbhx62yhd4JJzKBzOvSUVfpm0qwRJLQhJIu72sd1BYVZ6n5FaeFOOSU+PHa0HiX1S96R2Bg3zCKV1B4kAIroJrn2idgYa4tgFlSCxEcW05+0TbKI7tTMwmCYqowRJBCyqWW+ftCW6m12CBBRmPRdSgvQMeGN3VaDWNtFdync9cpjryMagBMlFYM4+OYHX6lCYi0D8OJQgeclDR5MZAkqQzASiw8kLASVIXvLQ0WSGgBIkM4HocPJCQAmSlzx0NJkhoATJTCA6nLwQUILkJQ8dTWYIKEEyE4gOJy8ElCB5yUNHkxkCSpDMBKLDyQsBJUhe8tDRZIaAEiQzgehw8kLg/7+czJspfpNhAAAAAElFTkSuQmCC" parent="1" vertex="1">
          <mxGeometry x="391" y="-424" width="27" height="27" as="geometry" />
        </mxCell>
        <mxCell id="-dllcQzm70aawtmvtiuD-36" value="" style="shape=image;verticalLabelPosition=bottom;verticalAlign=top;imageAspect=0;aspect=fixed;image=data:image/png,iVBORw0KGgoAAAANSUhEUgAAAMgAAADICAYAAACtWK6eAAAVUUlEQVR4Xu1d/X3bNhM+0AM0G9RKBmjeARonEzSdIPYEkSewPEHkCZpM0GSC2H0HaDpArHSCNx2gxPsDIcqSTBL3AZAgefrTxudzeIg74O5gQH+KgCLQioBRbBQBRaAdASWIrg5FoAMBJYguD0VACaJrQBHgIaA7CA83rTUTBJQgMxG0TpOHgBKEh5vWmgkCSpCZCFqnyUNACcLDTWvNBAElyEwErdPkIaAE4eGmtWaCgBJkJoLWafIQUILwcNNaM0FACTITQes0eQgoQXi4aa2ZIKAEyU3QnzdPAOAJvFp8y21ocxyPEiQnqd9trsDaZTUkY9ZQwg28WnzPaYhzG4sSJAeJ323egLUrMHB6MBwL38GYJZwtPuQwzDmOQQkypNT/u3kJ/9orMPCycxgWvsCJuYSfF7dDDneOfStBhpD6580pmPIKjDkndW/hFqy5UPuEhJqosBJEBB+xsjPAC3gLYFfEmkfF7RrK4lrtExmKmNpKEAxKMcp4O2MNBtwplfzn7ZM1nC2u5Y1pC20IKEFSrw1vZ7wDA8+TdGXhGxTmEl4sPiZpf+aNKkFSLYDKzrC/BQ3wWP07++TEXKshHwtQ344SJC6eAJWdUV4BGH+fQf7ZrcpkrshVXQVr34Ot7BO9aGQBeFhJCRIBxF0T9UUfz874AKVZ7Ra224EK+x4AzshDtPA3WPNcjXgyco8qKEHkGAL8sXkNZWVnHF704dq+g8KsWlUj37Yz7n/ENVdtI9dw9kx4UobvbcollSAS6WIv+pr6cF95R4wXC7dLdP+82rYEQKhd1v4DtjjV3SMEKu7/ShAcToeluBd93kb4BwysWV94lNqluwdHpG11lCAUNOuLPudQyLczluKve5va5Xall085ah4FhVmVVYJgxS276LuD0pxHPVlqUruMuUCpbNg5azk95g2uAclFn/uin5jzpHcTtdpl4VR3j6A0yQV0B2mDzNsZ78CY12RUnZ1RFMtev+ZuR9HYEbKoQhWUIMcIxbjoK4v1KBfrH5tz+Bduo6qCoRWY+f+VIPsCutu83QYucRwKDy/6Mhf8o+F5VW3j/25WGs24RWJsckwy3pQXfUkGnKDR26+/H6iTGs3oPxUJoB5Pk583z8FUN+DdEX1NM6Jc9OWOiDuIKO3nxmHO3AlyngQZ6qKviyi7McH33oOhbu83QTcZ7wR5OUrbSvCBmhdBcrnoOxbYsZNjn+rNH1+XYM071BqaYZDWfAjSljkEtTIg/kWf69ffsbiYkebbbx+D7r7aX3DDZJS6vf8f2SvABWmdmIuk9zuMqaSoMn2CSB0KU1z0kYOpEsagOzussGumW/3kk0hMlyA5XvRJkjakVrtYbvX1N3u6x8LTI4hkEVbytteQ4qJP5sv1oD2kVLtq/y4LSzDmB5LKkprApMHEKzwtguR40SdR8TrlnFTtcpeGTu36hbzUJnYsPA2ChIzdbil3R/SRV8i2gvsae18uWnI4Sn+pv9oeVxfN+BNlWH4jnkZs/LgJkutFn2wnI69FSKl2udG4o+ASVky1a9S5u8ZJEMnXWRLRF1q6sp0s1Dri/0nVLhf2uwIwbxEDOSwy4txd4yJIrhd9khMz8moLVEitds3sWHg8BMnxok98YhabHXvtJVe7ONlW6vEl3OkiQ5o/QSSnQCkj+mQewJHF2NVcwsU4g2PhfAkidShMHdF3d297XOXCrhJnOvGxJNxj4azfPsmPIGK1JdFF3/ESVYI8Ju0Ej4XzIojstrnfiD4lSPuuNqFj4TwIIjseTXPRF1JqlCDdCHn7ZPTHwsMShOzVenBKg0/dGVrsnP8rQXCojfxYeBiC5HrRhxO5LzUmghh7CS+eOSN6uJ/IWzjhSVwAkf4JIn8iQJ66M8YykZzcxOgf08YQ+bm6xjXCY+H+CJLjRZ8TZn0LDuY5GLMiv0nu7af3tOcJMKtbWsbeQFm490a+o1uqVV6AUxYW2I4kH5een8TuhyC395/ZmUNSRPR5YjS/BMV11+ae3GAXFb6cCw92uyw+TDc2FtixSo6Fz572snZ76YSsr6dWDTDethx37WqhVRdmb7BrJFo5LmY4LD5uM5qkedaN83GZL0ESXvRR3UPqLB4l3BBVFX6cN4sxDHWKlZQ7YWgt9Vh4hgRJd9En8edyC9a5a3PsE9HJDYopHHWKn5TbY+HeZ3e22g1qhNRC2GPh2RDEwl9wYpZJUshI/LmaBMvxkJWc3LQtLo46JXbhORpM6tQ/d1/XnbEnsyFIigcn5XEj3d89TpZBycnNwWgY6pTMhSeARaLcXXdf3S18+1PYShDq3rwtn3Ix7A+Jm2WQf3JDV6dYdgYTd86hRldXSpAanUiu2H0uhkOifIPCXMKLxUfS0rq7d6/bIk+7iBgNFeHIPdRoAk4JEokgEn8u0ooOFKbaJ6EFsN9dYV6hbLTUqiUWL+6hxn77IXxUxQpIQ+LPhRU0pxzWPgktgP2+S/Of4MWfzFOBM9NwHcmtdwgfJUgH/jJ/rrBgpSUwR6HHC6A6mYIVWHjyyDjtWgzSI2zpXDH1/e56QXraTQnCVLHu7p2uT8/4hxFk/DKf4Oxp8yOghwvA3QE9OGH6fF/Ov8snbGsjiL8z+DP+sBO1iNkJ666VIGyC3LIykSeSeaDZOzh72vx6lVsA1rzuvAPyZc5bn3fuehlqmPl294q1pVwrSpCZE8QdLrxahH2bup53VoIk/wxk4KxIPMK8u5/GDhJDtEqQGCh2tqEESQtxu4oVo18lSAwUlSDJUWzvQAmyj43aIC0rpTN+e7IqFt01hMrk2hGyy2eJ2mbK8kqQHgjCeXQypdCP2+a+n76L6iu+Az3+xGU2dK4rZ31OldyXEqQHgmSdTYQZ7HUc1cd11cg2Pn67LpQgsyXIp+1FX/jYdh+iUITj+OPjDxeEEmRmBOEGe1FfxuK4kg8ZH9+meylBZkKQ2m+KmoxNEuHIdSXHhrCSDQpGBSXIHAjCiOiL6YbOfc7sj805lHY1aP4uJcikCcI7tk0V4UiNP3GiSREfT9lIlCATJIg/tl2SIwb7inDExp/siyZafDyFHQCgBJkaQYiXmP4rfQrG/sbKJElcb7visvj4/tKmKkEmRhBK1Fpb+k7uoufU49gnfTp/KkFmSpDcIhwp9okSpPNTNEZv3v4ezwztIKGLPs4uELUO4l0NJciECNK3e3cXQbgZ66MSANGYs08Kc9F6yKAEUYIgllFzkS6CZO0TdjydjsMGJYgSRAmiBOGugXHZIDmpWLqD0NecnmIlPsVSgtAXZVVDdxAmcKA7SBdyaoNw11VzPd1BEu8g/pb64y6hWlzxPW5NCRITYefLdo5KdeR61bxYNfYMd46+PFOVIHKCOF82zkOsShABQVzVPjxTlSB8gnBjZuoelSBCgtTVvWfqCv/WBkHmShACWPtFmbH5+00oQSIR5IEo8V+WVYJQCcKLzW/qRQkSmSB1czEzeyhBsAS5g8KsUI/8oFvUNwq3UDGMdAzInMfpj9tVgnQjzc0BhpGf7iCJdpB98KWZB5UgzUvZGeAG1nD2zNl+aX5KkB4IcmjIr8kP7yhBmhb/4WM/aeih9yAPuCZSsZoE511V3FcvnKLT5bx6+fR5q/zn54tFu+iTEkd3kB53kGNhdV00Ys/vp0KQ0DE596JPCUJAIGZ298c2xhVYOAVbXKLdGOo2qifOYAnG/LD9E159mApB9k//9nfX6kNRuGwuLik2/ldljSyvwBRfyEm493vRHUS4gxzHgfMzDz6BolxBUXwkHVNOjSC1ONzuastTKIs1vFp8RzOjKWkFVyauUyUIkyChOHBuZnT0StgWnCpBqDhUi3nzFmyVtfFJY3UOUWZGEPeuYPPPmPekbRwbIkrJ7MFaFPf9JY/gjO+gTqKDEGpyPHV3F0sy3ACWILsNyr7f2id4dSE8CoA57yA+Cfc7MKb5Dfg2/JQgmJUlLEMliOvOb/ErOFvcCHt/qD5HgtRJuKE6Kqf/lCB0zMg1OATZ7SbwDU7MBcoYD71jPhWCODXp50W7Clxj55NwOzvjlCyzuoIShA0dvqKEIA9EuQVrLhqPhfe/knO5SbdgW/HwdsZVlFzDShD8OmeXjEGQXedmdXBWf3xC1p047tugb21QADRV4rjm+4waz2M11H0ovJ1xTumqs6wSJBqU7Q3d3v8JBtpdQKhD8AtjCdaeP/pKdhFE6ghJHSevfNg95PiD407/jLkFa5etx7a8sejzB1zcSPX61P1DuXndwId6a6MLNIp7SNQdOSBJ3UFIS51XODeC1LPwuvq6t4wrTehx3EOUIJ3rsJ+8WDwqNNfqkyDG/Ep+WapyhCzXe/5dMWff0RYjDtynUfosOpmizE53EApazLJ9EsQN0d/IN594tU2hX/vEOViuSI6aktd2mWKrqilBJOgh6/ZNkN2wjk68MMNNa5/Q48CHIkaNlRIEs2qEZQYjSLWbfANrXpG+1m66MRNJcB8VdeMYTP3bylwJIlz8mOrDEYSuyhzPR5JIIlYcuFf/VgDmLQbuqGWUIFHhHN5I9yOQE2N/JqwFam+gLJydEc/h0gU2FdbF6YfDj2OJVQnSgqR7rqztV5gPRHf3/tzMS7Mgq1PYxeTtE3e73bVAwxd92P7ayt3ef+ntaFoJ0iKFmCG3fapYmIvCesrOma+Av1GOf/swNdknLmHEiVmS2/J+ZG+ghE9oYus9SOcnpp97kCkTxN8l/LZzU7FV/Mk1eoHW4qnsE3MOhVmTdtQHgl4duocgT92UIBMiiFdLNlKtAl0/tIO0hZpyQkzRgzoq2BWCjImDUYJMiCA5PcGGeQbaHQsX5pJ8G48hC8kNXZ9gw0DaVGZcKlZOBKHYQjHj41mXfUoQJQgXga560QOm7BrKyj6hH9fWgVwsN3QlCHd56A7SK0GY8fE+3NV5Cjen1QlKXwkShKilgBKkb4LU/Tn7JBQfT02r0zoXJYgShIvAUATZEcV+fJQ29fjoWDw3JQgXwnHtIG6Wfb1w6/qKboN0iam6t/jg89pGjAOvuhyYIJQIx929jr4wtYWCkfWvjxdueycI9xuHqTcQQbCZ8pumMLPUox3+UwyC1ICGUvdj1s7QKpZ0jKj6QxCEEeG4PxclyE4JvxY/5ZXKM7VXFQu10pmFeiVIHO9nJUhEgtRNxQxMUhWLSkZ6hGNXD0qQBASpm5QEJu0LTXeQMElSvXSrBElIENd0jMQJSpB2gsSKcGzqwR9z/96ZIDDkSBqmNqpEBse8bpxI12zUlI4KSQx5JUgb4vin6igyo2SPnxdBdi4YSzhbfKBgii5LeeG2blQJcgxvughHqjvN7Aiy07jgC5yYS3I0HZYp2ItGp1u/fNqe6p/izYsdW7JyXadYX9fBBA7cCEfMfEhu+3sNzpYgO6I0uGBgAMeWefzCra+JNTqnQhA357bdlZPKFIu/JHt86OOFHQOiXE82yKPnlhFDq4sktU+ebDN7vEETox7WlAhSz6neXcE+AQPONZ/20i1WqscvFGPrpTwYaBlDPwRxnVcGWJVm5g0Wj125+omCVPZJ6DWppgFPkSD1PDl4YITq1SkXv895peoTlGZJjvXHjKujTH8EeQCfn48J4yIuBARdfcoEQYOALCjxTuY4OiKHhSnWP0EetvPXUFZBQD9iBnpQhpNQmtxJoIISBI+oDxP+Qsp4P4A61TSh4Qiy0+Ul9okghBUv3uaSShAags67wZp3yEqDqFN5EiSOfRL3iWeMFJUgGJQOy4RSDA2sTuVLkH3jMJyOs1kwfdsnShA6QdpUrUzUqfwJUo9Q4pUbM8VO1xJQgtAJ4mo8VrWyUafGQ5CdIe/SccKKZNzVdX0K0EtWih2M6EPeppg2+inj3EPc8eiXfrpD9OJULQuncGLOk3lMIIaBKTK8kR4aJeu5gG2jdQrQs8V1qBvW/3EZ2llNiytJHtoJdf6QJPsD6wPk6nNyg4XGleD/+RMkln2SKgVopTZs+EfWsYVa6/PpbsH3cnQJwqVjzztRe+MhSO72SYz4E7mQ0+nzbTm6Ur6hIsdD3ML4CJK7fTKE2pXS29afPL0DY143rjZrP8LLZ7+KV2KmDYyXIA5QyVc79RMFfahdkrQ6oQVJCV6ivBwV6jez/4+bIIf2iXOE/IWMr7s/McZdNMYP1JIQODyRNFF9rt+2d0/axuQwfPl0ER7y+EpMgyCH9onz7/qJLAp3f3JirpMcO8ZVu9Id20q8bY35Nck7KGRBxq0wLYLs7JPNOZTlWnB/Qn9CDSMXidqFDeTCjOO4jNTbtjDLKZLDwTRNguRsn7DULmGWwjbS+LFcAZglmVcZu4eQ59JRYboEyd8+GfYZaKqdcbiI0tk/MVd3hLamT5B9+6S0q8C75M2QprRPmtSulF6tXY9+hhdUOvsn3PcgJeZDkAP7xK54gVqJEkkcZKuHtThXcdNScvmLjX23e66astxSEpYyjgHKzo8g+/aJhSXLkE+Z6C72IhBlD7H/QAErePHMHaHP8jdPghzaJ07tyi+RRIzlyM0eUvVtb6AsVmNxKowBV1Mb8yZIHPskbaI7juTldsZ539lDONPso44SZB9lbNbFJsk4nyQff/KtD8E19qF2RnTolSDHkIqfd0uY6K5N/N6hkPe2YUp/rujLtf8GlSBdi66ojoW59kn6RBK1Q6G1S94b6mpnhCinBAkhJHneLWUiCZ8N3R1XjyZLYQjqHP+vBMFKReZHdQvWXESxT7jZ0KuDKfgLTswyiUMmFseRlVOCUAXWlhUe1Y4g0Z3YziicQ+F71DC10A4BJQhnMcgTcePtE7mdcZ0sSzsHu5HVUYJIBJbaPlE7QyKdKHWVIDFglNsn7v7kIW9VW4IEzFjVzsCghC6jBEFDhSgoeX7aJ7q72d5nNCdI6BpCyoAqxNSnWkQJEluykkR3nLGkzoPFGdOE6ihBUgkzbhx62yhd4JJzKBzOvSUVfpm0qwRJLQhJIu72sd1BYVZ6n5FaeFOOSU+PHa0HiX1S96R2Bg3zCKV1B4kAIroJrn2idgYa4tgFlSCxEcW05+0TbKI7tTMwmCYqowRJBCyqWW+ftCW6m12CBBRmPRdSgvQMeGN3VaDWNtFdync9cpjryMagBMlFYM4+OYHX6lCYi0D8OJQgeclDR5MZAkqQzASiw8kLASVIXvLQ0WSGgBIkM4HocPJCQAmSlzx0NJkhoATJTCA6nLwQUILkJQ8dTWYIKEEyE4gOJy8ElCB5yUNHkxkCSpDMBKLDyQsBJUhe8tDRZIaAEiQzgehw8kLg/7+czJspfpNhAAAAAElFTkSuQmCC" parent="1" vertex="1">
          <mxGeometry x="567" y="-686" width="38" height="38" as="geometry" />
        </mxCell>
        <mxCell id="-dllcQzm70aawtmvtiuD-37" value="" style="shape=image;verticalLabelPosition=bottom;verticalAlign=top;imageAspect=0;aspect=fixed;image=data:image/png,iVBORw0KGgoAAAANSUhEUgAAAMgAAADICAYAAACtWK6eAAAVUUlEQVR4Xu1d/X3bNhM+0AM0G9RKBmjeARonEzSdIPYEkSewPEHkCZpM0GSC2H0HaDpArHSCNx2gxPsDIcqSTBL3AZAgefrTxudzeIg74O5gQH+KgCLQioBRbBQBRaAdASWIrg5FoAMBJYguD0VACaJrQBHgIaA7CA83rTUTBJQgMxG0TpOHgBKEh5vWmgkCSpCZCFqnyUNACcLDTWvNBAElyEwErdPkIaAE4eGmtWaCgBJkJoLWafIQUILwcNNaM0FACTITQes0eQgoQXi4aa2ZIKAEyU3QnzdPAOAJvFp8y21ocxyPEiQnqd9trsDaZTUkY9ZQwg28WnzPaYhzG4sSJAeJ323egLUrMHB6MBwL38GYJZwtPuQwzDmOQQkypNT/u3kJ/9orMPCycxgWvsCJuYSfF7dDDneOfStBhpD6580pmPIKjDkndW/hFqy5UPuEhJqosBJEBB+xsjPAC3gLYFfEmkfF7RrK4lrtExmKmNpKEAxKMcp4O2MNBtwplfzn7ZM1nC2u5Y1pC20IKEFSrw1vZ7wDA8+TdGXhGxTmEl4sPiZpf+aNKkFSLYDKzrC/BQ3wWP07++TEXKshHwtQ344SJC6eAJWdUV4BGH+fQf7ZrcpkrshVXQVr34Ot7BO9aGQBeFhJCRIBxF0T9UUfz874AKVZ7Ra224EK+x4AzshDtPA3WPNcjXgyco8qKEHkGAL8sXkNZWVnHF704dq+g8KsWlUj37Yz7n/ENVdtI9dw9kx4UobvbcollSAS6WIv+pr6cF95R4wXC7dLdP+82rYEQKhd1v4DtjjV3SMEKu7/ShAcToeluBd93kb4BwysWV94lNqluwdHpG11lCAUNOuLPudQyLczluKve5va5Xall085ah4FhVmVVYJgxS276LuD0pxHPVlqUruMuUCpbNg5azk95g2uAclFn/uin5jzpHcTtdpl4VR3j6A0yQV0B2mDzNsZ78CY12RUnZ1RFMtev+ZuR9HYEbKoQhWUIMcIxbjoK4v1KBfrH5tz+Bduo6qCoRWY+f+VIPsCutu83QYucRwKDy/6Mhf8o+F5VW3j/25WGs24RWJsckwy3pQXfUkGnKDR26+/H6iTGs3oPxUJoB5Pk583z8FUN+DdEX1NM6Jc9OWOiDuIKO3nxmHO3AlyngQZ6qKviyi7McH33oOhbu83QTcZ7wR5OUrbSvCBmhdBcrnoOxbYsZNjn+rNH1+XYM071BqaYZDWfAjSljkEtTIg/kWf69ffsbiYkebbbx+D7r7aX3DDZJS6vf8f2SvABWmdmIuk9zuMqaSoMn2CSB0KU1z0kYOpEsagOzussGumW/3kk0hMlyA5XvRJkjakVrtYbvX1N3u6x8LTI4hkEVbytteQ4qJP5sv1oD2kVLtq/y4LSzDmB5LKkprApMHEKzwtguR40SdR8TrlnFTtcpeGTu36hbzUJnYsPA2ChIzdbil3R/SRV8i2gvsae18uWnI4Sn+pv9oeVxfN+BNlWH4jnkZs/LgJkutFn2wnI69FSKl2udG4o+ASVky1a9S5u8ZJEMnXWRLRF1q6sp0s1Dri/0nVLhf2uwIwbxEDOSwy4txd4yJIrhd9khMz8moLVEitds3sWHg8BMnxok98YhabHXvtJVe7ONlW6vEl3OkiQ5o/QSSnQCkj+mQewJHF2NVcwsU4g2PhfAkidShMHdF3d297XOXCrhJnOvGxJNxj4azfPsmPIGK1JdFF3/ESVYI8Ju0Ej4XzIojstrnfiD4lSPuuNqFj4TwIIjseTXPRF1JqlCDdCHn7ZPTHwsMShOzVenBKg0/dGVrsnP8rQXCojfxYeBiC5HrRhxO5LzUmghh7CS+eOSN6uJ/IWzjhSVwAkf4JIn8iQJ66M8YykZzcxOgf08YQ+bm6xjXCY+H+CJLjRZ8TZn0LDuY5GLMiv0nu7af3tOcJMKtbWsbeQFm490a+o1uqVV6AUxYW2I4kH5een8TuhyC395/ZmUNSRPR5YjS/BMV11+ae3GAXFb6cCw92uyw+TDc2FtixSo6Fz572snZ76YSsr6dWDTDethx37WqhVRdmb7BrJFo5LmY4LD5uM5qkedaN83GZL0ESXvRR3UPqLB4l3BBVFX6cN4sxDHWKlZQ7YWgt9Vh4hgRJd9En8edyC9a5a3PsE9HJDYopHHWKn5TbY+HeZ3e22g1qhNRC2GPh2RDEwl9wYpZJUshI/LmaBMvxkJWc3LQtLo46JXbhORpM6tQ/d1/XnbEnsyFIigcn5XEj3d89TpZBycnNwWgY6pTMhSeARaLcXXdf3S18+1PYShDq3rwtn3Ix7A+Jm2WQf3JDV6dYdgYTd86hRldXSpAanUiu2H0uhkOifIPCXMKLxUfS0rq7d6/bIk+7iBgNFeHIPdRoAk4JEokgEn8u0ooOFKbaJ6EFsN9dYV6hbLTUqiUWL+6hxn77IXxUxQpIQ+LPhRU0pxzWPgktgP2+S/Of4MWfzFOBM9NwHcmtdwgfJUgH/jJ/rrBgpSUwR6HHC6A6mYIVWHjyyDjtWgzSI2zpXDH1/e56QXraTQnCVLHu7p2uT8/4hxFk/DKf4Oxp8yOghwvA3QE9OGH6fF/Ov8snbGsjiL8z+DP+sBO1iNkJ666VIGyC3LIykSeSeaDZOzh72vx6lVsA1rzuvAPyZc5bn3fuehlqmPl294q1pVwrSpCZE8QdLrxahH2bup53VoIk/wxk4KxIPMK8u5/GDhJDtEqQGCh2tqEESQtxu4oVo18lSAwUlSDJUWzvQAmyj43aIC0rpTN+e7IqFt01hMrk2hGyy2eJ2mbK8kqQHgjCeXQypdCP2+a+n76L6iu+Az3+xGU2dK4rZ31OldyXEqQHgmSdTYQZ7HUc1cd11cg2Pn67LpQgsyXIp+1FX/jYdh+iUITj+OPjDxeEEmRmBOEGe1FfxuK4kg8ZH9+meylBZkKQ2m+KmoxNEuHIdSXHhrCSDQpGBSXIHAjCiOiL6YbOfc7sj805lHY1aP4uJcikCcI7tk0V4UiNP3GiSREfT9lIlCATJIg/tl2SIwb7inDExp/siyZafDyFHQCgBJkaQYiXmP4rfQrG/sbKJElcb7visvj4/tKmKkEmRhBK1Fpb+k7uoufU49gnfTp/KkFmSpDcIhwp9okSpPNTNEZv3v4ezwztIKGLPs4uELUO4l0NJciECNK3e3cXQbgZ66MSANGYs08Kc9F6yKAEUYIgllFzkS6CZO0TdjydjsMGJYgSRAmiBOGugXHZIDmpWLqD0NecnmIlPsVSgtAXZVVDdxAmcKA7SBdyaoNw11VzPd1BEu8g/pb64y6hWlzxPW5NCRITYefLdo5KdeR61bxYNfYMd46+PFOVIHKCOF82zkOsShABQVzVPjxTlSB8gnBjZuoelSBCgtTVvWfqCv/WBkHmShACWPtFmbH5+00oQSIR5IEo8V+WVYJQCcKLzW/qRQkSmSB1czEzeyhBsAS5g8KsUI/8oFvUNwq3UDGMdAzInMfpj9tVgnQjzc0BhpGf7iCJdpB98KWZB5UgzUvZGeAG1nD2zNl+aX5KkB4IcmjIr8kP7yhBmhb/4WM/aeih9yAPuCZSsZoE511V3FcvnKLT5bx6+fR5q/zn54tFu+iTEkd3kB53kGNhdV00Ys/vp0KQ0DE596JPCUJAIGZ298c2xhVYOAVbXKLdGOo2qifOYAnG/LD9E159mApB9k//9nfX6kNRuGwuLik2/ldljSyvwBRfyEm493vRHUS4gxzHgfMzDz6BolxBUXwkHVNOjSC1ONzuastTKIs1vFp8RzOjKWkFVyauUyUIkyChOHBuZnT0StgWnCpBqDhUi3nzFmyVtfFJY3UOUWZGEPeuYPPPmPekbRwbIkrJ7MFaFPf9JY/gjO+gTqKDEGpyPHV3F0sy3ACWILsNyr7f2id4dSE8CoA57yA+Cfc7MKb5Dfg2/JQgmJUlLEMliOvOb/ErOFvcCHt/qD5HgtRJuKE6Kqf/lCB0zMg1OATZ7SbwDU7MBcoYD71jPhWCODXp50W7Clxj55NwOzvjlCyzuoIShA0dvqKEIA9EuQVrLhqPhfe/knO5SbdgW/HwdsZVlFzDShD8OmeXjEGQXedmdXBWf3xC1p047tugb21QADRV4rjm+4waz2M11H0ovJ1xTumqs6wSJBqU7Q3d3v8JBtpdQKhD8AtjCdaeP/pKdhFE6ghJHSevfNg95PiD407/jLkFa5etx7a8sejzB1zcSPX61P1DuXndwId6a6MLNIp7SNQdOSBJ3UFIS51XODeC1LPwuvq6t4wrTehx3EOUIJ3rsJ+8WDwqNNfqkyDG/Ep+WapyhCzXe/5dMWff0RYjDtynUfosOpmizE53EApazLJ9EsQN0d/IN594tU2hX/vEOViuSI6aktd2mWKrqilBJOgh6/ZNkN2wjk68MMNNa5/Q48CHIkaNlRIEs2qEZQYjSLWbfANrXpG+1m66MRNJcB8VdeMYTP3bylwJIlz8mOrDEYSuyhzPR5JIIlYcuFf/VgDmLQbuqGWUIFHhHN5I9yOQE2N/JqwFam+gLJydEc/h0gU2FdbF6YfDj2OJVQnSgqR7rqztV5gPRHf3/tzMS7Mgq1PYxeTtE3e73bVAwxd92P7ayt3ef+ntaFoJ0iKFmCG3fapYmIvCesrOma+Av1GOf/swNdknLmHEiVmS2/J+ZG+ghE9oYus9SOcnpp97kCkTxN8l/LZzU7FV/Mk1eoHW4qnsE3MOhVmTdtQHgl4duocgT92UIBMiiFdLNlKtAl0/tIO0hZpyQkzRgzoq2BWCjImDUYJMiCA5PcGGeQbaHQsX5pJ8G48hC8kNXZ9gw0DaVGZcKlZOBKHYQjHj41mXfUoQJQgXga560QOm7BrKyj6hH9fWgVwsN3QlCHd56A7SK0GY8fE+3NV5Cjen1QlKXwkShKilgBKkb4LU/Tn7JBQfT02r0zoXJYgShIvAUATZEcV+fJQ29fjoWDw3JQgXwnHtIG6Wfb1w6/qKboN0iam6t/jg89pGjAOvuhyYIJQIx929jr4wtYWCkfWvjxdueycI9xuHqTcQQbCZ8pumMLPUox3+UwyC1ICGUvdj1s7QKpZ0jKj6QxCEEeG4PxclyE4JvxY/5ZXKM7VXFQu10pmFeiVIHO9nJUhEgtRNxQxMUhWLSkZ6hGNXD0qQBASpm5QEJu0LTXeQMElSvXSrBElIENd0jMQJSpB2gsSKcGzqwR9z/96ZIDDkSBqmNqpEBse8bpxI12zUlI4KSQx5JUgb4vin6igyo2SPnxdBdi4YSzhbfKBgii5LeeG2blQJcgxvughHqjvN7Aiy07jgC5yYS3I0HZYp2ItGp1u/fNqe6p/izYsdW7JyXadYX9fBBA7cCEfMfEhu+3sNzpYgO6I0uGBgAMeWefzCra+JNTqnQhA357bdlZPKFIu/JHt86OOFHQOiXE82yKPnlhFDq4sktU+ebDN7vEETox7WlAhSz6neXcE+AQPONZ/20i1WqscvFGPrpTwYaBlDPwRxnVcGWJVm5g0Wj125+omCVPZJ6DWppgFPkSD1PDl4YITq1SkXv895peoTlGZJjvXHjKujTH8EeQCfn48J4yIuBARdfcoEQYOALCjxTuY4OiKHhSnWP0EetvPXUFZBQD9iBnpQhpNQmtxJoIISBI+oDxP+Qsp4P4A61TSh4Qiy0+Ul9okghBUv3uaSShAags67wZp3yEqDqFN5EiSOfRL3iWeMFJUgGJQOy4RSDA2sTuVLkH3jMJyOs1kwfdsnShA6QdpUrUzUqfwJUo9Q4pUbM8VO1xJQgtAJ4mo8VrWyUafGQ5CdIe/SccKKZNzVdX0K0EtWih2M6EPeppg2+inj3EPc8eiXfrpD9OJULQuncGLOk3lMIIaBKTK8kR4aJeu5gG2jdQrQs8V1qBvW/3EZ2llNiytJHtoJdf6QJPsD6wPk6nNyg4XGleD/+RMkln2SKgVopTZs+EfWsYVa6/PpbsH3cnQJwqVjzztRe+MhSO72SYz4E7mQ0+nzbTm6Ur6hIsdD3ML4CJK7fTKE2pXS29afPL0DY143rjZrP8LLZ7+KV2KmDYyXIA5QyVc79RMFfahdkrQ6oQVJCV6ivBwV6jez/4+bIIf2iXOE/IWMr7s/McZdNMYP1JIQODyRNFF9rt+2d0/axuQwfPl0ER7y+EpMgyCH9onz7/qJLAp3f3JirpMcO8ZVu9Id20q8bY35Nck7KGRBxq0wLYLs7JPNOZTlWnB/Qn9CDSMXidqFDeTCjOO4jNTbtjDLKZLDwTRNguRsn7DULmGWwjbS+LFcAZglmVcZu4eQ59JRYboEyd8+GfYZaKqdcbiI0tk/MVd3hLamT5B9+6S0q8C75M2QprRPmtSulF6tXY9+hhdUOvsn3PcgJeZDkAP7xK54gVqJEkkcZKuHtThXcdNScvmLjX23e66astxSEpYyjgHKzo8g+/aJhSXLkE+Z6C72IhBlD7H/QAErePHMHaHP8jdPghzaJ07tyi+RRIzlyM0eUvVtb6AsVmNxKowBV1Mb8yZIHPskbaI7juTldsZ539lDONPso44SZB9lbNbFJsk4nyQff/KtD8E19qF2RnTolSDHkIqfd0uY6K5N/N6hkPe2YUp/rujLtf8GlSBdi66ojoW59kn6RBK1Q6G1S94b6mpnhCinBAkhJHneLWUiCZ8N3R1XjyZLYQjqHP+vBMFKReZHdQvWXESxT7jZ0KuDKfgLTswyiUMmFseRlVOCUAXWlhUe1Y4g0Z3YziicQ+F71DC10A4BJQhnMcgTcePtE7mdcZ0sSzsHu5HVUYJIBJbaPlE7QyKdKHWVIDFglNsn7v7kIW9VW4IEzFjVzsCghC6jBEFDhSgoeX7aJ7q72d5nNCdI6BpCyoAqxNSnWkQJEluykkR3nLGkzoPFGdOE6ihBUgkzbhx62yhd4JJzKBzOvSUVfpm0qwRJLQhJIu72sd1BYVZ6n5FaeFOOSU+PHa0HiX1S96R2Bg3zCKV1B4kAIroJrn2idgYa4tgFlSCxEcW05+0TbKI7tTMwmCYqowRJBCyqWW+ftCW6m12CBBRmPRdSgvQMeGN3VaDWNtFdync9cpjryMagBMlFYM4+OYHX6lCYi0D8OJQgeclDR5MZAkqQzASiw8kLASVIXvLQ0WSGgBIkM4HocPJCQAmSlzx0NJkhoATJTCA6nLwQUILkJQ8dTWYIKEEyE4gOJy8ElCB5yUNHkxkCSpDMBKLDyQsBJUhe8tDRZIaAEiQzgehw8kLg/7+czJspfpNhAAAAAElFTkSuQmCC" parent="1" vertex="1">
          <mxGeometry x="536" y="-652" width="38" height="38" as="geometry" />
        </mxCell>
        <mxCell id="-dllcQzm70aawtmvtiuD-38" value="" style="shape=image;verticalLabelPosition=bottom;verticalAlign=top;imageAspect=0;aspect=fixed;image=data:image/png,iVBORw0KGgoAAAANSUhEUgAAAMgAAADICAYAAACtWK6eAAAVUUlEQVR4Xu1d/X3bNhM+0AM0G9RKBmjeARonEzSdIPYEkSewPEHkCZpM0GSC2H0HaDpArHSCNx2gxPsDIcqSTBL3AZAgefrTxudzeIg74O5gQH+KgCLQioBRbBQBRaAdASWIrg5FoAMBJYguD0VACaJrQBHgIaA7CA83rTUTBJQgMxG0TpOHgBKEh5vWmgkCSpCZCFqnyUNACcLDTWvNBAElyEwErdPkIaAE4eGmtWaCgBJkJoLWafIQUILwcNNaM0FACTITQes0eQgoQXi4aa2ZIKAEyU3QnzdPAOAJvFp8y21ocxyPEiQnqd9trsDaZTUkY9ZQwg28WnzPaYhzG4sSJAeJ323egLUrMHB6MBwL38GYJZwtPuQwzDmOQQkypNT/u3kJ/9orMPCycxgWvsCJuYSfF7dDDneOfStBhpD6580pmPIKjDkndW/hFqy5UPuEhJqosBJEBB+xsjPAC3gLYFfEmkfF7RrK4lrtExmKmNpKEAxKMcp4O2MNBtwplfzn7ZM1nC2u5Y1pC20IKEFSrw1vZ7wDA8+TdGXhGxTmEl4sPiZpf+aNKkFSLYDKzrC/BQ3wWP07++TEXKshHwtQ344SJC6eAJWdUV4BGH+fQf7ZrcpkrshVXQVr34Ot7BO9aGQBeFhJCRIBxF0T9UUfz874AKVZ7Ra224EK+x4AzshDtPA3WPNcjXgyco8qKEHkGAL8sXkNZWVnHF704dq+g8KsWlUj37Yz7n/ENVdtI9dw9kx4UobvbcollSAS6WIv+pr6cF95R4wXC7dLdP+82rYEQKhd1v4DtjjV3SMEKu7/ShAcToeluBd93kb4BwysWV94lNqluwdHpG11lCAUNOuLPudQyLczluKve5va5Xall085ah4FhVmVVYJgxS276LuD0pxHPVlqUruMuUCpbNg5azk95g2uAclFn/uin5jzpHcTtdpl4VR3j6A0yQV0B2mDzNsZ78CY12RUnZ1RFMtev+ZuR9HYEbKoQhWUIMcIxbjoK4v1KBfrH5tz+Bduo6qCoRWY+f+VIPsCutu83QYucRwKDy/6Mhf8o+F5VW3j/25WGs24RWJsckwy3pQXfUkGnKDR26+/H6iTGs3oPxUJoB5Pk583z8FUN+DdEX1NM6Jc9OWOiDuIKO3nxmHO3AlyngQZ6qKviyi7McH33oOhbu83QTcZ7wR5OUrbSvCBmhdBcrnoOxbYsZNjn+rNH1+XYM071BqaYZDWfAjSljkEtTIg/kWf69ffsbiYkebbbx+D7r7aX3DDZJS6vf8f2SvABWmdmIuk9zuMqaSoMn2CSB0KU1z0kYOpEsagOzussGumW/3kk0hMlyA5XvRJkjakVrtYbvX1N3u6x8LTI4hkEVbytteQ4qJP5sv1oD2kVLtq/y4LSzDmB5LKkprApMHEKzwtguR40SdR8TrlnFTtcpeGTu36hbzUJnYsPA2ChIzdbil3R/SRV8i2gvsae18uWnI4Sn+pv9oeVxfN+BNlWH4jnkZs/LgJkutFn2wnI69FSKl2udG4o+ASVky1a9S5u8ZJEMnXWRLRF1q6sp0s1Dri/0nVLhf2uwIwbxEDOSwy4txd4yJIrhd9khMz8moLVEitds3sWHg8BMnxok98YhabHXvtJVe7ONlW6vEl3OkiQ5o/QSSnQCkj+mQewJHF2NVcwsU4g2PhfAkidShMHdF3d297XOXCrhJnOvGxJNxj4azfPsmPIGK1JdFF3/ESVYI8Ju0Ej4XzIojstrnfiD4lSPuuNqFj4TwIIjseTXPRF1JqlCDdCHn7ZPTHwsMShOzVenBKg0/dGVrsnP8rQXCojfxYeBiC5HrRhxO5LzUmghh7CS+eOSN6uJ/IWzjhSVwAkf4JIn8iQJ66M8YykZzcxOgf08YQ+bm6xjXCY+H+CJLjRZ8TZn0LDuY5GLMiv0nu7af3tOcJMKtbWsbeQFm490a+o1uqVV6AUxYW2I4kH5een8TuhyC395/ZmUNSRPR5YjS/BMV11+ae3GAXFb6cCw92uyw+TDc2FtixSo6Fz572snZ76YSsr6dWDTDethx37WqhVRdmb7BrJFo5LmY4LD5uM5qkedaN83GZL0ESXvRR3UPqLB4l3BBVFX6cN4sxDHWKlZQ7YWgt9Vh4hgRJd9En8edyC9a5a3PsE9HJDYopHHWKn5TbY+HeZ3e22g1qhNRC2GPh2RDEwl9wYpZJUshI/LmaBMvxkJWc3LQtLo46JXbhORpM6tQ/d1/XnbEnsyFIigcn5XEj3d89TpZBycnNwWgY6pTMhSeARaLcXXdf3S18+1PYShDq3rwtn3Ix7A+Jm2WQf3JDV6dYdgYTd86hRldXSpAanUiu2H0uhkOifIPCXMKLxUfS0rq7d6/bIk+7iBgNFeHIPdRoAk4JEokgEn8u0ooOFKbaJ6EFsN9dYV6hbLTUqiUWL+6hxn77IXxUxQpIQ+LPhRU0pxzWPgktgP2+S/Of4MWfzFOBM9NwHcmtdwgfJUgH/jJ/rrBgpSUwR6HHC6A6mYIVWHjyyDjtWgzSI2zpXDH1/e56QXraTQnCVLHu7p2uT8/4hxFk/DKf4Oxp8yOghwvA3QE9OGH6fF/Ov8snbGsjiL8z+DP+sBO1iNkJ666VIGyC3LIykSeSeaDZOzh72vx6lVsA1rzuvAPyZc5bn3fuehlqmPl294q1pVwrSpCZE8QdLrxahH2bup53VoIk/wxk4KxIPMK8u5/GDhJDtEqQGCh2tqEESQtxu4oVo18lSAwUlSDJUWzvQAmyj43aIC0rpTN+e7IqFt01hMrk2hGyy2eJ2mbK8kqQHgjCeXQypdCP2+a+n76L6iu+Az3+xGU2dK4rZ31OldyXEqQHgmSdTYQZ7HUc1cd11cg2Pn67LpQgsyXIp+1FX/jYdh+iUITj+OPjDxeEEmRmBOEGe1FfxuK4kg8ZH9+meylBZkKQ2m+KmoxNEuHIdSXHhrCSDQpGBSXIHAjCiOiL6YbOfc7sj805lHY1aP4uJcikCcI7tk0V4UiNP3GiSREfT9lIlCATJIg/tl2SIwb7inDExp/siyZafDyFHQCgBJkaQYiXmP4rfQrG/sbKJElcb7visvj4/tKmKkEmRhBK1Fpb+k7uoufU49gnfTp/KkFmSpDcIhwp9okSpPNTNEZv3v4ezwztIKGLPs4uELUO4l0NJciECNK3e3cXQbgZ66MSANGYs08Kc9F6yKAEUYIgllFzkS6CZO0TdjydjsMGJYgSRAmiBOGugXHZIDmpWLqD0NecnmIlPsVSgtAXZVVDdxAmcKA7SBdyaoNw11VzPd1BEu8g/pb64y6hWlzxPW5NCRITYefLdo5KdeR61bxYNfYMd46+PFOVIHKCOF82zkOsShABQVzVPjxTlSB8gnBjZuoelSBCgtTVvWfqCv/WBkHmShACWPtFmbH5+00oQSIR5IEo8V+WVYJQCcKLzW/qRQkSmSB1czEzeyhBsAS5g8KsUI/8oFvUNwq3UDGMdAzInMfpj9tVgnQjzc0BhpGf7iCJdpB98KWZB5UgzUvZGeAG1nD2zNl+aX5KkB4IcmjIr8kP7yhBmhb/4WM/aeih9yAPuCZSsZoE511V3FcvnKLT5bx6+fR5q/zn54tFu+iTEkd3kB53kGNhdV00Ys/vp0KQ0DE596JPCUJAIGZ298c2xhVYOAVbXKLdGOo2qifOYAnG/LD9E159mApB9k//9nfX6kNRuGwuLik2/ldljSyvwBRfyEm493vRHUS4gxzHgfMzDz6BolxBUXwkHVNOjSC1ONzuastTKIs1vFp8RzOjKWkFVyauUyUIkyChOHBuZnT0StgWnCpBqDhUi3nzFmyVtfFJY3UOUWZGEPeuYPPPmPekbRwbIkrJ7MFaFPf9JY/gjO+gTqKDEGpyPHV3F0sy3ACWILsNyr7f2id4dSE8CoA57yA+Cfc7MKb5Dfg2/JQgmJUlLEMliOvOb/ErOFvcCHt/qD5HgtRJuKE6Kqf/lCB0zMg1OATZ7SbwDU7MBcoYD71jPhWCODXp50W7Clxj55NwOzvjlCyzuoIShA0dvqKEIA9EuQVrLhqPhfe/knO5SbdgW/HwdsZVlFzDShD8OmeXjEGQXedmdXBWf3xC1p047tugb21QADRV4rjm+4waz2M11H0ovJ1xTumqs6wSJBqU7Q3d3v8JBtpdQKhD8AtjCdaeP/pKdhFE6ghJHSevfNg95PiD407/jLkFa5etx7a8sejzB1zcSPX61P1DuXndwId6a6MLNIp7SNQdOSBJ3UFIS51XODeC1LPwuvq6t4wrTehx3EOUIJ3rsJ+8WDwqNNfqkyDG/Ep+WapyhCzXe/5dMWff0RYjDtynUfosOpmizE53EApazLJ9EsQN0d/IN594tU2hX/vEOViuSI6aktd2mWKrqilBJOgh6/ZNkN2wjk68MMNNa5/Q48CHIkaNlRIEs2qEZQYjSLWbfANrXpG+1m66MRNJcB8VdeMYTP3bylwJIlz8mOrDEYSuyhzPR5JIIlYcuFf/VgDmLQbuqGWUIFHhHN5I9yOQE2N/JqwFam+gLJydEc/h0gU2FdbF6YfDj2OJVQnSgqR7rqztV5gPRHf3/tzMS7Mgq1PYxeTtE3e73bVAwxd92P7ayt3ef+ntaFoJ0iKFmCG3fapYmIvCesrOma+Av1GOf/swNdknLmHEiVmS2/J+ZG+ghE9oYus9SOcnpp97kCkTxN8l/LZzU7FV/Mk1eoHW4qnsE3MOhVmTdtQHgl4duocgT92UIBMiiFdLNlKtAl0/tIO0hZpyQkzRgzoq2BWCjImDUYJMiCA5PcGGeQbaHQsX5pJ8G48hC8kNXZ9gw0DaVGZcKlZOBKHYQjHj41mXfUoQJQgXga560QOm7BrKyj6hH9fWgVwsN3QlCHd56A7SK0GY8fE+3NV5Cjen1QlKXwkShKilgBKkb4LU/Tn7JBQfT02r0zoXJYgShIvAUATZEcV+fJQ29fjoWDw3JQgXwnHtIG6Wfb1w6/qKboN0iam6t/jg89pGjAOvuhyYIJQIx929jr4wtYWCkfWvjxdueycI9xuHqTcQQbCZ8pumMLPUox3+UwyC1ICGUvdj1s7QKpZ0jKj6QxCEEeG4PxclyE4JvxY/5ZXKM7VXFQu10pmFeiVIHO9nJUhEgtRNxQxMUhWLSkZ6hGNXD0qQBASpm5QEJu0LTXeQMElSvXSrBElIENd0jMQJSpB2gsSKcGzqwR9z/96ZIDDkSBqmNqpEBse8bpxI12zUlI4KSQx5JUgb4vin6igyo2SPnxdBdi4YSzhbfKBgii5LeeG2blQJcgxvughHqjvN7Aiy07jgC5yYS3I0HZYp2ItGp1u/fNqe6p/izYsdW7JyXadYX9fBBA7cCEfMfEhu+3sNzpYgO6I0uGBgAMeWefzCra+JNTqnQhA357bdlZPKFIu/JHt86OOFHQOiXE82yKPnlhFDq4sktU+ebDN7vEETox7WlAhSz6neXcE+AQPONZ/20i1WqscvFGPrpTwYaBlDPwRxnVcGWJVm5g0Wj125+omCVPZJ6DWppgFPkSD1PDl4YITq1SkXv895peoTlGZJjvXHjKujTH8EeQCfn48J4yIuBARdfcoEQYOALCjxTuY4OiKHhSnWP0EetvPXUFZBQD9iBnpQhpNQmtxJoIISBI+oDxP+Qsp4P4A61TSh4Qiy0+Ul9okghBUv3uaSShAags67wZp3yEqDqFN5EiSOfRL3iWeMFJUgGJQOy4RSDA2sTuVLkH3jMJyOs1kwfdsnShA6QdpUrUzUqfwJUo9Q4pUbM8VO1xJQgtAJ4mo8VrWyUafGQ5CdIe/SccKKZNzVdX0K0EtWih2M6EPeppg2+inj3EPc8eiXfrpD9OJULQuncGLOk3lMIIaBKTK8kR4aJeu5gG2jdQrQs8V1qBvW/3EZ2llNiytJHtoJdf6QJPsD6wPk6nNyg4XGleD/+RMkln2SKgVopTZs+EfWsYVa6/PpbsH3cnQJwqVjzztRe+MhSO72SYz4E7mQ0+nzbTm6Ur6hIsdD3ML4CJK7fTKE2pXS29afPL0DY143rjZrP8LLZ7+KV2KmDYyXIA5QyVc79RMFfahdkrQ6oQVJCV6ivBwV6jez/4+bIIf2iXOE/IWMr7s/McZdNMYP1JIQODyRNFF9rt+2d0/axuQwfPl0ER7y+EpMgyCH9onz7/qJLAp3f3JirpMcO8ZVu9Id20q8bY35Nck7KGRBxq0wLYLs7JPNOZTlWnB/Qn9CDSMXidqFDeTCjOO4jNTbtjDLKZLDwTRNguRsn7DULmGWwjbS+LFcAZglmVcZu4eQ59JRYboEyd8+GfYZaKqdcbiI0tk/MVd3hLamT5B9+6S0q8C75M2QprRPmtSulF6tXY9+hhdUOvsn3PcgJeZDkAP7xK54gVqJEkkcZKuHtThXcdNScvmLjX23e66astxSEpYyjgHKzo8g+/aJhSXLkE+Z6C72IhBlD7H/QAErePHMHaHP8jdPghzaJ07tyi+RRIzlyM0eUvVtb6AsVmNxKowBV1Mb8yZIHPskbaI7juTldsZ539lDONPso44SZB9lbNbFJsk4nyQff/KtD8E19qF2RnTolSDHkIqfd0uY6K5N/N6hkPe2YUp/rujLtf8GlSBdi66ojoW59kn6RBK1Q6G1S94b6mpnhCinBAkhJHneLWUiCZ8N3R1XjyZLYQjqHP+vBMFKReZHdQvWXESxT7jZ0KuDKfgLTswyiUMmFseRlVOCUAXWlhUe1Y4g0Z3YziicQ+F71DC10A4BJQhnMcgTcePtE7mdcZ0sSzsHu5HVUYJIBJbaPlE7QyKdKHWVIDFglNsn7v7kIW9VW4IEzFjVzsCghC6jBEFDhSgoeX7aJ7q72d5nNCdI6BpCyoAqxNSnWkQJEluykkR3nLGkzoPFGdOE6ihBUgkzbhx62yhd4JJzKBzOvSUVfpm0qwRJLQhJIu72sd1BYVZ6n5FaeFOOSU+PHa0HiX1S96R2Bg3zCKV1B4kAIroJrn2idgYa4tgFlSCxEcW05+0TbKI7tTMwmCYqowRJBCyqWW+ftCW6m12CBBRmPRdSgvQMeGN3VaDWNtFdync9cpjryMagBMlFYM4+OYHX6lCYi0D8OJQgeclDR5MZAkqQzASiw8kLASVIXvLQ0WSGgBIkM4HocPJCQAmSlzx0NJkhoATJTCA6nLwQUILkJQ8dTWYIKEEyE4gOJy8ElCB5yUNHkxkCSpDMBKLDyQsBJUhe8tDRZIaAEiQzgehw8kLg/7+czJspfpNhAAAAAElFTkSuQmCC" parent="1" vertex="1">
          <mxGeometry x="597" y="-652" width="38" height="38" as="geometry" />
        </mxCell>
        <mxCell id="-dllcQzm70aawtmvtiuD-47" value="容器服务&lt;br&gt;Kubernetes版&lt;br&gt;ACK" style="rounded=0;whiteSpace=wrap;html=1;dashed=1;fillColor=#e1d5e7;strokeColor=#9673a6;" parent="1" vertex="1">
          <mxGeometry x="338" y="-793" width="89" height="53" as="geometry" />
        </mxCell>
        <mxCell id="-dllcQzm70aawtmvtiuD-48" value="云服务监控" style="rounded=0;whiteSpace=wrap;html=1;dashed=1;fillColor=#ffcccc;strokeColor=#36393d;" parent="1" vertex="1">
          <mxGeometry x="568" y="-235" width="332" height="29" as="geometry" />
        </mxCell>
        <mxCell id="-dllcQzm70aawtmvtiuD-67" value="云主机监控" style="rounded=0;whiteSpace=wrap;html=1;dashed=1;fillColor=#f9f7ed;strokeColor=#36393d;" parent="1" vertex="1">
          <mxGeometry x="289" y="-235" width="280" height="29" as="geometry" />
        </mxCell>
        <mxCell id="-dllcQzm70aawtmvtiuD-68" value="云容器监控" style="rounded=0;whiteSpace=wrap;html=1;dashed=1;fillColor=#ffcc99;strokeColor=#36393d;" parent="1" vertex="1">
          <mxGeometry x="860" y="-235" width="201" height="29" as="geometry" />
        </mxCell>
        <mxCell id="U4ejF-4J5pAf1z3FhMKp-1" value="" style="group" parent="1" vertex="1" connectable="0">
          <mxGeometry x="899.5" y="-561.5" width="116" height="171.5" as="geometry" />
        </mxCell>
        <mxCell id="76WRqrTsEyU47UKnnG5--194" value="" style="rounded=1;whiteSpace=wrap;html=1;dashed=1;fillColor=#fff2cc;strokeColor=#d6b656;" parent="U4ejF-4J5pAf1z3FhMKp-1" vertex="1">
          <mxGeometry y="20" width="108" height="151" as="geometry" />
        </mxCell>
        <mxCell id="76WRqrTsEyU47UKnnG5--195" value="EFK日志中心" style="text;html=1;align=center;verticalAlign=middle;resizable=0;points=[];;autosize=1;fontStyle=1" parent="U4ejF-4J5pAf1z3FhMKp-1" vertex="1">
          <mxGeometry x="5" width="81" height="18" as="geometry" />
        </mxCell>
        <mxCell id="76WRqrTsEyU47UKnnG5--196" value="" style="shape=image;html=1;verticalAlign=top;verticalLabelPosition=bottom;labelBackgroundColor=#ffffff;imageAspect=0;aspect=fixed;image=https://cdn4.iconfinder.com/data/icons/logos-brands-5/24/kibana-128.png;strokeWidth=1;" parent="U4ejF-4J5pAf1z3FhMKp-1" vertex="1">
          <mxGeometry x="35" y="23" width="31" height="31" as="geometry" />
        </mxCell>
        <mxCell id="76WRqrTsEyU47UKnnG5--197" value="Kibana" style="text;html=1;align=center;verticalAlign=middle;resizable=0;points=[];;autosize=1;" parent="U4ejF-4J5pAf1z3FhMKp-1" vertex="1">
          <mxGeometry x="24" y="51" width="50" height="20" as="geometry" />
        </mxCell>
        <mxCell id="76WRqrTsEyU47UKnnG5--199" value="ElasticSearch 服务" style="text;html=1;align=center;verticalAlign=middle;resizable=0;points=[];;autosize=1;" parent="U4ejF-4J5pAf1z3FhMKp-1" vertex="1">
          <mxGeometry x="5" y="105" width="111" height="18" as="geometry" />
        </mxCell>
        <mxCell id="76WRqrTsEyU47UKnnG5--200" value="" style="aspect=fixed;html=1;points=[];align=center;image;fontSize=12;image=img/lib/mscae/Input.svg;strokeWidth=1;" parent="U4ejF-4J5pAf1z3FhMKp-1" vertex="1">
          <mxGeometry x="33" y="127" width="25" height="23" as="geometry" />
        </mxCell>
        <mxCell id="76WRqrTsEyU47UKnnG5--201" value="Fluentd" style="text;html=1;align=center;verticalAlign=middle;resizable=0;points=[];;autosize=1;" parent="U4ejF-4J5pAf1z3FhMKp-1" vertex="1">
          <mxGeometry x="24.5" y="151.5" width="50" height="18" as="geometry" />
        </mxCell>
        <mxCell id="76WRqrTsEyU47UKnnG5--202" value="" style="edgeStyle=elbowEdgeStyle;elbow=horizontal;endArrow=classic;html=1;strokeWidth=1;entryX=0.94;entryY=0.576;entryDx=0;entryDy=0;entryPerimeter=0;" parent="U4ejF-4J5pAf1z3FhMKp-1" edge="1">
          <mxGeometry width="50" height="50" relative="1" as="geometry">
            <mxPoint x="61.5" y="145" as="sourcePoint" />
            <mxPoint x="60" y="91" as="targetPoint" />
            <Array as="points">
              <mxPoint x="98" y="120" />
            </Array>
          </mxGeometry>
        </mxCell>
        <mxCell id="76WRqrTsEyU47UKnnG5--205" value="存储" style="text;html=1;align=center;verticalAlign=middle;resizable=0;points=[];;labelBackgroundColor=#ffffff;" parent="76WRqrTsEyU47UKnnG5--202" vertex="1" connectable="0">
          <mxGeometry x="0.2996" y="3" relative="1" as="geometry">
            <mxPoint y="38" as="offset" />
          </mxGeometry>
        </mxCell>
        <mxCell id="76WRqrTsEyU47UKnnG5--203" value="" style="edgeStyle=elbowEdgeStyle;elbow=horizontal;endArrow=classic;html=1;strokeWidth=1;entryX=0.94;entryY=0.576;entryDx=0;entryDy=0;entryPerimeter=0;exitX=1.1;exitY=0.364;exitDx=0;exitDy=0;exitPerimeter=0;" parent="U4ejF-4J5pAf1z3FhMKp-1" edge="1">
          <mxGeometry width="50" height="50" relative="1" as="geometry">
            <mxPoint x="64" y="84" as="sourcePoint" />
            <mxPoint x="61.5" y="35.5" as="targetPoint" />
            <Array as="points">
              <mxPoint x="99.5" y="64.5" />
            </Array>
          </mxGeometry>
        </mxCell>
        <mxCell id="76WRqrTsEyU47UKnnG5--204" value="展示" style="text;html=1;align=center;verticalAlign=middle;resizable=0;points=[];;labelBackgroundColor=#ffffff;" parent="76WRqrTsEyU47UKnnG5--203" vertex="1" connectable="0">
          <mxGeometry x="0.3197" y="2" relative="1" as="geometry">
            <mxPoint x="1" y="10" as="offset" />
          </mxGeometry>
        </mxCell>
        <mxCell id="-dllcQzm70aawtmvtiuD-39" value="" style="shape=image;verticalLabelPosition=bottom;verticalAlign=top;imageAspect=0;aspect=fixed;image=data:image/png,iVBORw0KGgoAAAANSUhEUgAAAMgAAADICAYAAACtWK6eAAAVsElEQVR4Xu2de5wcVZXHv6dmhkAIAgYQgZB0d0BWIKIiRmCmeuLCusLq7qq4+EDhI6vIgi987Qd0F2R3FfnAIviAj08koLjrRxEfIEz3DEHkJRiUZ1cnvMJzSQiQ59TZT/VACHGS6a6+VXWr695/Euh7zj3ne+4v3VV1617BNUfAEdgsAXFsHAFHYPMEnEDc7HAEtkDACcRND0fACcTNAUcgHgH3DRKPm7MqCAEnkIIU2qUZj4ATSDxuzqogBJxAClJol2Y8Ak4g8bg5q4IQcAIpSKFdmvEIOIHE4+asCkLACaQghXZpxiPgBBKPm7MqCAEnkIIU2qUZj4ATSDxuzqogBJxAClJol2Y8Ak4g8bg5q4IQcAIpSKFdmvEIOIHE4+asCkLACaQghXZpxiPgBBKPW3JWI80d8GRHhB0RfVlrINXnEF2OTn+KoVc+ntzgzvOmBJxA0p4TI/fvR9/4fqjuC8xDdTeIxCAvb/3ZTlOeBV0OLEfk/4D7EW2A10Q1INwqYHiPB9tx5fpsmYATSJIzZKRxKMIgIgcA+7QEkWZT7ga9E4860j/G4Oxb0hy+F8ZyAjFVxXvvncay/vmE+Ejog7wJ2MaUezN+dCUqi4AxVEfZuXwj+8laM75704sTSLd1rQfHgH4AZEG3rlK3b/1UYyHoRVQrN6U+fg4GdAKJU6SRB+birT0R5BggunbIf1NuR7iIbfWHHFhZkf+EzGTgBNIJx1rzaERPAAY7Mcth30sI5XyGSzfkMHajITuBTIXz+ge2Ye26f0H0FJBdpureU5+rjtDnnc5gqdZTeXWQjBPI5mDd/si2PPXsycAnEdmpA6Y92FUXgZyOX76qB5PbYkpOIJviue7x7Rhf+THgEz1zfWFuVt+I6OkMVa4059JuT04gG9enFnwa+FeEHewuW8bRqV6HJycyVP5jxpEkPrwTSIS4vuRgGP8eyF6JE++VAZRxhAuYtv1pzJ/5dK+ktWkexRbI6JJXouG5wFG9WuDk89LHQD7NUOliRDT58dIdobgCqTc/C/pF+552pzsBjI2m3ID2H8/wnncY82mBo+IJZOIh3/+C7G8B/94KQVmN6In4le/0SmLFEkitcQIiZ7tvjaSnry5kZvnYXljnVQyB3NzYnmfkMoS3JD01nP8XCOhiQu9tDJeW5JlJ7wukFkTLQn6MsGueC5XP2Furh99LtXxFPuOH3hZIPTgVOCOvxemhuL+EXz4tj/n0rkBqja8jEi0sdM0OAt9nqHRs3m4F955ARrQfr/kT4O12zAsXxQYCyi/YqfSOPF2895ZAopW369b9CvDdtLSVgC4i3O4tDO/yjK0RbhxX7whk5OGdkNVXI0Tvf7tmNQFdjEx/cx52aOkNgUwsGYneWdjb6nnhgnuRgGqDvv43MDj7KZux5F8go8t2Jlw1irR2DXEtVwR0EX7lUJtDzrdArn/g5axbW3PLRmyeYlPEppxMtfw1WzPIr0Am3virI/J6W+G6uNoi8DB+efe2embQKZ8Cufnh6Tyz+hqE+Rkwc0OaJiBSZahUN+3WhL98CqQeRDCHTABwPqwgcCZ+OVr1YF3Ln0DcE3LrJlHXASkXUy1He4xZ1/IlkNHmB1H9rnUUXUDdEvgxfvnd3TpJwj4/Ahlb+nrC8ZuTgOB8Zk7gQvzyhzOPYpIA8iGQ1lPyVbchYu3dDhuLm5uYVD9KtfING+O1XyCqHvXmInfHysbpYygmT1/FYOUeQ96MurFfILXmfyD6eaNZO2cWEdBb8SvWPsuyWyAjzQPw9A8WVdOFYpqA6F8zVLnGtFtT/uwWSD24PfVTmUyRdX6mJqCcQbX8hak7ZtfDXoHUgmgL0DOzQ+NGTpaAXolfOTLZMbr3bqdARpr74Omd3afnPFhI4DlUT6VaOcfC2P4iJDsFUg+uB6Iz/lzrGQK6GOTHTOMi5pcfzUta9gmkHpwInJ8XgF3GuQy0CdIEoiOcoyOdl0PfxBHPfdobe92G4UP4lXu7ZJWJuV0CmTibY2nb54VngqyrQSMhXI3oVUznt+4swK5YpmJsl0DqwVeBT6WSeVqDKEsRvQyRhUU4TyMtrGmNY49ARppz8KKfGz3SlMsRzscvj/ZIRoVMwx6B1IPLACtXdHY2M/Rc+uVcDilHPxVdyzkBOwTSE0/M9Vr65TgnjJwrYpPw7RBInm/rqj6B553EUCn6BnStxwhkL5DakjchYfTcI38tOlVpIHw7h8x9LH/Bu4jbIWCBQIIfILy/nWAt6qMI/8lg6QuIjFsUlwvFMIFsBTK2dEfG1y9DZJrhvJJzp7oGkaPwyz9PbhDn2RYC2QokOpdc+IotMKaOQ1cSeoczXLph6r6uRy8QyFYg9SAASrkAqboCT4bcw75cVMtYkNkJZLT5N6j+2lgmyTp6jlB9hitu04hkOVvnPTuB1Bo/ReTvrSMyWUAib2Go9JtcxOqCNEogG4Hc8OTLWLNihdFMknP2Ifzyt5Nz7zzbTCAbgYw2/wnVS20G83xs1m5olgN2PRFiNgKpBdGxzO+ymqDqfWy11TwOnrXK6jhdcIkSyEggjZWIzEg0s26dC69xd6y6hZh/+/QFMtY4klDsPlhe+RrV8sn5L6/LoFsC6Quk3vw26HHdBp6YfbT4ULcrpX4K66L7dmG9HIZyCHAYInMTy9FuxzeBXovKNaiMMVxanWW46QukFjyBMDPLpLc4tsixDJW+l0p8E4ePfgr0b0FencqYeRtE+S3wc3ac/h1es+uzaYefrkCuW7ov4+N3pJ1kB+MFDJXmIpL8Zgm15hcQ/RywTQfxFber6jPgnUW1dHqaENIViPXne+h78SsLEy3A6NJD0PEfAOVEx+lV58pdqPwDw6W70kgxXYHUgwuAj6aRWOdj6J/xK/t2bteBRS04HuHCDixc10kJ6EqQd+KXr0oaULoCqTVuQuTApJOK6f8U/PLZMW2nNqsHZwGnTN3R9WibQArXi+kJZET78YLnQAbaBpBeR0W2eQVDr3w8kSHrwfcBK8/gSyTf9JyGiL6NocqVSQ2ZnkBGg4NQfp9UIl36reOXq136mNzcfXMkgnUjp6tA34hfWZzEQOkJxOYtRUVOYKj0TeOAR5rz8fR3xv06h5sSaBLOmJfEs6v0BFILzkM4ycraDgzswcGzHjIa2806wDPBnYhUjPp1ziYnoJxFtfwZ03jSE0g9+BFwlOkEDPi7B7/8KgN+XuqiHpwBnGrcr3O4eQKezmawcr9JRGkKpAb4JoM34iuJdVc3N7bnGR60fkGmEYA2OdFv4ldOMBlRegKpBXchmP+Xulsa0ZZDQ+UfduvmJfa524zCaPbZOhsYmMnBs6JjJIy0NAXyFMIORqI26UR4I0PlG026pN64BeR1Rn06Z20SkI/jl/67zc5TdktHIK1nIM11U0aTRYcdps8wugiu/tAsWGP0d3AWWHI8ptFb9ukIxNpJo4/jV3YxOhlqwT8jfMuoT+esfQKq69k9nMFee61p32jzPdMRiLWreHUxfmWeCZAbfNQa3yFaAuFadgS8vgMZnH2LiQDSEcjoktehoZGATSS9wYfqLVQrZteG5XmneqNwM3Sm8h6qJSObgqQjkLHmGwnVwu069Xr8SvQGn7lWD+4G9jbn0HmKQeBU/PKZMez+wiQdgdSCQQT7jiJTHaFaWWAC5Is/saKn5+xj1Kdz1imBC/HLH+7UaLL+6QhkrFkl1BETARv1kYhAGncgkux7JUYh9KAz1cuoVo42kVk6ArH3kJxR/LLZp/v1IHqm8gYTxXE+YhIwuDoiHYFYe5HObVTLr41ZhsnNasFVCIcZ9emcdUhAPodf+nKHRpN2T0kgS1+Njv/JRMBGfag2qFbMbq9Tb3wTxMjvX6O5FsqZdwT+nF+aSDkdgdSXlCCMzgKxrOlj+JVXGA2q1jwZUWNLHYzGVhRn/eErTJ0bmY5AbN7N3S+bZWDrz8miiANuwi8fZCpds5NjS1HVg+iwS89U4Mb89PfP5ZA9G8b8RY5s3xzPaLKWOVP5LNWSsWP90hNILViGsKtlOCPNGvu9uiG3euMckI/bl2vPR6QMDMwy+XZoegKpB7cDZtc9mai36CcYqpxrwtVGAtkL5B6jPp2zNgjolfiVI9vo2HaXFAXS+AXIEW1HllZH1e9SrZjfTLsWXI7wzrTScOMAobyW4dJtJlmkKJAgurNj35ECyhKqZfMn7S66v8K69Xcj9JksmPO1GQKq36NaMb6KOj2B2Hz7cxq7Mr/8qPHJV2+cC/Ix436dw5cSUH2QrXfYl/kznzaNJj2B1Je8FcLEdsDrCoxyDNXyxV35mMz4Dt2KJ5s3WXntZTzZDB2qt4DqnETW+qUnkLHGnoSyNEOMWxhaF+JX3ptIbNFDUg1vtfJ9/EQSTt3pl/DLpyU1anoCiTKoBXZu3KCsZsfpOxl9N33jik0s1owOgpmeVCEL6tfYex+b45e2QEYQktkDt+sZIh/EL0WbTCfTao03IFwJsnMyAxTO6wfwy9E5K4m2dAUyGpyN8slEM4rrPDrqq1pOdhXuyIN7IGt+hch+ccMsvJ3yJH1yBIOlVDZCT1kgjXeg8hNLi6yEA3szPOu+ROO7/ZFtWf7sme7uVgzKyg8ZCD9laiFiOxGkK5CxpTsSjhvb9a6dBDvrk+DF+qaBjNy/H7Luk24HlHYqpH9G5SNUy2Pt9DbZJ12BtC7UG4st/okREg68KvFvkY0rOPLYDLyVh4O8GdXDC3z88ybzWq8B72pErmZozq0mJ30nvtIXSN3SJ+ovUFMuplrO7jSo6DrFW/dmCM0/3e9kZmTRV2Ut4t2AP+faLIafbMz0BTLaOAKVX9gCYNI4QnkTwyULtymymlpPBpe+QKKny08ETyMyzVqiyt34pX0Rid5hca3ABNIXSOs6JAcbG6h8Me1D6ws8D61NPRuB1JsfAzX7DkYSiJWhLO6cJJGK8xmPQDYCGXl4J7zV0epZ+17B3Zij8igD4bw077vHK6OzSopANgKJsqkHPwPellRixvyqXke1MmjMn3OUKwLZCWTU6qfqmxQxxQeIuZo+vR9sdgKJTp2SaCMH2SkfmPXf8Sv/lo9YXZSmCGQnkIm7WV9B+LSpZJL3k/CK3+QTcCN0SCBbgdQbedv9Q4HP4Je/2iFn1z2nBLIVSOtbpHEtIsP54mf+PO585V+caLMXiM3vqm9pHii/Zuvt353ERgHFmX72Z5q9QCa+RWxe4bv5Kka7w/fxVgYrbpM4++d6rAjtEEg9OAr4UawMMjfSlWjfB6jO+WnmobgAjBOwQyBRWvXgz8BfGc8wPYc/g2kn4e/+QHpDupGSJmCRQBr/CPI/SSecuP9okeNW/Wdx8KxViY/lBkicgD0CaV2LBLchvCbxrBMfQB8D+Qrbbv0NDtztucSHcwMkRsAugdSDw4HfJJZt2o6jHTiQ8xC5GH9OM+3h3XjdE7BLIBPXIpFAIqH0WrsJ5XJUrmC4dFevJder+dgnkFFLD/w0OwOWEe3D5XEVoje628Rm4Zr0Zp9AJq5FzkM4yWSiVvtSnkX0dpBbQR9CWQHeckRW4OlzEPajXh8qfWjYh9f602v998Tf+0D6EPFQ7UOjIxf0+c+e7ysy0Sf6HF7s6/H8/4s+i3yE3oZ+LZvW5x4v/v35sVrjTPSVyGdkH/nViXd8lKUI9yDenUwPaxxYWWF1DTYTnJ0CGWnugKfRsdG75RGqi3kyAvot/MpH8sbGToG0rkWWLIDwmrwBdfFukcAfCOWtDJceyQsnewXSEknjv0A+mxeYLs42CEQnesm0obw8ULVbIK3rkcbNiLy+DfSuS14IRNsqVcv75CFc+wWSv3dG8lB3G2JM/GwPE0naL5Aoy9HgQygXmUjY+bCEgLKcGVvvbvtKg3wIpHU9EkTHJrzDkvK6MEwQ8PTvGKxYvQ1tfgQyca7G70D2N1Eb58MGAvpl/MrnbIhkczHkRyBRBouC2awn2gr/5TZDdbG1SSBaelMtR+8CWdvyJZDWXa1gEGHUWqIusPYJKFdQLVu9eWD+BBLhH2scSShXtF8J19NSApfgl99naWytsPIpkNY3SfNoRBfaDNfFNiWB0/DLX5qyV4Yd8iuQCFq9cRzItzPk54buhoAn89M6rTZumPkWSJS1e0YSt/bZ2qn+iWrF+uOw8y+QiQv34xEuzLbibvSOCCiHUy1f3ZFNBp17QyATInk/wvdzfV2VwQTIZEjVS6lW3pPJ2B0O2jsCaV2TNN+N6iVI9MKQa1YSUO6if7uDOHTnlVbGt0lQvSWQiQv33tg+KA+zp9MYldvo7z+CQ/d8uFPTrPr3nkAikiONAxH5NcLMrMC6cf+CwI+YWTqG/WRtntj0pkBaInlwD2TNrxCx/k5JniZM57HqOpBP4Jcv6Nw2e4veFUhLJI/NQFZeiMjR2aMuYASqTyB9b8efc31es+9tgbxQlVrjWESif8G2yWuhchh3HfGOZmjOshzGviHkYggkSnfR/RXWr4+WphyU54LlJPZT8Mtn5yTWLYZZHIFEGKI9oUaXnIqGpyLS3wsFtCsHXUzoHdVLO0cWSyAvzKboLpcnlwB72zXB8hyN/S8/xaFbTIG8eG3yeUROc9cmcabOBps7kb7jGZq9qCsvlhoXWyBRUa5/YHfWrjsH4V2W1sjOsKLj5/BOo1q61M4AzUTlBPICx3pjf5Do3QSr33AzU/YuvCiPgJ6Bli9kWNZ34SkXpk4gm5apvuS1aHg6wpG5qGBaQUbPNJBz2GrgnCKdnuUEsrkJ5r5RXiDzB9Dz2S28hL32WpOWHm0ZxwlkqkqMBvMIW0cxvA9h66m6987nuhDp/3qvXny3WycnkHZJ3fDky1jz9LGgxwHz2jXLVb9oz1yRSwn5Vp52YE+SsRNIHLqt/YK990B4FMir47iwxiZ6PwMuR/Ry/Mpia+KyJBAnkG4LMfLAXGTdAoQFwGH52NRObwX5JcLlDJX/2C2CXrZ3AjFZXVVhrLk/KsOgC1D1Edne5BAxfCkQfTPUUK/GjPFr83ocWozcuzZxAuka4RQORpr70McBaHgAyAGozkWkktCw0Znsd4NGR07fi/b93gmiO9JOIN3xi28dPcFfNz4bxucAe4KUUPZENl2Sr+PAapBVKKsm/s4qPF1F6EWHfy4B7z6mhQ3mlx+NH5CznIyAE4ibF47AFgg4gbjp4Qg4gbg54AjEI+C+QeJxc1YFIeAEUpBCuzTjEXACicfNWRWEgBNIQQrt0oxHwAkkHjdnVRACTiAFKbRLMx4BJ5B43JxVQQg4gRSk0C7NeAScQOJxc1YFIeAEUpBCuzTjEXACicfNWRWEgBNIQQrt0oxHwAkkHjdnVRACTiAFKbRLMx4BJ5B43JxVQQg4gRSk0C7NeAScQOJxc1YFIeAEUpBCuzTjEfh/VxeCFMCp/b4AAAAASUVORK5CYII=" parent="U4ejF-4J5pAf1z3FhMKp-1" vertex="1">
          <mxGeometry x="28" y="72" width="35" height="35" as="geometry" />
        </mxCell>
        <mxCell id="U4ejF-4J5pAf1z3FhMKp-2" value="" style="edgeStyle=orthogonalEdgeStyle;rounded=0;comic=0;orthogonalLoop=1;jettySize=auto;html=1;startArrow=none;startFill=0;strokeWidth=1;exitX=0.065;exitY=0.984;exitDx=0;exitDy=0;exitPerimeter=0;entryX=0.963;entryY=0.028;entryDx=0;entryDy=0;entryPerimeter=0;" parent="1" source="76WRqrTsEyU47UKnnG5--63" target="76WRqrTsEyU47UKnnG5--7" edge="1">
          <mxGeometry relative="1" as="geometry">
            <mxPoint x="534" y="-612" as="sourcePoint" />
            <mxPoint x="492" y="-510" as="targetPoint" />
            <Array as="points">
              <mxPoint x="525" y="-600" />
            </Array>
          </mxGeometry>
        </mxCell>
        <mxCell id="U4ejF-4J5pAf1z3FhMKp-3" value="获取配置信息" style="text;html=1;align=center;verticalAlign=middle;resizable=0;points=[];;labelBackgroundColor=#ffffff;" parent="U4ejF-4J5pAf1z3FhMKp-2" vertex="1" connectable="0">
          <mxGeometry x="-0.1643" y="-1" relative="1" as="geometry">
            <mxPoint x="1" y="20.5" as="offset" />
          </mxGeometry>
        </mxCell>
        <mxCell id="U4ejF-4J5pAf1z3FhMKp-4" value="" style="edgeStyle=orthogonalEdgeStyle;rounded=0;comic=0;orthogonalLoop=1;jettySize=auto;html=1;startArrow=none;startFill=0;strokeWidth=1;" parent="1" edge="1">
          <mxGeometry relative="1" as="geometry">
            <mxPoint x="655" y="-608" as="sourcePoint" />
            <mxPoint x="655" y="-516" as="targetPoint" />
            <Array as="points">
              <mxPoint x="655" y="-608" />
            </Array>
          </mxGeometry>
        </mxCell>
        <mxCell id="U4ejF-4J5pAf1z3FhMKp-5" value="获取配置信息" style="text;html=1;align=center;verticalAlign=middle;resizable=0;points=[];;labelBackgroundColor=#ffffff;" parent="U4ejF-4J5pAf1z3FhMKp-4" vertex="1" connectable="0">
          <mxGeometry x="-0.1643" y="-1" relative="1" as="geometry">
            <mxPoint x="1" y="20.5" as="offset" />
          </mxGeometry>
        </mxCell>
        <mxCell id="6KSc7Ux9x6MekKdUjiNy-10" value="" style="shape=singleArrow;whiteSpace=wrap;html=1;" parent="1" vertex="1">
          <mxGeometry x="212" y="-459" width="63" height="42" as="geometry" />
        </mxCell>
        <mxCell id="6KSc7Ux9x6MekKdUjiNy-11" value="API请求" style="text;html=1;resizable=0;points=[];autosize=1;align=left;verticalAlign=top;spacingTop=-4;" parent="1" vertex="1">
          <mxGeometry x="212" y="-472" width="53" height="14" as="geometry" />
        </mxCell>
      </root>
    </mxGraphModel>
  </diagram>
</mxfile>
